<?xml version="1.0" encoding="UTF-8"?>
<!-- Generated by jsxcad -->
<!DOCTYPE svg PUBLIC "-//W3C//DTD SVG 1.1 Tiny//EN" "http://www.w3.org/Graphics/SVG/1.1/DTD/svg11-tiny.dtd">
<svg viewBox="-250 -250 500 500" width="500" height="500" xmlns="http://www.w3.org/2000/svg"><path d="M52.394849641174766,56.875750993350785L71.73668423873576,96.26667176327088L70.76273225664154,94.26980264353242z" style="fill:rgb(241,183,130)"/><path d="M37.38759581184466,115.42201647317385L16.335582690282767,76.91862654995445L36.097919738480556,113.59799381216288z" style="fill:rgb(19,60,138)"/><path d="M53.366632699642636,58.86874917202333L72.30460975383188,98.44375628022826L71.73668423873576,96.26667176327088z" style="fill:rgb(245,171,144)"/><path d="M39.0430217036444,116.99568378684623L17.632787866828973,78.73405434752247L37.38759581184466,115.42201647317385z" style="fill:rgb(28,51,152)"/><path d="M53.9169156793664,61.05039497314462L72.45113293753185,100.75304231884655L72.30460975383188,98.44375628022826z" style="fill:rgb(247,158,158)"/><path d="M41.02892803770214,118.28178008011294L19.311558436543677,80.29149086582096L39.0430217036444,116.99568378684623z" style="fill:rgb(39,43,166)"/><path d="M72.45113293753185,100.75304231884655L53.702111671169355,65.78359404726247L72.17037677426025,103.14285628289409z" style="fill:rgb(245,144,171)"/><path d="M43.30199073738178,119.2493196725314L21.336274283848894,81.55398865020403L41.02892803770214,118.28178008011294z" style="fill:rgb(52,37,178)"/><path d="M72.17037677426025,103.14285628289409L52.9365960136892,68.22864980990092L71.46633468639818,105.55908833590283z" style="fill:rgb(241,130,183)"/><path d="M26.239633892282566,83.07903972299097L43.30199073738178,119.2493196725314L45.81167645531799,119.87441832182499z" style="fill:rgb(67,34,190)"/><path d="M71.46633468639818,105.55908833590283L51.74920970401182,70.65181066857761L70.3529601256619,107.94639035906516z" style="fill:rgb(235,116,194)"/><path d="M29.00847710566223,83.3029778250399L45.81167645531799,119.87441832182499L48.50135505912942,120.14103471139767z" style="fill:rgb(83,32,200)"/><path d="M70.3529601256619,107.94639035906516L50.16535617567546,72.99700590390486L68.85407356902066,110.24958493949705z" style="fill:rgb(226,102,203)"/><path d="M31.906132594483903,83.15599391343807L48.50135505912942,120.14103471139767L51.30959977615702,120.04149642310632z" style="fill:rgb(100,32,208)"/><path d="M68.85407356902066,110.24958493949705L48.22016987001115,75.20957686576058L67.00287127566388,112.41502610998714z" style="fill:rgb(215,88,211)"/><path d="M34.86574652179707,82.64020515649989L51.30959977615702,120.04149642310632L54.17168891176664,119.5769041738898z" style="fill:rgb(118,35,215)"/><path d="M71.73668423873576,96.26667176327088L52.394849641174766,56.875750993350785L53.366632699642636,58.86874917202333z" style="fill:rgb(241,183,130)"/><path d="M67.00287127566388,112.41502610998714L45.95772996717313,77.23764645640927L64.84127672190537,114.3920330400354z" style="fill:rgb(202,76,217)"/><path d="M37.81857688849764,81.76663768384222L54.17168891176664,119.5769041738898L57.02121961344522,118.75710466176987z" style="fill:rgb(136,39,219)"/><path d="M45.95772996717313,77.23764645640927L62.41889202475469,116.13418546713649L64.84127672190537,114.3920330400354z" style="fill:rgb(187,64,221)"/><path d="M40.69574450379926,80.55507409143515L57.02121961344522,118.75710466176987L59.79182191657096,117.60062411008938z" style="fill:rgb(154,46,222)"/><path d="M43.43004429906251,79.03354795586186L59.79182191657096,117.60062411008938L62.41889202475469,116.13418546713649z" style="fill:rgb(171,54,222)"/><path d="M16.335582690282767,76.91862654995445L37.38759581184466,115.42201647317385L17.632787866828973,78.73405434752247z" style="fill:rgb(19,60,138)"/><path d="M72.30460975383188,98.44375628022826L53.366632699642636,58.86874917202333L53.9169156793664,61.05039497314462z" style="fill:rgb(245,171,144)"/><path d="M17.632787866828973,78.73405434752247L39.0430217036444,116.99568378684623L19.311558436543677,80.29149086582096z" style="fill:rgb(28,51,152)"/><path d="M72.45113293753185,100.75304231884655L53.9169156793664,61.05039497314462L54.03051774641952,63.37264316673567z" style="fill:rgb(247,158,158)"/><path d="M20.903717711804514,58.793755188319885L21.336274283848894,81.55398865020403L23.12254387863968,56.8348640159878z" style="fill:rgb(83,212,212)"/><path d="M19.311558436543677,80.29149086582096L41.02892803770214,118.28178008011294L21.336274283848894,81.55398865020403z" style="fill:rgb(39,43,166)"/><path d="M53.702111671169355,65.78359404726247L72.45113293753185,100.75304231884655L54.03051774641952,63.37264316673567z" style="fill:rgb(245,144,171)"/><path d="M18.978219865947352,60.93476188512512L21.336274283848894,81.55398865020403L20.903717711804514,58.793755188319885zM17.38838866095166,63.21236618740268L19.311558436543677,80.29149086582096L18.978219865947352,60.93476188512512zM23.12254387863968,56.8348640159878L26.239633892282566,83.07903972299097L25.586571396345438,55.099606867820306zM16.169883883795748,65.57791575560638L17.632787866828973,78.73405434752247L17.38838866095166,63.21236618740268zM25.586571396345438,55.099606867820306L29.00847710566223,83.3029778250399L28.24282101848678,53.62479904737026zM15.350881818811615,67.98045764839021L16.335582690282767,76.91862654995445L16.169883883795748,65.57791575560638zM28.24282101848678,53.62479904737026L31.906132594483903,83.15599391343807L31.0344857983158,52.44187689107125zM14.951373888073366,70.36776751749215L15.446481788754502,74.88753022112445L15.350881818811615,67.98045764839021zM31.0344857983158,52.44187689107125L34.86574652179707,82.64020515649989L33.90195685313919,51.57632723225574z" style="fill:rgb(83,212,212)"/><path d="M21.336274283848894,81.55398865020403L43.30199073738178,119.2493196725314L23.662853452696197,82.4909399267904z" style="fill:rgb(52,37,178)"/><path d="M52.9365960136892,68.22864980990092L72.17037677426025,103.14285628289409L53.702111671169355,65.78359404726247z" style="fill:rgb(241,130,183)"/><path d="M33.90195685313919,51.57632723225574L37.81857688849764,81.76663768384222L36.78395042508652,51.047215897611174zM15.446481788754502,74.88753022112445L14.951373888073366,70.36776751749215L14.982576204297484,72.68734630952024z" style="fill:rgb(83,212,212)"/><path d="M43.30199073738178,119.2493196725314L26.239633892282566,83.07903972299097L23.662853452696197,82.4909399267904z" style="fill:rgb(67,34,190)"/><path d="M36.78395042508652,51.047215897611174L40.69574450379926,80.55507409143515L39.61861337934449,50.866771487329zM15.350881818811615,67.98045764839021L15.446481788754502,74.88753022112445L16.335582690282767,76.91862654995445z" style="fill:rgb(83,212,212)"/><path d="M51.74920970401182,70.65181066857761L71.46633468639818,105.55908833590283L52.9365960136892,68.22864980990092z" style="fill:rgb(235,116,194)"/><path d="M39.61861337934449,50.866771487329L43.43004429906251,79.03354795586186L42.344691438104604,51.04006339553786zM16.169883883795748,65.57791575560638L16.335582690282767,76.91862654995445L17.632787866828973,78.73405434752247z" style="fill:rgb(83,212,212)"/><path d="M45.81167645531799,119.87441832182499L29.00847710566223,83.3029778250399L26.239633892282566,83.07903972299097z" style="fill:rgb(83,32,200)"/><path d="M42.344691438104604,51.04006339553786L43.43004429906251,79.03354795586186L44.90273054537239,51.5648556551483z" style="fill:rgb(83,212,212)"/><path d="M50.16535617567546,72.99700590390486L70.3529601256619,107.94639035906516L51.74920970401182,70.65181066857761z" style="fill:rgb(226,102,203)"/><path d="M17.38838866095166,63.21236618740268L17.632787866828973,78.73405434752247L19.311558436543677,80.29149086582096z" style="fill:rgb(83,212,212)"/><path d="M48.50135505912942,120.14103471139767L31.906132594483903,83.15599391343807L29.00847710566223,83.3029778250399z" style="fill:rgb(100,32,208)"/><path d="M44.90273054537239,51.5648556551483L45.95772996717313,77.23764645640927L47.23625924924955,52.43144727000612zM18.978219865947352,60.93476188512512L19.311558436543677,80.29149086582096L21.336274283848894,81.55398865020403z" style="fill:rgb(83,212,212)"/><path d="M48.22016987001115,75.20957686576058L68.85407356902066,110.24958493949705L50.16535617567546,72.99700590390486z" style="fill:rgb(215,88,211)"/><path d="M47.23625924924955,52.43144727000612L50.16535617567546,72.99700590390486L49.292990338123104,53.62278415326332z" style="fill:rgb(83,212,212)"/><path d="M51.30959977615702,120.04149642310632L34.86574652179707,82.64020515649989L31.906132594483903,83.15599391343807z" style="fill:rgb(118,35,215)"/><path d="M23.12254387863968,56.8348640159878L21.336274283848894,81.55398865020403L23.662853452696197,82.4909399267904z" style="fill:rgb(83,212,212)"/><path d="M45.95772996717313,77.23764645640927L67.00287127566388,112.41502610998714L48.22016987001115,75.20957686576058z" style="fill:rgb(202,76,217)"/><path d="M54.17168891176664,119.5769041738898L37.81857688849764,81.76663768384222L34.86574652179707,82.64020515649989z" style="fill:rgb(136,39,219)"/><path d="M49.292990338123104,53.62278415326332L50.16535617567546,72.99700590390486L51.02600293697272,55.114597371829724z" style="fill:rgb(83,212,212)"/><path d="M62.41889202475469,116.13418546713649L45.95772996717313,77.23764645640927L43.43004429906251,79.03354795586186z" style="fill:rgb(187,64,221)"/><path d="M57.02121961344522,118.75710466176987L40.69574450379926,80.55507409143515L37.81857688849764,81.76663768384222z" style="fill:rgb(154,46,222)"/><path d="M23.12254387863968,56.8348640159878L23.662853452696197,82.4909399267904L26.239633892282566,83.07903972299097z" style="fill:rgb(83,212,212)"/><path d="M59.79182191657096,117.60062411008938L43.43004429906251,79.03354795586186L40.69574450379926,80.55507409143515z" style="fill:rgb(171,54,222)"/><path d="M51.02600293697272,55.114597371829724L51.74920970401182,70.65181066857761L52.394849641174766,56.875750993350785zM25.586571396345438,55.099606867820306L26.239633892282566,83.07903972299097L29.00847710566223,83.3029778250399zM52.394849641174766,56.875750993350785L53.702111671169355,65.78359404726247L53.366632699642636,58.86874917202333zM28.24282101848678,53.62479904737026L29.00847710566223,83.3029778250399L31.906132594483903,83.15599391343807zM53.366632699642636,58.86874917202333L53.702111671169355,65.78359404726247L53.9169156793664,61.05039497314462zM31.0344857983158,52.44187689107125L31.906132594483903,83.15599391343807L34.86574652179707,82.64020515649989zM33.90195685313919,51.57632723225574L34.86574652179707,82.64020515649989L37.81857688849764,81.76663768384222zM36.78395042508652,51.047215897611174L37.81857688849764,81.76663768384222L40.69574450379926,80.55507409143515zM52.394849641174766,56.875750993350785L52.9365960136892,68.22864980990092L53.702111671169355,65.78359404726247zM53.9169156793664,61.05039497314462L53.702111671169355,65.78359404726247L54.03051774641952,63.37264316673567zM39.61861337934449,50.866771487329L40.69574450379926,80.55507409143515L43.43004429906251,79.03354795586186zM47.23625924924955,52.43144727000612L48.22016987001115,75.20957686576058L50.16535617567546,72.99700590390486zM52.394849641174766,56.875750993350785L51.74920970401182,70.65181066857761L52.9365960136892,68.22864980990092zM44.90273054537239,51.5648556551483L43.43004429906251,79.03354795586186L45.95772996717313,77.23764645640927zM51.02600293697272,55.114597371829724L50.16535617567546,72.99700590390486L51.74920970401182,70.65181066857761zM47.23625924924955,52.43144727000612L45.95772996717313,77.23764645640927L48.22016987001115,75.20957686576058z" style="fill:rgb(83,212,212)"/><path d="M53.70377398163476,-58.88036156236187L97.77940272894959,41.83598047558093L96.94567895360316,39.769393431324055z" style="fill:rgb(244,176,138)"/><path d="M-22.317376892149582,104.69908118333602L-78.73251504319798,10.315057172994802L-23.566655699916073,102.84767538350735z" style="fill:rgb(20,59,140)"/><path d="M54.514944082052324,-56.84898923073441L98.48612066696997,43.963326671702546L97.77940272894959,41.83598047558093z" style="fill:rgb(245,173,142)"/><path d="M-20.945629833693186,106.48062460713373L-77.49338159754495,12.125329704336911L-22.317376892149582,104.69908118333602z" style="fill:rgb(22,56,144)"/><path d="M55.18708323931898,-54.74952454275198L99.06351627914658,46.147366570331606L98.48612066696997,43.963326671702546z" style="fill:rgb(246,169,146)"/><path d="M-19.45349707379811,108.18811230684565L-76.11874326704105,13.860227392732439L-20.945629833693186,106.48062460713373z" style="fill:rgb(25,53,148)"/><path d="M55.71777039827987,-52.58588397521931L99.50949992963055,48.383863411080426L99.06351627914658,46.147366570331606z" style="fill:rgb(246,165,151)"/><path d="M-17.84334675539817,109.81743812459722L-74.61052584586943,15.515543258835729L-19.45349707379811,108.18811230684565z" style="fill:rgb(28,51,152)"/><path d="M56.10485735912792,-50.36219376456575L99.82228735607023,50.66840525641633L99.50949992963055,48.383863411080426z" style="fill:rgb(247,161,155)"/><path d="M-16.117846338281506,111.36462554074748L-72.97096411510229,17.08718814036105L-17.84334675539817,109.81743812459722z" style="fill:rgb(31,48,156)"/><path d="M99.82228735607023,50.66840525641633L56.44112283505644,-45.752101541921135L100.00035347713205,52.99641621403532z" style="fill:rgb(247,157,159)"/><path d="M-14.279953735490572,112.82583572335066L-71.20264463717295,18.57120508339284L-16.117846338281506,111.36462554074748z" style="fill:rgb(35,46,161)"/><path d="M100.00035347713205,52.99641621403532L56.38751809264864,-43.37488109161027L100.04243764302585,55.36316453045531z" style="fill:rgb(247,153,163)"/><path d="M-12.332925277963291,114.19736150711928L-69.3084562073891,19.963777543352375L-14.279953735490572,112.82583572335066z" style="fill:rgb(38,44,165)"/><path d="M100.04243764302585,55.36316453045531L56.18477708027032,-40.9559567899489L99.94762035992727,57.763771587681006z" style="fill:rgb(246,149,167)"/><path d="M-10.280304324410269,115.47567308460177L-67.29163223619025,21.261252314231076L-12.332925277963291,114.19736150711928z" style="fill:rgb(42,42,168)"/><path d="M99.94762035992727,57.763771587681006L55.83232851261307,-38.50034381691528L99.7152548581982,60.193220287627355z" style="fill:rgb(246,144,171)"/><path d="M-8.125928126004709,116.6574267236083L-65.15573890139655,22.460147863007982L-10.280304324410269,115.47567308460177z" style="fill:rgb(46,40,172)"/><path d="M99.7152548581982,60.193220287627355L55.32996114617273,-36.01321821519156L99.34502518768191,62.646362268517805z" style="fill:rgb(245,140,174)"/><path d="M-5.873915998810874,117.7394364239187L-62.9046630519134,23.557164757184655L-8.125928126004709,116.6574267236083z" style="fill:rgb(50,38,176)"/><path d="M99.34502518768191,62.646362268517805L54.67780789339192,-33.49988637369796L98.83692614135663,65.11793158881021z" style="fill:rgb(243,136,178)"/><path d="M-3.528669546479944,118.71873161764901L-60.54262641973715,24.54921157413379L-5.873915998810874,117.7394364239187z" style="fill:rgb(54,37,180)"/><path d="M98.83692614135663,65.11793158881021L53.876382122867916,-30.9657899023258L98.19129683084142,67.60257145315944z" style="fill:rgb(242,131,182)"/><path d="M-1.0948632835545389,119.5925534242182L-58.07416343750068,25.43340546577174L-3.528669546479944,118.71873161764901z" style="fill:rgb(58,35,183)"/><path d="M98.19129683084142,67.60257145315944L52.926560209111656,-28.41649155845896L97.40880484648369,70.09481902383024z" style="fill:rgb(240,127,185)"/><path d="M1.4225621288847552,120.35837726487837L-55.504140524161706,26.207093662140103L-1.0948632835545389,119.5925534242182z" style="fill:rgb(63,34,187)"/><path d="M97.40880484648369,70.09481902383024L51.8296052535372,-25.857657575196242L96.49045462896926,72.58913943451844z" style="fill:rgb(239,123,189)"/><path d="M-50.08035124418237,27.413563766322667L1.4225621288847552,120.35837726487837L4.018409023043027,121.01392112358457z" style="fill:rgb(67,33,190)"/><path d="M96.49045462896926,72.58913943451844L50.587156837763935,-23.295032695348883L95.43760845412376,75.07993148675496z" style="fill:rgb(236,119,192)"/><path d="M-47.23780916031867,27.84229250669574L4.018409023043027,121.01392112358457L6.6872332321591825,121.55711774720292z" style="fill:rgb(72,33,193)"/><path d="M95.43760845412376,75.07993148675496L49.20124266043025,-20.734443808831916L94.2519675250899,77.56156194248149z" style="fill:rgb(234,114,195)"/><path d="M97.77940272894959,41.83598047558093L53.70377398163476,-58.88036156236187L54.514944082052324,-56.84898923073441z" style="fill:rgb(244,176,138)"/><path d="M-44.31611701459148,28.15243578796656L6.6872332321591825,121.55711774720292L9.423355292198686,121.98619697088976z" style="fill:rgb(77,32,196)"/><path d="M-67.89655970903446,-43.934697649437084L-71.20264463717295,18.57120508339284L-65.93477111822781,-46.15621333355813zM-65.93477111822781,-46.15621333355813L-69.3084562073891,19.963777543352375L-63.87792139854283,-48.33810372405019zM-69.75943007358184,-41.67737189759865L-72.97096411510229,17.08718814036105L-67.89655970903446,-43.934697649437084z" style="fill:rgb(83,212,212)"/><path d="M-78.73251504319798,10.315057172994802L-22.317376892149582,104.69908118333602L-77.49338159754495,12.125329704336911z" style="fill:rgb(20,59,140)"/><path d="M-63.87792139854283,-48.33810372405019L-67.29163223619025,21.261252314231076L-61.72998009911759,-50.47664978781903zM-71.51964214182145,-39.388130131559606L-74.61052584586943,15.515543258835729L-69.75943007358184,-41.67737189759865z" style="fill:rgb(83,212,212)"/><path d="M94.2519675250899,77.56156194248149L47.674274044215906,-18.18177205026866L92.9355736286745,80.02834870160802z" style="fill:rgb(232,110,198)"/><path d="M-61.72998009911759,-50.47664978781903L-65.15573890139655,22.460147863007982L-59.49502570219616,-52.56822484314703zM-73.17359696862987,-37.070952439411904L-76.11874326704105,13.860227392732439L-71.51964214182145,-39.388130131559606zM-59.49502570219616,-52.56822484314703L-62.9046630519134,23.557164757184655L-57.177248139588166,-54.60929018015256zM-74.71781151344048,-34.72990234527143L-77.49338159754495,12.125329704336911L-73.17359696862987,-37.070952439411904zM-57.177248139588166,-54.60929018015256L-60.54262641973715,24.54921157413379L-54.78092236416835,-56.59639759258852zM-76.14895058862693,-32.3691153874205L-78.73251504319798,10.315057172994802L-74.71781151344048,-34.72990234527143zM-54.78092236416835,-56.59639759258852L-58.07416343750068,25.43340546577174L-52.31041847303461,-58.52621269958635z" style="fill:rgb(83,212,212)"/><path d="M-41.321573105884944,28.342659396897012L9.423355292198686,121.98619697088976L12.220874599494795,122.29964518251143z" style="fill:rgb(82,32,199)"/><path d="M-77.4638343853402,-29.992811745762218L-79.83455454469346,8.433717605199265L-76.14895058862693,-32.3691153874205zM-52.31041847303461,-58.52621269958635L-55.504140524161706,26.207093662140103L-49.770197647569404,-60.39548705879797zM-78.65943462785881,-27.605271695315846L-80.79821774175197,6.485710277167466L-77.4638343853402,-29.992811745762218z" style="fill:rgb(83,212,212)"/><path d="M98.48612066696997,43.963326671702546L54.514944082052324,-56.84898923073441L55.18708323931898,-54.74952454275198z" style="fill:rgb(245,173,142)"/><path d="M-49.770197647569404,-60.39548705879797L-52.83771550854969,26.867867416613613L-47.16480224285241,-62.201075858610565z" style="fill:rgb(83,212,212)"/><path d="M92.9355736286745,80.02834870160802L46.00905633875583,-15.642933559242996L91.49083171127324,82.47460305968211z" style="fill:rgb(229,106,201)"/><path d="M-79.73288397350684,-25.21084938084835L-81.6225246574135,4.475512368572225L-78.65943462785881,-27.605271695315846zM-47.16480224285241,-62.201075858610565L-50.08035124418237,27.413563766322667L-44.498852926633546,-63.939931974600725zM-80.68149828460214,-22.81395516570577L-82.30681185785517,2.407663665518489L-79.73288397350684,-25.21084938084835zM-44.498852926633546,-63.939931974600725L-47.23780916031867,27.84229250669574L-41.77704261178044,-65.60911772380018z" style="fill:rgb(83,212,212)"/><path d="M-38.26072610279746,28.41193416001862L12.220874599494795,122.29964518251143L15.073681345898438,122.49621322461098z" style="fill:rgb(87,32,202)"/><path d="M-77.49338159754495,12.125329704336911L-20.945629833693186,106.48062460713373L-76.11874326704105,13.860227392732439z" style="fill:rgb(22,56,144)"/><path d="M-81.5027566890746,-20.419064090388925L-82.85070754879307,0.2867577435045974L-80.68149828460214,-22.81395516570577zM-41.77704261178044,-65.60911772380018L-44.31611701459148,28.15243578796656L-39.00413467419841,-67.20579975304969z" style="fill:rgb(83,212,212)"/><path d="M91.49083171127324,82.47460305968211L44.208769607680935,-13.123870314097696L89.9204843032965,84.89463721162006z" style="fill:rgb(226,102,203)"/><path d="M-39.00413467419841,-67.20579975304969L-41.321573105884944,28.342659396897012L-36.18496066264058,-68.72725509669243zM-82.19435043785549,-18.030694218685888L-83.25412115351531,-1.8825709114411948L-81.5027566890746,-20.419064090388925z" style="fill:rgb(83,212,212)"/><path d="M-35.140355056325696,28.359526724680336L15.073681345898438,122.49621322461098L17.975472956132094,122.57496178360694z" style="fill:rgb(92,32,204)"/><path d="M99.06351627914658,46.147366570331606L55.18708323931898,-54.74952454275198L55.71777039827987,-52.58588397521931z" style="fill:rgb(246,169,146)"/><path d="M-36.18496066264058,-68.72725509669243L-38.26072610279746,28.41193416001862L-33.324407509410115,-70.17086160688896zM-82.7541580443757,-15.653415651168494L-83.51725752084064,-4.095658209619565L-82.19435043785549,-18.030694218685888zM-33.324407509410115,-70.17086160688896L-35.140355056325696,28.359526724680336L-30.427427416264486,-71.53411568047892zM-83.18026465724928,-13.291837204618037L-83.64058007639561,-6.347820224426969L-82.7541580443757,-15.653415651168494z" style="fill:rgb(83,212,212)"/><path d="M89.9204843032965,84.89463721162006L42.27698582796276,-10.630521506440827L88.2276151800216,87.28278441119751z" style="fill:rgb(223,98,206)"/><path d="M-76.11874326704105,13.860227392732439L-19.45349707379811,108.18811230684565L-74.61052584586943,15.515543258835729z" style="fill:rgb(25,53,148)"/><path d="M-30.427427416264486,-71.53411568047892L-31.967457590553735,28.185020605511834L-27.499022795806145,-72.81461804751812z" style="fill:rgb(83,212,212)"/><path d="M-31.967457590553735,28.185020605511834L17.975472956132094,122.57496178360694L20.919773701227964,122.53522965379037z" style="fill:rgb(98,32,207)"/><path d="M-83.62482577315201,-8.634364100082475L-83.18026465724928,-13.291837204618037L-83.47097578208823,-10.950597888374963zM-27.499022795806145,-72.81461804751812L-28.74922769310988,27.888312163162198L-24.544246522230157,-74.01009953513639z" style="fill:rgb(83,212,212)"/><path d="M88.2276151800216,87.28278441119751L40.21764419145621,-8.168812486693161L86.41565752380204,89.63341901246919z" style="fill:rgb(219,93,208)"/><path d="M99.50949992963055,48.383863411080426L55.71777039827987,-52.58588397521931L56.10485735912792,-50.36219376456575z" style="fill:rgb(246,165,151)"/><path d="M-24.544246522230157,-74.01009953513639L-25.49302601591077,27.469623575806892L-21.56820289389717,-75.11839357033008z" style="fill:rgb(83,212,212)"/><path d="M-28.74922769310988,27.888312163162198L20.919773701227964,122.53522965379037L23.89994527123263,122.37666724197182z" style="fill:rgb(103,32,209)"/><path d="M-83.18026465724928,-13.291837204618037L-83.62482577315201,-8.634364100082475L-83.64058007639561,-6.347820224426969zM-21.56820289389717,-75.11839357033008L-22.206377741283664,26.92950566544127L-18.576035167348408,-76.1374523762956z" style="fill:rgb(83,212,212)"/><path d="M86.41565752380204,89.63341901246919L38.0350524563268,-5.744631657632113L84.48836512564644,91.94097131029648z" style="fill:rgb(216,89,210)"/><path d="M-74.61052584586943,15.515543258835729L-17.84334675539817,109.81743812459722L-72.97096411510229,17.08718814036105z" style="fill:rgb(28,51,152)"/><path d="M-25.49302601591077,27.469623575806892L23.89994527123263,122.37666724197182L26.909214377715656,122.09921638567543z" style="fill:rgb(108,33,211)"/><path d="M-82.7541580443757,-15.653415651168494L-83.64058007639561,-6.347820224426969L-83.51725752084064,-4.095658209619565zM-18.576035167348408,-76.1374523762956L-18.896935028708047,26.268830322158717L-15.572924973485273,-77.06536296345641z" style="fill:rgb(83,212,212)"/><path d="M84.48836512564644,91.94097131029648L35.7338834100093,-3.3638103521780343L82.44982519879484,94.19993674578839z" style="fill:rgb(212,86,212)"/><path d="M99.82228735607023,50.66840525641633L56.10485735912792,-50.36219376456575L56.34649067095508,-48.08276593786121z" style="fill:rgb(247,161,155)"/><path d="M-82.19435043785549,-18.030694218685888L-83.51725752084064,-4.095658209619565L-83.25412115351531,-1.8825709114411948zM-15.572924973485273,-77.06536296345641L-15.572455770781444,25.488807742523257L-12.564094067071544,-77.9003272195845z" style="fill:rgb(83,212,212)"/><path d="M-22.206377741283664,26.92950566544127L26.909214377715656,122.09921638567543L29.94068771531172,121.70313994815105z" style="fill:rgb(113,34,213)"/><path d="M82.44982519879484,94.19993674578839L33.319149420311206,-1.0321045510064053L80.30443252119828,96.40490851023412z" style="fill:rgb(208,82,214)"/><path d="M-12.564094067071544,-77.9003272195845L-12.240781765315612,24.59096813432512L-9.554790852822396,-78.64067339969415zM-81.5027566890746,-20.419064090388925L-83.25412115351531,-1.8825709114411948L-82.85070754879307,0.2867577435045974z" style="fill:rgb(83,212,212)"/><path d="M-72.97096411510229,17.08718814036105L-16.117846338281506,111.36462554074748L-71.20264463717295,18.57120508339284z" style="fill:rgb(31,48,156)"/><path d="M-18.896935028708047,26.268830322158717L29.94068771531172,121.70313994815105L32.987366403211446,121.18901506866345z" style="fill:rgb(119,35,215)"/><path d="M56.44112283505644,-45.752101541921135L99.82228735607023,50.66840525641633L56.34649067095508,-48.08276593786121z" style="fill:rgb(247,157,159)"/><path d="M80.30443252119828,96.40490851023412L30.79620672199928,1.2448257066471737L78.05689470840095,98.55060006811455z" style="fill:rgb(204,78,216)"/><path d="M-9.554790852822396,-78.64067339969415L-8.909809335656913,23.577172497432827L-6.5502934327418085,-79.28487408908269zM-80.68149828460214,-22.81395516570577L-82.85070754879307,0.2867577435045974L-82.30681185785517,2.407663665518489z" style="fill:rgb(83,212,212)"/><path d="M-15.572455770781444,25.488807742523257L32.987366403211446,121.18901506866345L36.04217738825633,120.55771101013133z" style="fill:rgb(124,36,216)"/><path d="M78.05689470840095,98.55060006811455L28.170729736221283,3.4614360144886773L75.71221012368079,100.63184108267242z" style="fill:rgb(200,74,217)"/><path d="M-6.5502934327418085,-79.28487408908269L-5.587467138305605,22.44960476909925L-3.5559025439918788,-79.83150955835671z" style="fill:rgb(83,212,212)"/><path d="M-12.240781765315612,24.59096813432512L36.04217738825633,120.55771101013133L39.09799826608732,119.81044129197014z" style="fill:rgb(130,38,218)"/><path d="M-79.73288397350684,-25.21084938084835L-82.30681185785517,2.407663665518489L-81.6225246574135,4.475512368572225z" style="fill:rgb(83,212,212)"/><path d="M75.71221012368079,100.63184108267242L25.448696796361272,5.612317822693402L73.27564616783914,102.6436177262046z" style="fill:rgb(196,71,219)"/><path d="M-71.20264463717295,18.57120508339284L-14.279953735490572,112.82583572335066L-69.3084562073891,19.963777543352375z" style="fill:rgb(35,46,161)"/><path d="M-8.909809335656913,23.577172497432827L39.09799826608732,119.81044129197014L42.14766424138723,118.94869237836285z" style="fill:rgb(135,39,219)"/><path d="M-3.5559025439918788,-79.83150955835671L-2.281686617131301,21.210762918365592L-0.576936823607685,-80.2793118104577z" style="fill:rgb(83,212,212)"/><path d="M73.27564616783914,102.6436177262046L22.636375555507467,7.6922159306799385L70.7527588125197,104.58106941455176z" style="fill:rgb(191,67,220)"/><path d="M56.38751809264864,-43.37488109161027L100.00035347713205,52.99641621403532L56.44112283505644,-45.752101541921135z" style="fill:rgb(247,153,163)"/><path d="M-78.65943462785881,-27.605271695315846L-81.6225246574135,4.475512368572225L-80.79821774175197,6.485710277167466z" style="fill:rgb(83,212,212)"/><path d="M-5.587467138305605,22.44960476909925L42.14766424138723,118.94869237836285L45.18400553890602,117.9742966588311z" style="fill:rgb(141,41,220)"/><path d="M22.636375555507467,7.6922159306799385L68.14931920674334,106.43952783242014L70.7527588125197,104.58106941455176z" style="fill:rgb(187,64,221)"/><path d="M-0.576936823607685,-80.2793118104577L0.9996229321472176,19.863457491633575L2.3812720397176057,-80.62716551001915z" style="fill:rgb(83,212,212)"/><path d="M-2.281686617131301,21.210762918365592L45.18400553890602,117.9742966588311L48.19985863708929,116.88938521342683z" style="fill:rgb(146,43,221)"/><path d="M19.740303484822768,9.696050758668555L65.47136195939905,108.21451294986575L68.14931920674334,106.43952783242014z" style="fill:rgb(182,61,221)"/><path d="M0.9996229321472176,19.863457491633575L48.19985863708929,116.88938521342683L51.18810396757051,115.6963604054141z" style="fill:rgb(151,45,222)"/><path d="M16.767265674425705,11.618932594406616L62.725110354085494,109.90175957377994L65.47136195939905,108.21451294986575z" style="fill:rgb(177,58,222)"/><path d="M-77.4638343853402,-29.992811745762218L-80.79821774175197,6.485710277167466L-79.83455454469346,8.433717605199265z" style="fill:rgb(83,212,212)"/><path d="M4.248602150160389,18.410800770435024L51.18810396757051,115.6963604054141L54.141674179245435,114.3979441106431z" style="fill:rgb(156,47,222)"/><path d="M13.724272912139982,13.456180096061942L59.91699256707796,111.49724331632362L62.725110354085494,109.90175957377994z" style="fill:rgb(172,55,222)"/><path d="M7.45746864200632,16.856199066445278L54.141674179245435,114.3979441106431L57.053595607919256,112.99715018515505z" style="fill:rgb(162,50,222)"/><path d="M10.618542698580503,15.203340138382309L57.053595607919256,112.99715018515505L59.91699256707796,111.49724331632362z" style="fill:rgb(167,52,222)"/><path d="M2.3812720397176057,-80.62716551001915L4.248602150160389,18.410800770435024L5.313383555606683,-80.8740675837881z" style="fill:rgb(83,212,212)"/><path d="M-69.3084562073891,19.963777543352375L-12.332925277963291,114.19736150711928L-67.29163223619025,21.261252314231076z" style="fill:rgb(38,44,165)"/><path d="M-76.14895058862693,-32.3691153874205L-79.83455454469346,8.433717605199265L-78.73251504319798,10.315057172994802zM5.313383555606683,-80.8740675837881L7.45746864200632,16.856199066445278L8.214055069731126,-81.01919715837992z" style="fill:rgb(83,212,212)"/><path d="M56.18477708027032,-40.9559567899489L100.04243764302585,55.36316453045531L56.38751809264864,-43.37488109161027z" style="fill:rgb(246,149,167)"/><path d="M8.214055069731126,-81.01919715837992L10.618542698580503,15.203340138382309L11.077947527783435,-81.06184470584483zM-74.71781151344048,-34.72990234527143L-78.73251504319798,10.315057172994802L-77.49338159754495,12.125329704336911z" style="fill:rgb(83,212,212)"/><path d="M-67.29163223619025,21.261252314231076L-10.280304324410269,115.47567308460177L-65.15573890139655,22.460147863007982z" style="fill:rgb(42,42,168)"/><path d="M11.077947527783435,-81.06184470584483L13.724272912139982,13.456180096061942L13.899728861933989,-81.00149617008101zM-73.17359696862987,-37.070952439411904L-77.49338159754495,12.125329704336911L-76.11874326704105,13.860227392732439z" style="fill:rgb(83,212,212)"/><path d="M55.83232851261307,-38.50034381691528L99.94762035992727,57.763771587681006L56.18477708027032,-40.9559567899489z" style="fill:rgb(246,144,171)"/><path d="M13.899728861933989,-81.00149617008101L16.767265674425705,11.618932594406616L16.67408577827085,-80.83776343139921zM-71.51964214182145,-39.388130131559606L-76.11874326704105,13.860227392732439L-74.61052584586943,15.515543258835729z" style="fill:rgb(83,212,212)"/><path d="M-65.15573890139655,22.460147863007982L-8.125928126004709,116.6574267236083L-62.9046630519134,23.557164757184655z" style="fill:rgb(46,40,172)"/><path d="M16.67408577827085,-80.83776343139921L19.740303484822768,9.696050758668555L19.39572591284118,-80.57044424562318z" style="fill:rgb(83,212,212)"/><path d="M55.32996114617273,-36.01321821519156L99.7152548581982,60.193220287627355L55.83232851261307,-38.50034381691528z" style="fill:rgb(245,140,174)"/><path d="M-69.75943007358184,-41.67737189759865L-74.61052584586943,15.515543258835729L-72.97096411510229,17.08718814036105zM19.39572591284118,-80.57044424562318L22.636375555507467,7.6922159306799385L22.059388428441718,-80.19948462681516zM-67.89655970903446,-43.934697649437084L-72.97096411510229,17.08718814036105L-71.20264463717295,18.57120508339284zM22.059388428441718,-80.19948462681516L25.448696796361272,5.612317822693402L24.65984758561984,-79.72500936669022z" style="fill:rgb(83,212,212)"/><path d="M-62.9046630519134,23.557164757184655L-5.873915998810874,117.7394364239187L-60.54262641973715,24.54921157413379z" style="fill:rgb(50,38,176)"/><path d="M54.67780789339192,-33.49988637369796L99.34502518768191,62.646362268517805L55.32996114617273,-36.01321821519156z" style="fill:rgb(243,136,178)"/><path d="M24.65984758561984,-79.72500936669022L28.170729736221283,3.4614360144886773L27.19192863074166,-79.14732827743792zM-65.93477111822781,-46.15621333355813L-71.20264463717295,18.57120508339284L-69.3084562073891,19.963777543352375zM27.19192863074166,-79.14732827743792L30.79620672199928,1.2448257066471737L29.6505059553528,-78.46690581103212z" style="fill:rgb(83,212,212)"/><path d="M-60.54262641973715,24.54921157413379L-3.528669546479944,118.71873161764901L-58.07416343750068,25.43340546577174z" style="fill:rgb(54,37,180)"/><path d="M-63.87792139854283,-48.33810372405019L-69.3084562073891,19.963777543352375L-67.29163223619025,21.261252314231076z" style="fill:rgb(83,212,212)"/><path d="M53.876382122867916,-30.9657899023258L98.83692614135663,65.11793158881021L54.67780789339192,-33.49988637369796z" style="fill:rgb(242,131,182)"/><path d="M29.6505059553528,-78.46690581103212L33.319149420311206,-1.0321045510064053L32.0305268021857,-77.68442392455104zM-61.72998009911759,-50.47664978781903L-67.29163223619025,21.261252314231076L-65.15573890139655,22.460147863007982zM32.0305268021857,-77.68442392455104L35.7338834100093,-3.3638103521780343L34.32700323959889,-76.8007149238062z" style="fill:rgb(83,212,212)"/><path d="M-58.07416343750068,25.43340546577174L-1.0948632835545389,119.5925534242182L-55.504140524161706,26.207093662140103z" style="fill:rgb(58,35,183)"/><path d="M-59.49502570219616,-52.56822484314703L-65.15573890139655,22.460147863007982L-62.9046630519134,23.557164757184655z" style="fill:rgb(83,212,212)"/><path d="M52.926560209111656,-28.41649155845896L98.19129683084142,67.60257145315944L53.876382122867916,-30.9657899023258z" style="fill:rgb(240,127,185)"/><path d="M34.32700323959889,-76.8007149238062L38.0350524563268,-5.744631657632113L36.53503759835035,-75.81683140793098zM-57.177248139588166,-54.60929018015256L-62.9046630519134,23.557164757184655L-60.54262641973715,24.54921157413379zM36.53503759835035,-75.81683140793098L40.21764419145621,-8.168812486693161L38.64982403121285,-74.73399832607933z" style="fill:rgb(83,212,212)"/><path d="M-55.504140524161706,26.207093662140103L1.4225621288847552,120.35837726487837L-52.83771550854969,26.867867416613613z" style="fill:rgb(63,34,187)"/><path d="M51.8296052535372,-25.857657575196242L97.40880484648369,70.09481902383024L52.926560209111656,-28.41649155845896z" style="fill:rgb(239,123,189)"/><path d="M38.64982403121285,-74.73399832607933L42.27698582796276,-10.630521506440827L40.66666617998632,-73.55365818188896zM-54.78092236416835,-56.59639759258852L-60.54262641973715,24.54921157413379L-58.07416343750068,25.43340546577174z" style="fill:rgb(83,212,212)"/><path d="M1.4225621288847552,120.35837726487837L-50.08035124418237,27.413563766322667L-52.83771550854969,26.867867416613613z" style="fill:rgb(67,33,190)"/><path d="M40.66666617998632,-73.55365818188896L44.208769607680935,-13.123870314097696L42.58098377637581,-72.27744237657299zM-52.31041847303461,-58.52621269958635L-58.07416343750068,25.43340546577174L-55.504140524161706,26.207093662140103z" style="fill:rgb(83,212,212)"/><path d="M50.587156837763935,-23.295032695348883L96.49045462896926,72.58913943451844L51.8296052535372,-25.857657575196242z" style="fill:rgb(236,119,192)"/><path d="M42.58098377637581,-72.27744237657299L46.00905633875583,-15.642933559242996L44.38832578734917,-70.9071789808369z" style="fill:rgb(83,212,212)"/><path d="M4.018409023043027,121.01392112358457L-47.23780916031867,27.84229250669574L-50.08035124418237,27.413563766322667z" style="fill:rgb(72,33,193)"/><path d="M-49.770197647569404,-60.39548705879797L-55.504140524161706,26.207093662140103L-52.83771550854969,26.867867416613613zM44.38832578734917,-70.9071789808369L47.674274044215906,-18.18177205026866L46.084388130368076,-69.4449269062258z" style="fill:rgb(83,212,212)"/><path d="M49.20124266043025,-20.734443808831916L95.43760845412376,75.07993148675496L50.587156837763935,-23.295032695348883z" style="fill:rgb(234,114,195)"/><path d="M-47.16480224285241,-62.201075858610565L-52.83771550854969,26.867867416613613L-50.08035124418237,27.413563766322667zM46.084388130368076,-69.4449269062258L49.20124266043025,-20.734443808831916L47.66500964954625,-67.89293346144969z" style="fill:rgb(83,212,212)"/><path d="M6.6872332321591825,121.55711774720292L-44.31611701459148,28.15243578796656L-47.23780916031867,27.84229250669574z" style="fill:rgb(77,32,196)"/><path d="M-44.498852926633546,-63.939931974600725L-50.08035124418237,27.413563766322667L-47.23780916031867,27.84229250669574zM47.66500964954625,-67.89293346144969L50.587156837763935,-23.295032695348883L49.12621346942704,-66.25365522987026z" style="fill:rgb(83,212,212)"/><path d="M47.674274044215906,-18.18177205026866L94.2519675250899,77.56156194248149L49.20124266043025,-20.734443808831916z" style="fill:rgb(232,110,198)"/><path d="M9.423355292198686,121.98619697088976L-41.321573105884944,28.342659396897012L-44.31611701459148,28.15243578796656z" style="fill:rgb(82,32,199)"/><path d="M49.12621346942704,-66.25365522987026L51.8296052535372,-25.857657575196242L50.46419241133948,-64.52977310027849zM-41.77704261178044,-65.60911772380018L-47.23780916031867,27.84229250669574L-44.31611701459148,28.15243578796656z" style="fill:rgb(83,212,212)"/><path d="M46.00905633875583,-15.642933559242996L92.9355736286745,80.02834870160802L47.674274044215906,-18.18177205026866z" style="fill:rgb(229,106,201)"/><path d="M50.46419241133948,-64.52977310027849L52.926560209111656,-28.41649155845896L51.67534189061918,-62.72416119769243zM-39.00413467419841,-67.20579975304969L-44.31611701459148,28.15243578796656L-41.321573105884944,28.342659396897012z" style="fill:rgb(83,212,212)"/><path d="M12.220874599494795,122.29964518251143L-38.26072610279746,28.41193416001862L-41.321573105884944,28.342659396897012z" style="fill:rgb(87,32,202)"/><path d="M51.67534189061918,-62.72416119769243L53.876382122867916,-30.9657899023258L52.75625971670166,-60.839927279286826z" style="fill:rgb(83,212,212)"/><path d="M44.208769607680935,-13.123870314097696L91.49083171127324,82.47460305968211L46.00905633875583,-15.642933559242996z" style="fill:rgb(226,102,203)"/><path d="M-36.18496066264058,-68.72725509669243L-41.321573105884944,28.342659396897012L-38.26072610279746,28.41193416001862zM52.75625971670166,-60.839927279286826L54.67780789339192,-33.49988637369796L53.70377398163476,-58.88036156236187z" style="fill:rgb(83,212,212)"/><path d="M15.073681345898438,122.49621322461098L-35.140355056325696,28.359526724680336L-38.26072610279746,28.41193416001862z" style="fill:rgb(92,32,204)"/><path d="M-33.324407509410115,-70.17086160688896L-38.26072610279746,28.41193416001862L-35.140355056325696,28.359526724680336zM53.70377398163476,-58.88036156236187L55.32996114617273,-36.01321821519156L54.514944082052324,-56.84898923073441z" style="fill:rgb(83,212,212)"/><path d="M42.27698582796276,-10.630521506440827L89.9204843032965,84.89463721162006L44.208769607680935,-13.123870314097696z" style="fill:rgb(223,98,206)"/><path d="M17.975472956132094,122.57496178360694L-31.967457590553735,28.185020605511834L-35.140355056325696,28.359526724680336z" style="fill:rgb(98,32,207)"/><path d="M-30.427427416264486,-71.53411568047892L-35.140355056325696,28.359526724680336L-31.967457590553735,28.185020605511834zM54.514944082052324,-56.84898923073441L55.83232851261307,-38.50034381691528L55.18708323931898,-54.74952454275198z" style="fill:rgb(83,212,212)"/><path d="M40.21764419145621,-8.168812486693161L88.2276151800216,87.28278441119751L42.27698582796276,-10.630521506440827z" style="fill:rgb(219,93,208)"/><path d="M55.18708323931898,-54.74952454275198L56.18477708027032,-40.9559567899489L55.71777039827987,-52.58588397521931zM-27.499022795806145,-72.81461804751812L-31.967457590553735,28.185020605511834L-28.74922769310988,27.888312163162198z" style="fill:rgb(83,212,212)"/><path d="M20.919773701227964,122.53522965379037L-28.74922769310988,27.888312163162198L-31.967457590553735,28.185020605511834z" style="fill:rgb(103,32,209)"/><path d="M55.71777039827987,-52.58588397521931L56.38751809264864,-43.37488109161027L56.10485735912792,-50.36219376456575z" style="fill:rgb(83,212,212)"/><path d="M38.0350524563268,-5.744631657632113L86.41565752380204,89.63341901246919L40.21764419145621,-8.168812486693161z" style="fill:rgb(216,89,210)"/><path d="M-24.544246522230157,-74.01009953513639L-28.74922769310988,27.888312163162198L-25.49302601591077,27.469623575806892z" style="fill:rgb(83,212,212)"/><path d="M23.89994527123263,122.37666724197182L-25.49302601591077,27.469623575806892L-28.74922769310988,27.888312163162198z" style="fill:rgb(108,33,211)"/><path d="M56.10485735912792,-50.36219376456575L56.44112283505644,-45.752101541921135L56.34649067095508,-48.08276593786121zM-21.56820289389717,-75.11839357033008L-25.49302601591077,27.469623575806892L-22.206377741283664,26.92950566544127z" style="fill:rgb(83,212,212)"/><path d="M35.7338834100093,-3.3638103521780343L84.48836512564644,91.94097131029648L38.0350524563268,-5.744631657632113z" style="fill:rgb(212,86,212)"/><path d="M26.909214377715656,122.09921638567543L-22.206377741283664,26.92950566544127L-25.49302601591077,27.469623575806892z" style="fill:rgb(113,34,213)"/><path d="M-18.576035167348408,-76.1374523762956L-22.206377741283664,26.92950566544127L-18.896935028708047,26.268830322158717zM56.10485735912792,-50.36219376456575L56.38751809264864,-43.37488109161027L56.44112283505644,-45.752101541921135z" style="fill:rgb(83,212,212)"/><path d="M33.319149420311206,-1.0321045510064053L82.44982519879484,94.19993674578839L35.7338834100093,-3.3638103521780343z" style="fill:rgb(208,82,214)"/><path d="M29.94068771531172,121.70313994815105L-18.896935028708047,26.268830322158717L-22.206377741283664,26.92950566544127z" style="fill:rgb(119,35,215)"/><path d="M-15.572924973485273,-77.06536296345641L-18.896935028708047,26.268830322158717L-15.572455770781444,25.488807742523257zM55.71777039827987,-52.58588397521931L56.18477708027032,-40.9559567899489L56.38751809264864,-43.37488109161027z" style="fill:rgb(83,212,212)"/><path d="M30.79620672199928,1.2448257066471737L80.30443252119828,96.40490851023412L33.319149420311206,-1.0321045510064053z" style="fill:rgb(204,78,216)"/><path d="M-12.564094067071544,-77.9003272195845L-15.572455770781444,25.488807742523257L-12.240781765315612,24.59096813432512z" style="fill:rgb(83,212,212)"/><path d="M32.987366403211446,121.18901506866345L-15.572455770781444,25.488807742523257L-18.896935028708047,26.268830322158717z" style="fill:rgb(124,36,216)"/><path d="M55.18708323931898,-54.74952454275198L55.83232851261307,-38.50034381691528L56.18477708027032,-40.9559567899489z" style="fill:rgb(83,212,212)"/><path d="M28.170729736221283,3.4614360144886773L78.05689470840095,98.55060006811455L30.79620672199928,1.2448257066471737z" style="fill:rgb(200,74,217)"/><path d="M-9.554790852822396,-78.64067339969415L-12.240781765315612,24.59096813432512L-8.909809335656913,23.577172497432827zM54.514944082052324,-56.84898923073441L55.32996114617273,-36.01321821519156L55.83232851261307,-38.50034381691528z" style="fill:rgb(83,212,212)"/><path d="M36.04217738825633,120.55771101013133L-12.240781765315612,24.59096813432512L-15.572455770781444,25.488807742523257z" style="fill:rgb(130,38,218)"/><path d="M25.448696796361272,5.612317822693402L75.71221012368079,100.63184108267242L28.170729736221283,3.4614360144886773z" style="fill:rgb(196,71,219)"/><path d="M53.70377398163476,-58.88036156236187L54.67780789339192,-33.49988637369796L55.32996114617273,-36.01321821519156zM-6.5502934327418085,-79.28487408908269L-8.909809335656913,23.577172497432827L-5.587467138305605,22.44960476909925z" style="fill:rgb(83,212,212)"/><path d="M39.09799826608732,119.81044129197014L-8.909809335656913,23.577172497432827L-12.240781765315612,24.59096813432512z" style="fill:rgb(135,39,219)"/><path d="M22.636375555507467,7.6922159306799385L73.27564616783914,102.6436177262046L25.448696796361272,5.612317822693402z" style="fill:rgb(191,67,220)"/><path d="M52.75625971670166,-60.839927279286826L53.876382122867916,-30.9657899023258L54.67780789339192,-33.49988637369796zM-3.5559025439918788,-79.83150955835671L-5.587467138305605,22.44960476909925L-2.281686617131301,21.210762918365592z" style="fill:rgb(83,212,212)"/><path d="M42.14766424138723,118.94869237836285L-5.587467138305605,22.44960476909925L-8.909809335656913,23.577172497432827z" style="fill:rgb(141,41,220)"/><path d="M51.67534189061918,-62.72416119769243L52.926560209111656,-28.41649155845896L53.876382122867916,-30.9657899023258z" style="fill:rgb(83,212,212)"/><path d="M68.14931920674334,106.43952783242014L22.636375555507467,7.6922159306799385L19.740303484822768,9.696050758668555z" style="fill:rgb(187,64,221)"/><path d="M45.18400553890602,117.9742966588311L-2.281686617131301,21.210762918365592L-5.587467138305605,22.44960476909925z" style="fill:rgb(146,43,221)"/><path d="M-0.576936823607685,-80.2793118104577L-2.281686617131301,21.210762918365592L0.9996229321472176,19.863457491633575z" style="fill:rgb(83,212,212)"/><path d="M65.47136195939905,108.21451294986575L19.740303484822768,9.696050758668555L16.767265674425705,11.618932594406616z" style="fill:rgb(182,61,221)"/><path d="M48.19985863708929,116.88938521342683L0.9996229321472176,19.863457491633575L-2.281686617131301,21.210762918365592z" style="fill:rgb(151,45,222)"/><path d="M50.46419241133948,-64.52977310027849L51.8296052535372,-25.857657575196242L52.926560209111656,-28.41649155845896zM2.3812720397176057,-80.62716551001915L0.9996229321472176,19.863457491633575L4.248602150160389,18.410800770435024z" style="fill:rgb(83,212,212)"/><path d="M62.725110354085494,109.90175957377994L16.767265674425705,11.618932594406616L13.724272912139982,13.456180096061942z" style="fill:rgb(177,58,222)"/><path d="M51.18810396757051,115.6963604054141L4.248602150160389,18.410800770435024L0.9996229321472176,19.863457491633575z" style="fill:rgb(156,47,222)"/><path d="M59.91699256707796,111.49724331632362L13.724272912139982,13.456180096061942L10.618542698580503,15.203340138382309z" style="fill:rgb(172,55,222)"/><path d="M54.141674179245435,114.3979441106431L7.45746864200632,16.856199066445278L4.248602150160389,18.410800770435024z" style="fill:rgb(162,50,222)"/><path d="M57.053595607919256,112.99715018515505L10.618542698580503,15.203340138382309L7.45746864200632,16.856199066445278z" style="fill:rgb(167,52,222)"/><path d="M49.12621346942704,-66.25365522987026L50.587156837763935,-23.295032695348883L51.8296052535372,-25.857657575196242zM5.313383555606683,-80.8740675837881L4.248602150160389,18.410800770435024L7.45746864200632,16.856199066445278zM47.66500964954625,-67.89293346144969L49.20124266043025,-20.734443808831916L50.587156837763935,-23.295032695348883zM8.214055069731126,-81.01919715837992L7.45746864200632,16.856199066445278L10.618542698580503,15.203340138382309zM46.084388130368076,-69.4449269062258L47.674274044215906,-18.18177205026866L49.20124266043025,-20.734443808831916zM11.077947527783435,-81.06184470584483L10.618542698580503,15.203340138382309L13.724272912139982,13.456180096061942zM44.38832578734917,-70.9071789808369L46.00905633875583,-15.642933559242996L47.674274044215906,-18.18177205026866zM13.899728861933989,-81.00149617008101L13.724272912139982,13.456180096061942L16.767265674425705,11.618932594406616zM42.58098377637581,-72.27744237657299L44.208769607680935,-13.123870314097696L46.00905633875583,-15.642933559242996zM16.67408577827085,-80.83776343139921L16.767265674425705,11.618932594406616L19.740303484822768,9.696050758668555zM40.66666617998632,-73.55365818188896L42.27698582796276,-10.630521506440827L44.208769607680935,-13.123870314097696zM19.39572591284118,-80.57044424562318L19.740303484822768,9.696050758668555L22.636375555507467,7.6922159306799385zM38.64982403121285,-74.73399832607933L40.21764419145621,-8.168812486693161L42.27698582796276,-10.630521506440827zM22.059388428441718,-80.19948462681516L22.636375555507467,7.6922159306799385L25.448696796361272,5.612317822693402zM36.53503759835035,-75.81683140793098L38.0350524563268,-5.744631657632113L40.21764419145621,-8.168812486693161zM24.65984758561984,-79.72500936669022L25.448696796361272,5.612317822693402L28.170729736221283,3.4614360144886773zM34.32700323959889,-76.8007149238062L35.7338834100093,-3.3638103521780343L38.0350524563268,-5.744631657632113zM27.19192863074166,-79.14732827743792L28.170729736221283,3.4614360144886773L30.79620672199928,1.2448257066471737zM32.0305268021857,-77.68442392455104L33.319149420311206,-1.0321045510064053L35.7338834100093,-3.3638103521780343zM29.6505059553528,-78.46690581103212L30.79620672199928,1.2448257066471737L33.319149420311206,-1.0321045510064053z" style="fill:rgb(83,212,212)"/><path d="M18.966586574328655,-168.1298526136094L64.6397658080901,-61.22886717531798L63.80306434362805,-63.24087150611038z" style="fill:rgb(244,176,138)"/><path d="M-87.21280171612072,17.462460235562105L-147.71016298462743,-81.83228103452346L-88.38984638437799,15.625528832235391z" style="fill:rgb(19,60,139)"/><path d="M19.764261119989893,-166.2039413587179L65.35674344575548,-59.15631896821826L64.6397658080901,-61.22886717531798z" style="fill:rgb(245,173,142)"/><path d="M-85.91714176871535,19.236420594789735L-146.57795307094202,-80.07822447488319L-87.21280171612072,17.462460235562105z" style="fill:rgb(21,57,142)"/><path d="M20.431202830812154,-164.21069251303695L65.95198081443371,-57.02607948851222L65.35674344575548,-59.15631896821826z" style="fill:rgb(246,170,145)"/><path d="M-84.50407535803907,20.94412529630767L-145.3151442942236,-78.3921405441675L-85.91714176871535,19.236420594789735z" style="fill:rgb(24,55,146)"/><path d="M20.965308267768002,-162.1527640010817L66.42366071550404,-54.841152027248995L65.95198081443371,-57.02607948851222z" style="fill:rgb(246,167,149)"/><path d="M-82.97501438147734,22.582358450367984L-143.92274330044583,-76.77727386430905L-84.50407535803907,20.94412529630767z" style="fill:rgb(26,52,150)"/><path d="M21.364669885724986,-160.03295086280508L66.77012694341789,-52.604664282774074L66.42366071550404,-54.841152027248995z" style="fill:rgb(247,163,152)"/><path d="M-81.33161267902814,24.1479738867537L-142.40195037917263,-75.23678170475303L-82.97501438147734,22.582358450367984z" style="fill:rgb(29,50,153)"/><path d="M21.627580265887968,-157.8541978977201L66.98993106844718,-50.319890884016864L66.77012694341789,-52.604664282774074z" style="fill:rgb(247,160,156)"/><path d="M-79.5757328062821,25.637909254311666L-140.75424024888048,-73.77375143575132L-81.33161267902814,24.1479738867537z" style="fill:rgb(31,48,157)"/><path d="M-77.709447093153,27.049189725969853L-138.98132904373992,-72.39117494249314L-79.5757328062821,25.637909254311666z" style="fill:rgb(34,46,160)"/><path d="M66.98993106844718,-50.319890884016864L21.73830064090964,-153.3324181104618L67.08181419025304,-47.99022653240761z" style="fill:rgb(247,156,160)"/><path d="M-75.73508294405067,28.378943128622208L-137.08513464422126,-71.09195535007412L-77.709447093153,27.049189725969853z" style="fill:rgb(37,44,164)"/><path d="M67.08181419025304,-47.99022653240761L21.583798631078203,-150.99603256860556L67.04474088286143,-45.61919444801336z" style="fill:rgb(247,152,163)"/><path d="M-73.65516775118171,29.624403170644612L-135.0679060615832,-69.87887651906456L-75.73508294405067,28.378943128622208z" style="fill:rgb(41,42,167)"/><path d="M67.04474088286143,-45.61919444801336L21.288239893152667,-148.6139574950535L66.87788003577663,-43.21044079971638z" style="fill:rgb(246,149,167)"/><path d="M-71.47246319076328,30.782916247597203L-132.93209345061896,-68.7546216959829L-73.65516775118171,29.624403170644612z" style="fill:rgb(44,41,171)"/><path d="M66.87788003577663,-43.21044079971638L20.851073563495945,-146.18986573068528L66.58064035875705,-40.76773022185403z" style="fill:rgb(246,145,170)"/><path d="M-130.7761766417167,-142.34866212597052L-140.75424024888048,-73.77375143575132L-128.61865491519913,-144.62092686838722zM-132.84621484758983,-140.051154079814L-142.40195037917263,-75.23678170475303L-130.7761766417167,-142.34866212597052zM-134.82566804014235,-137.73128377216756L-143.92274330044583,-76.77727386430905L-132.84621484758983,-140.051154079814zM-119.17768354184483,-153.40158249781558L-130.6803884084495,-67.72174144112827L-116.63127253916404,-155.50614803606896zM-128.61865491519913,-144.62092686838722L-137.08513464422126,-71.09195535007412L-126.37677684532858,-146.86510208018345zM-141.7781676698912,-128.28788154488691L-148.71104808087838,-83.65101589285742L-140.19058038587463,-130.6672309527287zM-126.37677684532858,-146.86510208018345L-135.0679060615832,-69.87887651906456L-124.05379973089943,-149.07842105960174z" style="fill:rgb(83,212,212)"/><path d="M-69.18996001428535,31.851960853766418L-130.6803884084495,-67.72174144112827L-71.47246319076328,30.782916247597203z" style="fill:rgb(47,39,174)"/><path d="M-124.05379973089943,-149.07842105960174L-132.93209345061896,-68.7546216959829L-121.65299688969489,-151.2581426303877zM-136.71149726313777,-135.39199643545822L-143.92274330044583,-76.77727386430905L-134.82566804014235,-137.73128377216756zM-121.65299688969489,-151.2581426303877L-130.6803884084495,-67.72174144112827L-119.17768354184483,-153.40158249781558zM-138.50076796873034,-133.03629546219034L-145.3151442942236,-78.3921405441675L-136.71149726313777,-135.39199643545822z" style="fill:rgb(83,212,212)"/><path d="M66.58064035875705,-40.76773022185403L20.272001922945684,-143.72756832061637L66.15263690871069,-38.294935359289z" style="fill:rgb(245,142,173)"/><path d="M-140.19058038587463,-130.6672309527287L-146.57795307094202,-80.07822447488319L-138.50076796873034,-133.03629546219034zM-116.63127253916404,-155.50614803606896L-125.84152849708829,-65.93961999911274L-114.0171990675656,-157.56926852891303zM-114.0171990675656,-157.56926852891303L-123.26106067896959,-65.19477348001455L-111.33893675066994,-159.58842925951055zM-145.9008623936365,-121.11979586485943L-150.92148909903884,-89.46157985592814L-144.63587474570926,-123.51095107207323zM-143.26080210464914,-125.90138437184073L-148.71104808087838,-83.65101589285742L-141.7781676698912,-128.28788154488691zM-111.33893675066994,-159.58842925951055L-120.57814247020646,-64.55006738533613L-108.60003379215746,-161.56119226680687zM-144.63587474570926,-123.51095107207323L-149.5800600081328,-85.53108404310974L-143.26080210464914,-125.90138437184073zM-108.60003379215746,-161.56119226680687L-117.79674115614336,-64.00728587796681L-105.8040514063929,-163.48516549016588zM-102.9546098542116,-165.35801472594483L-114.92108607822641,-63.56805621409675L-100.05537475006422,-167.17746427750998zM-105.8040514063929,-163.48516549016588L-114.92108607822641,-63.56805621409675L-102.9546098542116,-165.35801472594483zM-148.09104614999595,-116.3484889629717L-151.7345709661567,-93.59616187956053L-147.05336457151887,-118.73120156154437zM-100.05537475006422,-167.17746427750998L-111.95565733846293,-63.233784323964386L-97.11002867461343,-168.94130219936446z" style="fill:rgb(83,212,212)"/><path d="M-66.81086601391387,32.82914859119038L-128.3157928981849,-66.78264978278905L-69.18996001428535,31.851960853766418z" style="fill:rgb(51,38,177)"/><path d="M-147.05336457151887,-118.73120156154437L-150.92148909903884,-89.46157985592814L-145.9008623936365,-121.11979586485943z" style="fill:rgb(83,212,212)"/><path d="M66.15263690871069,-38.294935359289L19.5509942744679,-141.23095687534746L65.59374618767777,-35.79603783089861z" style="fill:rgb(244,138,176)"/><path d="M-97.11002867461343,-168.94130219936446L-105.77447119932118,-62.88486904582476L-94.12230478438848,-170.64735595115948zM-149.0117313232835,-113.97498959533995L-151.7345709661567,-93.59616187956053L-148.09104614999595,-116.3484889629717zM-94.12230478438848,-170.64735595115948L-102.56879186567542,-62.87207119454362L-91.09596800192654,-172.29354432458683zM-149.81334054993604,-111.61411722245742L-151.9438942916914,-95.7312542816152L-149.0117313232835,-113.97498959533995z" style="fill:rgb(83,212,212)"/><path d="M-64.33862066128079,33.71222282051572L-125.84152849708829,-65.93961999911274L-66.81086601391387,32.82914859119038z" style="fill:rgb(55,37,180)"/><path d="M-91.09596800192654,-172.29354432458683L-99.29345543473383,-62.96792488260756L-88.03481354318386,-173.87782029321505z" style="fill:rgb(83,212,212)"/><path d="M65.59374618767777,-35.79603783089861L18.688286374645706,-138.70409235319022L64.90407927953018,-33.275120387226394z" style="fill:rgb(243,134,180)"/><path d="M-150.49389728567877,-109.26926402308295L-152.02261989735604,-97.9068542488168L-149.81334054993604,-111.61411722245742zM-88.03481354318386,-173.87782029321505L-95.95401631610008,-63.17282020495317L-84.94267334638357,-175.39819503459148zM-84.94267334638357,-175.39819503459148L-95.95401631610008,-63.17282020495317L-81.82340835292707,-176.85275998846515zM-151.05161435732595,-106.94389108928272L-151.97159977519757,-100.11943603400991L-150.49389728567877,-109.26926402308295zM-81.82340835292707,-176.85275998846515L-92.55621670922189,-63.48692243043387L-78.68090807701074,-178.2396708357687zM-151.79192312679916,-102.36548042901107L-151.05161435732595,-106.94389108928272L-151.48480361886348,-104.64146909962217z" style="fill:rgb(83,212,212)"/><path d="M64.6397658080901,-61.22886717531798L18.966586574328655,-168.1298526136094L19.764261119989893,-166.2039413587179z" style="fill:rgb(244,176,138)"/><path d="M-61.77686481713988,34.49909123023061L-123.26106067896959,-65.19477348001455L-64.33862066128079,33.71222282051572z" style="fill:rgb(58,35,183)"/><path d="M64.90407927953018,-33.275120387226394L17.684396324324346,-136.1511376138298L64.08399507188346,-30.736349206830454z" style="fill:rgb(242,130,183)"/><path d="M-147.71016298462743,-81.83228103452346L-87.21280171612072,17.462460235562105L-146.57795307094202,-80.07822447488319z" style="fill:rgb(19,60,139)"/><path d="M-78.68090807701074,-178.2396708357687L-85.60935307302053,-64.44224280648368L-75.51908321379452,-179.5571042951221zM-75.51908321379452,-179.5571042951221L-82.07259952123017,-65.08263708810013L-72.34189402688013,-180.8033533573599zM-151.05161435732595,-106.94389108928272L-151.79192312679916,-102.36548042901107L-151.97159977519757,-100.11943603400991z" style="fill:rgb(83,212,212)"/><path d="M-59.12947143660092,35.18781320155951L-120.57814247020646,-64.55006738533613L-61.77686481713988,34.49909123023061z" style="fill:rgb(62,34,186)"/><path d="M-72.34189402688013,-180.8033533573599L-78.5020504106734,-65.830577506813L-69.15329451662494,-181.9767395879043zM-150.49389728567877,-109.26926402308295L-151.97159977519757,-100.11943603400991L-152.02261989735604,-97.9068542488168z" style="fill:rgb(83,212,212)"/><path d="M64.08399507188346,-30.736349206830454L16.540115662473287,-133.5763277091054L63.134108654393046,-28.18398315841118z" style="fill:rgb(240,127,186)"/><path d="M65.35674344575548,-59.15631896821826L19.764261119989893,-166.2039413587179L20.431202830812154,-164.21069251303695z" style="fill:rgb(245,173,142)"/><path d="M-69.15329451662494,-181.9767395879043L-74.90419426862724,-66.6850497623211L-65.9572923883174,-183.07565290789498z" style="fill:rgb(83,212,212)"/><path d="M-146.57795307094202,-80.07822447488319L-85.91714176871535,19.236420594789735L-145.3151442942236,-78.3921405441675z" style="fill:rgb(21,57,142)"/><path d="M-149.81334054993604,-111.61411722245742L-152.02261989735604,-97.9068542488168L-151.9438942916914,-95.7312542816152zM-65.9572923883174,-183.07565290789498L-71.28559708087347,-67.64482724828008L-62.75789780423226,-184.09858103643077zM-62.75789780423226,-184.09858103643077L-71.28559708087347,-67.64482724828008L-59.55915334854342,-185.04403549261315zM-149.0117313232835,-113.97498959533995L-151.9438942916914,-95.7312542816152L-151.7345709661567,-93.59616187956053z" style="fill:rgb(83,212,212)"/><path d="M63.134108654393046,-28.18398315841118L15.25652963526465,-130.98401443293432L62.0552897712211,-25.622352799419094z" style="fill:rgb(239,123,189)"/><path d="M-147.05336457151887,-118.73120156154437L-151.7345709661567,-93.59616187956053L-151.39394643572695,-91.50510054120133z" style="fill:rgb(83,212,212)"/><path d="M-114.92108607822641,-63.56805621409675L-59.12947143660092,35.18781320155951L-56.40051928877342,35.77661858274883z" style="fill:rgb(66,34,189)"/><path d="M-59.55915334854342,-185.04403549261315L-67.65291809736433,-68.70842036750683L-56.36511630188839,-185.910636633232z" style="fill:rgb(83,212,212)"/><path d="M65.95198081443371,-57.02607948851222L20.431202830812154,-164.21069251303695L20.965308267768002,-162.1527640010817z" style="fill:rgb(246,170,145)"/><path d="M-145.3151442942236,-78.3921405441675L-84.50407535803907,20.94412529630767L-143.92274330044583,-76.77727386430905z" style="fill:rgb(24,55,146)"/><path d="M-56.36511630188839,-185.910636633232L-64.01287707511993,-69.87412680217916L-53.17987331975255,-186.69704365135775zM-147.05336457151887,-118.73120156154437L-151.39394643572695,-91.50510054120133L-150.92148909903884,-89.46157985592814z" style="fill:rgb(83,212,212)"/><path d="M62.0552897712211,-25.622352799419094L13.835010347450256,-128.37866715956537L60.84866834312655,-23.055859325046942z" style="fill:rgb(237,119,191)"/><path d="M-144.63587474570926,-123.51095107207323L-150.92148909903884,-89.46157985592814L-150.3169065618697,-87.46908072565284z" style="fill:rgb(83,212,212)"/><path d="M-111.95565733846293,-63.233784323964386L-56.40051928877342,35.77661858274883L-53.59428491207634,36.26391111258284z" style="fill:rgb(71,33,192)"/><path d="M-53.17987331975255,-186.69704365135775L-60.37225082427897,-71.14000448747389L-50.00751674037982,-187.40202020796542z" style="fill:rgb(83,212,212)"/><path d="M66.42366071550404,-54.841152027248995L20.965308267768002,-162.1527640010817L21.364669885724986,-160.03295086280508z" style="fill:rgb(246,167,149)"/><path d="M-50.00751674037982,-187.40202020796542L-56.73783418500008,-72.50387757643L-46.85215491780992,-188.02435991375526z" style="fill:rgb(83,212,212)"/><path d="M-143.92274330044583,-76.77727386430905L-82.97501438147734,22.582358450367984L-142.40195037917263,-75.23678170475303z" style="fill:rgb(26,52,150)"/><path d="M60.84866834312655,-23.055859325046942L12.277225805799503,-125.76479285862119L59.51563995900951,-20.488954874710252z" style="fill:rgb(235,115,194)"/><path d="M-144.63587474570926,-123.51095107207323L-150.3169065618697,-87.46908072565284L-149.5800600081328,-85.53108404310974z" style="fill:rgb(83,212,212)"/><path d="M-108.90514240768219,-63.00571415261856L-53.59428491207634,36.26391111258284L-50.71524904835524,36.64827414929218z" style="fill:rgb(75,32,195)"/><path d="M-46.85215491780992,-188.02435991375526L-49.5148369849646,-75.51584703399134L-43.71791645491013,-188.56300097253637zM-143.26080210464914,-125.90138437184073L-149.5800600081328,-85.53108404310974L-148.71104808087838,-83.65101589285742zM-43.71791645491013,-188.56300097253637L-49.5148369849646,-75.51584703399134L-40.6089297860404,-189.0168835894075z" style="fill:rgb(83,212,212)"/><path d="M59.51563995900951,-20.488954874710252L10.58513662686989,-123.14700213005406L58.057864903443075,-17.926147594069683z" style="fill:rgb(233,112,197)"/><path d="M66.77012694341789,-52.604664282774074L21.364669885724986,-160.03295086280508L21.627580265887968,-157.8541978977201z" style="fill:rgb(247,163,152)"/><path d="M-140.19058038587463,-130.6672309527287L-148.71104808087838,-83.65101589285742L-147.71016298462743,-81.83228103452346z" style="fill:rgb(83,212,212)"/><path d="M-105.77447119932118,-62.88486904582476L-50.71524904835524,36.64827414929218L-47.76808378167688,36.92848722335245z" style="fill:rgb(79,32,197)"/><path d="M-142.40195037917263,-75.23678170475303L-81.33161267902814,24.1479738867537L-140.75424024888048,-73.77375143575132z" style="fill:rgb(29,50,153)"/><path d="M-40.6089297860404,-189.0168835894075L-42.39810330229124,-78.88832045383259L-37.529349186063314,-189.38508825197172z" style="fill:rgb(83,212,212)"/><path d="M58.057864903443075,-17.926147594069683L8.761000586305578,-120.52993150637718L56.47726498964849,-15.371978859903688z" style="fill:rgb(230,108,199)"/><path d="M-37.529349186063314,-189.38508825197172L-38.89633208216734,-80.70208023465668L-34.48331507913775,-189.66675152513906zM-140.19058038587463,-130.6672309527287L-147.71016298462743,-81.83228103452346L-146.57795307094202,-80.07822447488319z" style="fill:rgb(83,212,212)"/><path d="M-102.56879186567542,-62.87207119454362L-47.76808378167688,36.92848722335245L-44.757643903951355,37.103514423808z" style="fill:rgb(83,32,200)"/><path d="M66.98993106844718,-50.319890884016864L21.627580265887968,-157.8541978977201L21.75254850223333,-155.61960721330018z" style="fill:rgb(247,160,156)"/><path d="M-34.48331507913775,-189.66675152513906L-38.89633208216734,-80.70208023465668L-31.47498579150683,-189.86110992056643zM-138.50076796873034,-133.03629546219034L-146.57795307094202,-80.07822447488319L-145.3151442942236,-78.3921405441675z" style="fill:rgb(83,212,212)"/><path d="M-140.75424024888048,-73.77375143575132L-79.5757328062821,25.637909254311666L-138.98132904373992,-72.39117494249314z" style="fill:rgb(31,48,157)"/><path d="M56.47726498964849,-15.371978859903688L6.807370649970779,-117.9182861312116L54.77604037884687,-12.8310161598198z" style="fill:rgb(228,104,202)"/><path d="M-31.47498579150683,-189.86110992056643L-32.03879053272746,-84.56761331647658L-28.50851287229128,-189.96746798905394z" style="fill:rgb(83,212,212)"/><path d="M-99.29345543473383,-62.96792488260756L-44.757643903951355,37.103514423808L-41.688955297626116,37.17253345969627z" style="fill:rgb(88,32,202)"/><path d="M21.73830064090964,-153.3324181104618L66.98993106844718,-50.319890884016864L21.75254850223333,-155.61960721330018z" style="fill:rgb(247,156,160)"/><path d="M-136.71149726313777,-135.39199643545822L-145.3151442942236,-78.3921405441675L-143.92274330044583,-76.77727386430905zM-28.50851287229128,-189.96746798905394L-32.03879053272746,-84.56761331647658L-25.58804715375972,-189.98523449894296z" style="fill:rgb(83,212,212)"/><path d="M54.77604037884687,-12.8310161598198L4.7270942504824935,-115.31681293771797L52.956639100839965,-10.307844028889829z" style="fill:rgb(225,101,204)"/><path d="M-132.84621484758983,-140.051154079814L-143.92274330044583,-76.77727386430905L-142.40195037917263,-75.23678170475303z" style="fill:rgb(83,212,212)"/><path d="M-95.95401631610008,-63.17282020495317L-41.688955297626116,37.17253345969627L-38.56721339836128,37.1349181694394z" style="fill:rgb(92,32,204)"/><path d="M-138.98132904373992,-72.39117494249314L-77.709447093153,27.049189725969853L-137.08513464422126,-71.09195535007412z" style="fill:rgb(34,46,160)"/><path d="M-25.58804715375972,-189.98523449894296L-28.695813111377216,-86.612070734419L-22.717732765388376,-189.91392759688677z" style="fill:rgb(83,212,212)"/><path d="M52.956639100839965,-10.307844028889829L2.523312309552727,-112.73026472508116L51.021783318892155,-7.807052093337998z" style="fill:rgb(223,97,206)"/><path d="M-130.7761766417167,-142.34866212597052L-142.40195037917263,-75.23678170475303L-140.75424024888048,-73.77375143575132zM-22.717732765388376,-189.91392759688677L-22.212404552419812,-90.90485161781555L-19.901700675228664,-189.7531412406309z" style="fill:rgb(83,212,212)"/><path d="M-92.55621670922189,-63.48692243043387L-38.56721339836128,37.1349181694394L-35.397765259119936,36.99026920921982z" style="fill:rgb(97,32,206)"/><path d="M21.583798631078203,-150.99603256860556L67.08181419025304,-47.99022653240761L21.73830064090964,-153.3324181104618z" style="fill:rgb(247,152,163)"/><path d="M-19.901700675228664,-189.7531412406309L-19.083873639513726,-93.14494891837288L-17.14407273261413,-189.5025592240589zM-128.61865491519913,-144.62092686838722L-140.75424024888048,-73.77375143575132L-138.98132904373992,-72.39117494249314z" style="fill:rgb(83,212,212)"/><path d="M51.021783318892155,-7.807052093337998L0.19945255771216627,-110.1634170795584L48.974446744604116,-5.3332216657917355z" style="fill:rgb(220,94,208)"/><path d="M-137.08513464422126,-71.09195535007412L-75.73508294405067,28.378943128622208L-135.0679060615832,-69.87887651906456z" style="fill:rgb(37,44,164)"/><path d="M-89.10597321698572,-63.91016651804971L-35.397765259119936,36.99026920921982L-32.18609604859708,36.73838854325532z" style="fill:rgb(101,32,208)"/><path d="M-17.14407273261413,-189.5025592240589L-16.03841756111063,-95.44184816025383L-14.448946054600535,-189.1620186874316z" style="fill:rgb(83,212,212)"/><path d="M48.974446744604116,-5.3332216657917355L-2.240772242101,-107.62105091845794L46.81786850505928,-2.8909147033038636z" style="fill:rgb(217,90,210)"/><path d="M21.288239893152667,-148.6139574950535L67.04474088286143,-45.61919444801336L21.583798631078203,-150.99603256860556z" style="fill:rgb(246,149,167)"/><path d="M-85.60935307302053,-64.44224280648368L-32.18609604859708,36.73838854325532L-28.93783198919991,36.37930452387923z" style="fill:rgb(106,33,210)"/><path d="M-128.61865491519913,-144.62092686838722L-138.98132904373992,-72.39117494249314L-137.08513464422126,-71.09195535007412zM-14.448946054600535,-189.1620186874316L-16.03841756111063,-95.44184816025383L-11.820398166028289,-188.73142345832187z" style="fill:rgb(83,212,212)"/><path d="M46.81786850505928,-2.8909147033038636L-4.793371880732161,-105.10791951637314L44.555524517732195,-0.4846625146245387z" style="fill:rgb(213,87,212)"/><path d="M-135.0679060615832,-69.87887651906456L-73.65516775118171,29.624403170644612L-132.93209345061896,-68.7546216959829z" style="fill:rgb(41,42,167)"/><path d="M-82.07259952123017,-65.08263708810013L-28.93783198919991,36.37930452387923L-25.658699973091927,35.91327395519941z" style="fill:rgb(111,33,212)"/><path d="M-126.37677684532858,-146.86510208018345L-137.08513464422126,-71.09195535007412L-135.0679060615832,-69.87887651906456zM-11.820398166028289,-188.73142345832187L-13.081506951188011,-97.79112318934699L-9.262474322721246,-188.2107748040051z" style="fill:rgb(83,212,212)"/><path d="M44.555524517732195,-0.4846625146245387L-7.454085486931097,-102.6287716573048L42.19115181954883,1.8810482456776683z" style="fill:rgb(210,83,213)"/><path d="M20.851073563495945,-146.18986573068528L66.87788003577663,-43.21044079971638L21.288239893152667,-148.6139574950535z" style="fill:rgb(246,145,170)"/><path d="M-78.5020504106734,-65.830577506813L-25.658699973091927,35.91327395519941L-22.3545467791603,35.340766391290806z" style="fill:rgb(115,34,214)"/><path d="M-9.262474322721246,-188.2107748040051L-10.218389864914608,-100.18828751304585L-6.779186480904904,-187.6002373064103zM-124.05379973089943,-149.07842105960174L-135.0679060615832,-69.87887651906456L-132.93209345061896,-68.7546216959829z" style="fill:rgb(83,212,212)"/><path d="M42.19115181954883,1.8810482456776683L-10.218389864914608,-100.18828751304585L39.728707865286886,4.201786539526253z" style="fill:rgb(207,80,215)"/><path d="M-74.90419426862724,-66.6850497623211L-22.3545467791603,35.340766391290806L-19.03129786680379,34.662485709900416z" style="fill:rgb(120,35,215)"/><path d="M-132.93209345061896,-68.7546216959829L-71.47246319076328,30.782916247597203L-130.6803884084495,-67.72174144112827z" style="fill:rgb(44,41,171)"/><path d="M-6.779186480904904,-187.6002373064103L-7.454085486931097,-102.6287716573048L-4.3745082591831075,-186.90003510070983zM-121.65299688969489,-151.2581426303877L-132.93209345061896,-68.7546216959829L-130.6803884084495,-67.72174144112827z" style="fill:rgb(83,212,212)"/><path d="M39.728707865286886,4.201786539526253L-13.081506951188011,-97.79112318934699L37.17239834931839,6.473189992349269z" style="fill:rgb(203,77,216)"/><path d="M-71.28559708087347,-67.64482724828008L-19.03129786680379,34.662485709900416L-15.694957896183682,33.87935938788409z" style="fill:rgb(125,36,217)"/><path d="M20.272001922945684,-143.72756832061637L66.58064035875705,-40.76773022185403L20.851073563495945,-146.18986573068528z" style="fill:rgb(245,142,173)"/><path d="M-4.3745082591831075,-186.90003510070983L-4.793371880732161,-105.10791951637314L-2.0523652461382396,-186.1105588541752z" style="fill:rgb(83,212,212)"/><path d="M37.17239834931839,6.473189992349269L-16.03841756111063,-95.44184816025383L34.52663273486169,8.690976756187341z" style="fill:rgb(199,74,217)"/><path d="M-116.63127253916404,-155.50614803606896L-130.6803884084495,-67.72174144112827L-128.3157928981849,-66.78264978278905z" style="fill:rgb(83,212,212)"/><path d="M-67.65291809736433,-68.70842036750683L-15.694957896183682,33.87935938788409L-12.351590510476678,32.99254999270096z" style="fill:rgb(129,37,218)"/><path d="M34.52663273486169,8.690976756187341L-19.083873639513726,-93.14494891837288L31.796042582697325,10.850957581702124z" style="fill:rgb(196,71,219)"/><path d="M-130.6803884084495,-67.72174144112827L-69.18996001428535,31.851960853766418L-128.3157928981849,-66.78264978278905z" style="fill:rgb(47,39,174)"/><path d="M-2.0523652461382396,-186.1105588541752L-2.240772242101,-107.62105091845794L0.18336938779576706,-185.23229550738077z" style="fill:rgb(83,212,212)"/><path d="M-64.01287707511993,-69.87412680217916L-12.351590510476678,32.99254999270096L-9.007301008327415,32.003431682568156z" style="fill:rgb(134,39,219)"/><path d="M31.796042582697325,10.850957581702124L-22.212404552419812,-90.90485161781555L28.985452048355494,12.949049050988533z" style="fill:rgb(192,68,220)"/><path d="M0.18336938779576706,-185.23229550738077L2.523312309552727,-112.73026472508116L2.3288817371581785,-184.26588281377272z" style="fill:rgb(83,212,212)"/><path d="M-60.37225082427897,-71.14000448747389L-9.007301008327415,32.003431682568156L-5.668222479483685,30.913607584490528z" style="fill:rgb(139,40,220)"/><path d="M-116.63127253916404,-155.50614803606896L-128.3157928981849,-66.78264978278905L-125.84152849708829,-65.93961999911274z" style="fill:rgb(83,212,212)"/><path d="M-22.212404552419812,-90.90485161781555L26.09988177557365,14.981284498275514L28.985452048355494,12.949049050988533z" style="fill:rgb(188,65,220)"/><path d="M19.5509942744679,-141.23095687534746L66.15263690871069,-38.294935359289L20.272001922945684,-143.72756832061637z" style="fill:rgb(244,138,176)"/><path d="M-56.73783418500008,-72.50387757643L-5.668222479483685,30.913607584490528L-2.340500760864309,29.724910168575924z" style="fill:rgb(143,42,221)"/><path d="M-25.41833973772819,-88.72583099702965L23.14452134079237,16.94382192957463L26.09988177557365,14.981284498275514z" style="fill:rgb(183,62,221)"/><path d="M2.3288817371581785,-184.26588281377272L4.7270942504824935,-115.31681293771797L4.380424139182342,-183.21204250453138z" style="fill:rgb(83,212,212)"/><path d="M-53.11642820377629,-73.9633619605806L-2.340500760864309,29.724910168575924L0.9697248795748885,28.43937189186659z" style="fill:rgb(148,44,221)"/><path d="M-28.695813111377216,-86.612070734419L20.12472892190901,18.83296505970629L23.14452134079237,16.94382192957463z" style="fill:rgb(179,59,222)"/><path d="M-49.5148369849646,-75.51584703399134L0.9697248795748885,28.43937189186659L4.256336895463131,27.059254646171723z" style="fill:rgb(153,46,222)"/><path d="M-32.03879053272746,-84.56761331647658L17.046010134707842,20.64516132211073L20.12472892190901,18.83296505970629z" style="fill:rgb(175,57,222)"/><path d="M-114.0171990675656,-157.56926852891303L-125.84152849708829,-65.93961999911274L-123.26106067896959,-65.19477348001455z" style="fill:rgb(83,212,212)"/><path d="M-128.3157928981849,-66.78264978278905L-66.81086601391387,32.82914859119038L-125.84152849708829,-65.93961999911274z" style="fill:rgb(51,38,177)"/><path d="M-45.93981835534738,-77.15850203652144L4.256336895463131,27.059254646171723L7.513257320978779,25.587015665177642z" style="fill:rgb(157,48,222)"/><path d="M-35.44107577207008,-82.59636697306435L13.91399997002828,22.37701826562826L17.046010134707842,20.64516132211073z" style="fill:rgb(171,54,222)"/><path d="M-42.39810330229124,-78.88832045383259L7.513257320978779,25.587015665177642L10.734462024920084,24.02531744128538z" style="fill:rgb(162,50,222)"/><path d="M-38.89633208216734,-80.70208023465668L10.734462024920084,24.02531744128538L13.91399997002828,22.37701826562826z" style="fill:rgb(166,52,222)"/><path d="M4.380424139182342,-183.21204250453138L4.7270942504824935,-115.31681293771797L6.334323954806086,-182.07168402020002z" style="fill:rgb(83,212,212)"/><path d="M18.688286374645706,-138.70409235319022L65.59374618767777,-35.79603783089861L19.5509942744679,-141.23095687534746z" style="fill:rgb(243,134,180)"/><path d="M-111.33893675066994,-159.58842925951055L-123.26106067896959,-65.19477348001455L-120.57814247020646,-64.55006738533613zM6.334323954806086,-182.07168402020002L6.807370649970779,-117.9182861312116L8.186988952878528,-180.8458176367915z" style="fill:rgb(83,212,212)"/><path d="M-125.84152849708829,-65.93961999911274L-64.33862066128079,33.71222282051572L-123.26106067896959,-65.19477348001455z" style="fill:rgb(55,37,180)"/><path d="M8.186988952878528,-180.8458176367915L10.58513662686989,-123.14700213005406L9.934917864419731,-179.53561012716224zM-108.60003379215746,-161.56119226680687L-120.57814247020646,-64.55006738533613L-117.79674115614336,-64.00728587796681z" style="fill:rgb(83,212,212)"/><path d="M17.684396324324346,-136.1511376138298L64.90407927953018,-33.275120387226394L18.688286374645706,-138.70409235319022z" style="fill:rgb(242,130,183)"/><path d="M9.934917864419731,-179.53561012716224L12.277225805799503,-125.76479285862119L11.574708027004267,-178.14234114513982zM-105.8040514063929,-163.48516549016588L-117.79674115614336,-64.00728587796681L-114.92108607822641,-63.56805621409675z" style="fill:rgb(83,212,212)"/><path d="M-123.26106067896959,-65.19477348001455L-61.77686481713988,34.49909123023061L-120.57814247020646,-64.55006738533613z" style="fill:rgb(58,35,183)"/><path d="M11.574708027004267,-178.14234114513982L13.835010347450256,-128.37866715956537L13.10306315647209,-176.66746646343603zM-100.05537475006422,-167.17746427750998L-114.92108607822641,-63.56805621409675L-111.95565733846293,-63.233784323964386z" style="fill:rgb(83,212,212)"/><path d="M16.540115662473287,-133.5763277091054L64.08399507188346,-30.736349206830454L17.684396324324346,-136.1511376138298z" style="fill:rgb(240,127,186)"/><path d="M13.10306315647209,-176.66746646343603L15.25652963526465,-130.98401443293432L14.516803531253174,-175.1125889193354zM-97.11002867461343,-168.94130219936446L-111.95565733846293,-63.233784323964386L-108.90514240768219,-63.00571415261856z" style="fill:rgb(83,212,212)"/><path d="M-120.57814247020646,-64.55006738533613L-59.12947143660092,35.18781320155951L-117.79674115614336,-64.00728587796681z" style="fill:rgb(62,34,186)"/><path d="M14.516803531253174,-175.1125889193354L16.540115662473287,-133.5763277091054L15.812873326130719,-173.4794210697942z" style="fill:rgb(83,212,212)"/><path d="M15.25652963526465,-130.98401443293432L63.134108654393046,-28.18398315841118L16.540115662473287,-133.5763277091054z" style="fill:rgb(239,123,189)"/><path d="M15.812873326130719,-173.4794210697942L17.684396324324346,-136.1511376138298L16.98835257104344,-171.76986125803327zM-97.11002867461343,-168.94130219936446L-108.90514240768219,-63.00571415261856L-105.77447119932118,-62.88486904582476z" style="fill:rgb(83,212,212)"/><path d="M-59.12947143660092,35.18781320155951L-114.92108607822641,-63.56805621409675L-117.79674115614336,-64.00728587796681z" style="fill:rgb(66,34,189)"/><path d="M16.98835257104344,-171.76986125803327L18.688286374645706,-138.70409235319022L18.040463061054492,-169.985929164187zM-94.12230478438848,-170.64735595115948L-105.77447119932118,-62.88486904582476L-102.56879186567542,-62.87207119454362zM18.040463061054492,-169.985929164187L19.5509942744679,-141.23095687534746L18.966586574328655,-168.1298526136094z" style="fill:rgb(83,212,212)"/><path d="M13.835010347450256,-128.37866715956537L62.0552897712211,-25.622352799419094L15.25652963526465,-130.98401443293432z" style="fill:rgb(237,119,191)"/><path d="M-91.09596800192654,-172.29354432458683L-102.56879186567542,-62.87207119454362L-99.29345543473383,-62.96792488260756z" style="fill:rgb(83,212,212)"/><path d="M-56.40051928877342,35.77661858274883L-111.95565733846293,-63.233784323964386L-114.92108607822641,-63.56805621409675z" style="fill:rgb(71,33,192)"/><path d="M18.966586574328655,-168.1298526136094L20.272001922945684,-143.72756832061637L19.764261119989893,-166.2039413587179zM-88.03481354318386,-173.87782029321505L-99.29345543473383,-62.96792488260756L-95.95401631610008,-63.17282020495317z" style="fill:rgb(83,212,212)"/><path d="M12.277225805799503,-125.76479285862119L60.84866834312655,-23.055859325046942L13.835010347450256,-128.37866715956537z" style="fill:rgb(235,115,194)"/><path d="M-53.59428491207634,36.26391111258284L-108.90514240768219,-63.00571415261856L-111.95565733846293,-63.233784323964386z" style="fill:rgb(75,32,195)"/><path d="M19.764261119989893,-166.2039413587179L20.272001922945684,-143.72756832061637L20.431202830812154,-164.21069251303695zM-81.82340835292707,-176.85275998846515L-95.95401631610008,-63.17282020495317L-92.55621670922189,-63.48692243043387zM20.431202830812154,-164.21069251303695L20.851073563495945,-146.18986573068528L20.965308267768002,-162.1527640010817zM20.965308267768002,-162.1527640010817L21.583798631078203,-150.99603256860556L21.364669885724986,-160.03295086280508z" style="fill:rgb(83,212,212)"/><path d="M10.58513662686989,-123.14700213005406L59.51563995900951,-20.488954874710252L12.277225805799503,-125.76479285862119z" style="fill:rgb(233,112,197)"/><path d="M-78.68090807701074,-178.2396708357687L-92.55621670922189,-63.48692243043387L-89.10597321698572,-63.91016651804971z" style="fill:rgb(83,212,212)"/><path d="M-50.71524904835524,36.64827414929218L-105.77447119932118,-62.88486904582476L-108.90514240768219,-63.00571415261856z" style="fill:rgb(79,32,197)"/><path d="M21.364669885724986,-160.03295086280508L21.73830064090964,-153.3324181104618L21.627580265887968,-157.8541978977201zM-78.68090807701074,-178.2396708357687L-89.10597321698572,-63.91016651804971L-85.60935307302053,-64.44224280648368z" style="fill:rgb(83,212,212)"/><path d="M8.761000586305578,-120.52993150637718L58.057864903443075,-17.926147594069683L10.58513662686989,-123.14700213005406z" style="fill:rgb(230,108,199)"/><path d="M-75.51908321379452,-179.5571042951221L-85.60935307302053,-64.44224280648368L-82.07259952123017,-65.08263708810013z" style="fill:rgb(83,212,212)"/><path d="M-47.76808378167688,36.92848722335245L-102.56879186567542,-62.87207119454362L-105.77447119932118,-62.88486904582476z" style="fill:rgb(83,32,200)"/><path d="M21.627580265887968,-157.8541978977201L21.73830064090964,-153.3324181104618L21.75254850223333,-155.61960721330018zM-72.34189402688013,-180.8033533573599L-82.07259952123017,-65.08263708810013L-78.5020504106734,-65.830577506813zM21.364669885724986,-160.03295086280508L21.583798631078203,-150.99603256860556L21.73830064090964,-153.3324181104618z" style="fill:rgb(83,212,212)"/><path d="M6.807370649970779,-117.9182861312116L56.47726498964849,-15.371978859903688L8.761000586305578,-120.52993150637718z" style="fill:rgb(228,104,202)"/><path d="M-44.757643903951355,37.103514423808L-99.29345543473383,-62.96792488260756L-102.56879186567542,-62.87207119454362z" style="fill:rgb(88,32,202)"/><path d="M-69.15329451662494,-181.9767395879043L-78.5020504106734,-65.830577506813L-74.90419426862724,-66.6850497623211zM20.965308267768002,-162.1527640010817L21.288239893152667,-148.6139574950535L21.583798631078203,-150.99603256860556zM-65.9572923883174,-183.07565290789498L-74.90419426862724,-66.6850497623211L-71.28559708087347,-67.64482724828008z" style="fill:rgb(83,212,212)"/><path d="M4.7270942504824935,-115.31681293771797L54.77604037884687,-12.8310161598198L6.807370649970779,-117.9182861312116z" style="fill:rgb(225,101,204)"/><path d="M-41.688955297626116,37.17253345969627L-95.95401631610008,-63.17282020495317L-99.29345543473383,-62.96792488260756z" style="fill:rgb(92,32,204)"/><path d="M20.965308267768002,-162.1527640010817L20.851073563495945,-146.18986573068528L21.288239893152667,-148.6139574950535zM-59.55915334854342,-185.04403549261315L-71.28559708087347,-67.64482724828008L-67.65291809736433,-68.70842036750683zM18.966586574328655,-168.1298526136094L19.5509942744679,-141.23095687534746L20.272001922945684,-143.72756832061637zM20.431202830812154,-164.21069251303695L20.272001922945684,-143.72756832061637L20.851073563495945,-146.18986573068528z" style="fill:rgb(83,212,212)"/><path d="M2.523312309552727,-112.73026472508116L52.956639100839965,-10.307844028889829L4.7270942504824935,-115.31681293771797z" style="fill:rgb(223,97,206)"/><path d="M-56.36511630188839,-185.910636633232L-67.65291809736433,-68.70842036750683L-64.01287707511993,-69.87412680217916zM18.040463061054492,-169.985929164187L18.688286374645706,-138.70409235319022L19.5509942744679,-141.23095687534746z" style="fill:rgb(83,212,212)"/><path d="M-38.56721339836128,37.1349181694394L-92.55621670922189,-63.48692243043387L-95.95401631610008,-63.17282020495317z" style="fill:rgb(97,32,206)"/><path d="M16.98835257104344,-171.76986125803327L17.684396324324346,-136.1511376138298L18.688286374645706,-138.70409235319022zM-53.17987331975255,-186.69704365135775L-64.01287707511993,-69.87412680217916L-60.37225082427897,-71.14000448747389zM15.812873326130719,-173.4794210697942L16.540115662473287,-133.5763277091054L17.684396324324346,-136.1511376138298z" style="fill:rgb(83,212,212)"/><path d="M0.19945255771216627,-110.1634170795584L51.021783318892155,-7.807052093337998L2.523312309552727,-112.73026472508116z" style="fill:rgb(220,94,208)"/><path d="M-50.00751674037982,-187.40202020796542L-60.37225082427897,-71.14000448747389L-56.73783418500008,-72.50387757643z" style="fill:rgb(83,212,212)"/><path d="M-35.397765259119936,36.99026920921982L-89.10597321698572,-63.91016651804971L-92.55621670922189,-63.48692243043387z" style="fill:rgb(101,32,208)"/><path d="M14.516803531253174,-175.1125889193354L15.25652963526465,-130.98401443293432L16.540115662473287,-133.5763277091054zM-46.85215491780992,-188.02435991375526L-56.73783418500008,-72.50387757643L-53.11642820377629,-73.9633619605806zM-46.85215491780992,-188.02435991375526L-53.11642820377629,-73.9633619605806L-49.5148369849646,-75.51584703399134zM13.10306315647209,-176.66746646343603L13.835010347450256,-128.37866715956537L15.25652963526465,-130.98401443293432z" style="fill:rgb(83,212,212)"/><path d="M-2.240772242101,-107.62105091845794L48.974446744604116,-5.3332216657917355L0.19945255771216627,-110.1634170795584z" style="fill:rgb(217,90,210)"/><path d="M11.574708027004267,-178.14234114513982L12.277225805799503,-125.76479285862119L13.835010347450256,-128.37866715956537z" style="fill:rgb(83,212,212)"/><path d="M-32.18609604859708,36.73838854325532L-85.60935307302053,-64.44224280648368L-89.10597321698572,-63.91016651804971z" style="fill:rgb(106,33,210)"/><path d="M-40.6089297860404,-189.0168835894075L-49.5148369849646,-75.51584703399134L-45.93981835534738,-77.15850203652144zM9.934917864419731,-179.53561012716224L10.58513662686989,-123.14700213005406L12.277225805799503,-125.76479285862119zM-40.6089297860404,-189.0168835894075L-45.93981835534738,-77.15850203652144L-42.39810330229124,-78.88832045383259zM8.186988952878528,-180.8458176367915L8.761000586305578,-120.52993150637718L10.58513662686989,-123.14700213005406zM-37.529349186063314,-189.38508825197172L-42.39810330229124,-78.88832045383259L-38.89633208216734,-80.70208023465668z" style="fill:rgb(83,212,212)"/><path d="M-4.793371880732161,-105.10791951637314L46.81786850505928,-2.8909147033038636L-2.240772242101,-107.62105091845794z" style="fill:rgb(213,87,212)"/><path d="M-28.93783198919991,36.37930452387923L-82.07259952123017,-65.08263708810013L-85.60935307302053,-64.44224280648368z" style="fill:rgb(111,33,212)"/><path d="M-31.47498579150683,-189.86110992056643L-35.44107577207008,-82.59636697306435L-32.03879053272746,-84.56761331647658zM-31.47498579150683,-189.86110992056643L-38.89633208216734,-80.70208023465668L-35.44107577207008,-82.59636697306435zM2.3288817371581785,-184.26588281377272L2.523312309552727,-112.73026472508116L4.7270942504824935,-115.31681293771797zM8.186988952878528,-180.8458176367915L6.807370649970779,-117.9182861312116L8.761000586305578,-120.52993150637718z" style="fill:rgb(83,212,212)"/><path d="M-7.454085486931097,-102.6287716573048L44.555524517732195,-0.4846625146245387L-4.793371880732161,-105.10791951637314z" style="fill:rgb(210,83,213)"/><path d="M0.18336938779576706,-185.23229550738077L0.19945255771216627,-110.1634170795584L2.523312309552727,-112.73026472508116zM6.334323954806086,-182.07168402020002L4.7270942504824935,-115.31681293771797L6.807370649970779,-117.9182861312116z" style="fill:rgb(83,212,212)"/><path d="M-25.658699973091927,35.91327395519941L-78.5020504106734,-65.830577506813L-82.07259952123017,-65.08263708810013z" style="fill:rgb(115,34,214)"/><path d="M-22.717732765388376,-189.91392759688677L-25.41833973772819,-88.72583099702965L-22.212404552419812,-90.90485161781555zM-25.58804715375972,-189.98523449894296L-32.03879053272746,-84.56761331647658L-28.695813111377216,-86.612070734419zM-19.901700675228664,-189.7531412406309L-22.212404552419812,-90.90485161781555L-19.083873639513726,-93.14494891837288zM-17.14407273261413,-189.5025592240589L-19.083873639513726,-93.14494891837288L-16.03841756111063,-95.44184816025383zM-22.717732765388376,-189.91392759688677L-28.695813111377216,-86.612070734419L-25.41833973772819,-88.72583099702965zM0.18336938779576706,-185.23229550738077L-2.240772242101,-107.62105091845794L0.19945255771216627,-110.1634170795584z" style="fill:rgb(83,212,212)"/><path d="M-10.218389864914608,-100.18828751304585L42.19115181954883,1.8810482456776683L-7.454085486931097,-102.6287716573048z" style="fill:rgb(207,80,215)"/><path d="M-2.0523652461382396,-186.1105588541752L-4.793371880732161,-105.10791951637314L-2.240772242101,-107.62105091845794zM-4.3745082591831075,-186.90003510070983L-7.454085486931097,-102.6287716573048L-4.793371880732161,-105.10791951637314z" style="fill:rgb(83,212,212)"/><path d="M-22.3545467791603,35.340766391290806L-74.90419426862724,-66.6850497623211L-78.5020504106734,-65.830577506813z" style="fill:rgb(120,35,215)"/><path d="M-11.820398166028289,-188.73142345832187L-16.03841756111063,-95.44184816025383L-13.081506951188011,-97.79112318934699zM-6.779186480904904,-187.6002373064103L-10.218389864914608,-100.18828751304585L-7.454085486931097,-102.6287716573048zM-9.262474322721246,-188.2107748040051L-13.081506951188011,-97.79112318934699L-10.218389864914608,-100.18828751304585z" style="fill:rgb(83,212,212)"/><path d="M-13.081506951188011,-97.79112318934699L39.728707865286886,4.201786539526253L-10.218389864914608,-100.18828751304585z" style="fill:rgb(203,77,216)"/><path d="M-19.03129786680379,34.662485709900416L-71.28559708087347,-67.64482724828008L-74.90419426862724,-66.6850497623211z" style="fill:rgb(125,36,217)"/><path d="M-16.03841756111063,-95.44184816025383L37.17239834931839,6.473189992349269L-13.081506951188011,-97.79112318934699z" style="fill:rgb(199,74,217)"/><path d="M-15.694957896183682,33.87935938788409L-67.65291809736433,-68.70842036750683L-71.28559708087347,-67.64482724828008z" style="fill:rgb(129,37,218)"/><path d="M-19.083873639513726,-93.14494891837288L34.52663273486169,8.690976756187341L-16.03841756111063,-95.44184816025383z" style="fill:rgb(196,71,219)"/><path d="M-12.351590510476678,32.99254999270096L-64.01287707511993,-69.87412680217916L-67.65291809736433,-68.70842036750683z" style="fill:rgb(134,39,219)"/><path d="M-22.212404552419812,-90.90485161781555L31.796042582697325,10.850957581702124L-19.083873639513726,-93.14494891837288z" style="fill:rgb(192,68,220)"/><path d="M-9.007301008327415,32.003431682568156L-60.37225082427897,-71.14000448747389L-64.01287707511993,-69.87412680217916z" style="fill:rgb(139,40,220)"/><path d="M-5.668222479483685,30.913607584490528L-56.73783418500008,-72.50387757643L-60.37225082427897,-71.14000448747389z" style="fill:rgb(143,42,221)"/><path d="M26.09988177557365,14.981284498275514L-22.212404552419812,-90.90485161781555L-25.41833973772819,-88.72583099702965z" style="fill:rgb(188,65,220)"/><path d="M-2.340500760864309,29.724910168575924L-53.11642820377629,-73.9633619605806L-56.73783418500008,-72.50387757643z" style="fill:rgb(148,44,221)"/><path d="M23.14452134079237,16.94382192957463L-25.41833973772819,-88.72583099702965L-28.695813111377216,-86.612070734419z" style="fill:rgb(183,62,221)"/><path d="M0.9697248795748885,28.43937189186659L-49.5148369849646,-75.51584703399134L-53.11642820377629,-73.9633619605806z" style="fill:rgb(153,46,222)"/><path d="M20.12472892190901,18.83296505970629L-28.695813111377216,-86.612070734419L-32.03879053272746,-84.56761331647658z" style="fill:rgb(179,59,222)"/><path d="M4.256336895463131,27.059254646171723L-45.93981835534738,-77.15850203652144L-49.5148369849646,-75.51584703399134z" style="fill:rgb(157,48,222)"/><path d="M17.046010134707842,20.64516132211073L-32.03879053272746,-84.56761331647658L-35.44107577207008,-82.59636697306435z" style="fill:rgb(175,57,222)"/><path d="M7.513257320978779,25.587015665177642L-42.39810330229124,-78.88832045383259L-45.93981835534738,-77.15850203652144z" style="fill:rgb(162,50,222)"/><path d="M13.91399997002828,22.37701826562826L-35.44107577207008,-82.59636697306435L-38.89633208216734,-80.70208023465668z" style="fill:rgb(171,54,222)"/><path d="M10.734462024920084,24.02531744128538L-38.89633208216734,-80.70208023465668L-42.39810330229124,-78.88832045383259z" style="fill:rgb(166,52,222)"/></svg>
