<?xml version="1.0" encoding="UTF-8"?>
<!-- Generated by jsxcad -->
<!DOCTYPE svg PUBLIC "-//W3C//DTD SVG 1.1 Tiny//EN" "http://www.w3.org/Graphics/SVG/1.1/DTD/svg11-tiny.dtd">
<svg viewBox="-250 -250 500 500" width="500" height="500" xmlns="http://www.w3.org/2000/svg"><path d="M-48.871285448764446,65.12729419078765L-53.20643397237173,163.25714625038412L-46.49361478223925,61.730465052538506zM-35.78316648826043,48.71383099247238L-39.976903190529775,176.44043371479896L-32.825039453287694,45.620676149384174zM-46.49361478223925,61.730465052538506L-48.4121826386452,168.8576994980629L-43.992146520315195,58.38694091442624zM-43.992146520315195,58.38694091442624L-45.763520335939134,171.499897021617L-41.370668771247395,55.10053199716684zM-41.370668771247395,55.10053199716684L-42.95071667578661,174.0292712527762L-38.633033428431084,51.87495574539202zM-51.121433983441946,68.57350384338207L-53.20643397237173,163.25714625038412L-48.871285448764446,65.12729419078765zM-38.633033428431084,51.87495574539202L-39.976903190529775,176.44043371479896L-35.78316648826043,48.71383099247238zM-53.24043183145551,72.06508044331942L-55.34757432158248,160.31010356168775L-51.121433983441946,68.57350384338207zM-55.22471676636982,75.59790732550383L-57.315685390553895,157.27284172420033L-53.24043183145551,72.06508044331942zM-32.825039453287694,45.620676149384174L-33.56057389182541,180.8869882026785L-29.762691032953246,42.59892228257036zM-29.762691032953246,42.59892228257036L-30.12618361871144,182.91219479069844L-26.600215999861103,39.65189018640747zM-57.07081926779874,79.16775280130037L-59.10939941844445,154.15117314615995L-55.22471676636982,75.59790732550383zM-26.600215999861103,39.65189018640747L-26.547018323086494,184.79888359176573L-23.341752840414145,36.78282952220926zM-58.7753656585228,82.77030098286286L-60.72767901175549,150.9509015940943L-57.07081926779874,79.16775280130037zM-16.55368002211333,31.29110440691419L-18.97477239930501,188.138304126125L-13.03259770252653,28.6744675319026zM-23.341752840414145,36.78282952220926L-22.82808605150928,186.54238226910033L-19.991494408499413,33.99488088348641zM-60.335073399859,86.4011152753545L-62.16980461078068,147.67786498961146L-58.7753656585228,82.77030098286286zM-19.991494408499413,33.99488088348641L-18.97477239930501,188.138304126125L-16.55368002211333,31.29110440691419zM-61.74678069011513,90.05565230293962L-63.43535261002535,144.33789797444535L-60.335073399859,86.4011152753545zM-63.007432941698156,93.72928875223892L-64.52420714087434,140.93681520699343L-61.74678069011513,90.05565230293962zM-13.03259770252653,28.6744675319026L-10.888413928152671,190.87091038063667L-9.432577179080058,26.14785273059517zM-64.11409933898136,97.41727698294392L-65.4365250384467,137.48040333689937L-63.007432941698156,93.72928875223892zM-9.432577179080058,26.14785273059517L-6.667990128208136,191.9999845981419L-5.7579960113587,23.714053559870344zM-65.85441218094795,104.816845600985L-67.11984695582821,126.83669375092634L-65.06397646555605,101.11477619877711zM-65.06397646555605,101.11477619877711L-66.17273768942044,133.97444192920045L-64.11409933898136,97.41727698294392zM-5.7579960113587,23.714053559870344L-2.3384113133503375,192.96633336873785L-2.013271689668537,21.375779458413405zM-66.4828895192322,108.51844476195112L-67.33285349329051,123.21618822692359L-65.85441218094795,104.816845600985zM-2.013271689668537,21.375779458413405L2.0931329841178528,193.76686761465137L1.797132329178062,19.13565828590837zM1.797132329178062,19.13565828590837L6.61912399636477,194.3988462306762L5.668711076485334,16.99622664925049zM5.668711076485334,16.99622664925049L11.23172648796028,194.85988869573302L9.596916418620639,14.959944359462233zM-66.9470631502554,112.21444861229172L-67.33285349329051,123.21618822692359L-66.4828895192322,108.51844476195112zM9.596916418620639,14.959944359462233L15.922805694814919,195.1479330334146L13.577157871879367,13.029184819276646zM-67.37395176236086,119.56867610877391L-66.9470631502554,112.21444861229172L-67.2447542080761,115.89963215716209zM13.577157871879367,13.029184819276646L20.68394609908191,195.26130778619208L17.60480274614776,11.206239130633696zM17.60480274614776,11.206239130633696L20.68394609908191,195.26130778619208L21.67517410832474,9.493315931553418zM-66.9470631502554,112.21444861229172L-67.37395176236086,119.56867610877391L-67.33285349329051,123.21618822692359zM-65.85441218094795,104.816845600985L-67.33285349329051,123.21618822692359L-67.11984695582821,126.83669375092634zM21.67517410832474,9.493315931553418L30.3814533880196,194.95921666471108L25.783550062543995,7.892538595034818zM25.783550062543995,7.892538595034818L35.299769284440124,194.54233686847485L29.925170866166102,6.405948702779115zM-65.06397646555605,101.11477619877711L-67.11984695582821,126.83669375092634L-66.73353039036103,130.42465157032697zM29.925170866166102,6.405948702779115L40.252089799999894,193.94800078605098L34.095227793840564,5.035500612911065zM34.095227793840564,5.035500612911065L45.22891841592343,193.17650866114786L38.28886512525834,3.7830645321251644zM-65.06397646555605,101.11477619877711L-66.73353039036103,130.42465157032697L-66.17273768942044,133.97444192920045zM38.28886512525834,3.7830645321251644L50.22063207968694,192.2286340052799L42.50119019141304,2.650422280480781zM-64.11409933898136,97.41727698294392L-66.17273768942044,133.97444192920045L-65.4365250384467,137.48040333689937zM42.50119019141304,2.650422280480781L55.2174908828605,191.1055291993271L46.72725969951469,1.6392674414837793zM-63.007432941698156,93.72928875223892L-65.4365250384467,137.48040333689937L-64.52420714087434,140.93681520699343zM46.72725969951469,1.6392674414837793L60.209678798944125,189.80882991090826L50.962085189483176,0.7512020342047403zM50.962085189483176,0.7512020342047403L65.18733013982927,188.3405372852615L55.20063365776282,-0.012264152035735408zM-61.74678069011513,90.05565230293962L-64.52420714087434,140.93681520699343L-63.43535261002535,144.33789797444535zM55.20063365776282,-0.012264152035735408L65.18733013982927,188.3405372852615L59.43783070424066,-0.6497170527295032zM-60.335073399859,86.4011152753545L-63.43535261002535,144.33789797444535L-62.16980461078068,147.67786498961146zM59.43783070424066,-0.6497170527295032L75.05952110062049,184.89946975882597L63.66854347089497,-1.1598407713464602zM-58.7753656585228,82.77030098286286L-62.16980461078068,147.67786498961146L-60.72767901175549,150.9509015940943zM63.66854347089497,-1.1598407713464602L79.93438096498446,182.93284609693106L67.88761671990471,-1.5414202742746776zM67.88761671990471,-1.5414202742746776L84.75540087674234,180.8069855791358L72.08982736535256,-1.7933453039353147zM-57.07081926779874,79.16775280130037L-60.72767901175549,150.9509015940943L-59.10939941844445,154.15117314615995zM72.08982736535256,-1.7933453039353147L89.51295984132324,178.52595919643645L76.26992538452376,-1.9146135163237041zM-55.22471676636982,75.59790732550383L-59.10939941844445,154.15117314615995L-57.315685390553895,157.27284172420033zM76.26992538452376,-1.9146135163237041L94.19757415289475,176.09422478882774L80.42261356943919,-1.9043345041228874zM-53.24043183145551,72.06508044331942L-57.315685390553895,157.27284172420033L-55.34757432158248,160.31010356168775zM80.42261356943919,-1.9043345041228874L94.19757415289475,176.09422478882774L84.54255038737965,-1.7617340203505416zM84.54255038737965,-1.7617340203505416L103.31093407527851,170.79840475804235L88.62436150083266,-1.4861581036094857zM-51.121433983441946,68.57350384338207L-55.34757432158248,160.31010356168775L-53.20643397237173,163.25714625038412zM-46.49361478223925,61.730465052538506L-53.20643397237173,163.25714625038412L-50.89395290139646,166.10824758227912zM88.62436150083266,-1.4861581036094857L103.31093407527851,170.79840475804235L92.66263533587993,-1.077078434216799zM92.66263533587993,-1.077078434216799L112.02364442912945,164.96236188146523L96.65191879585777,-0.5340964824823194zM-46.49361478223925,61.730465052538506L-50.89395290139646,166.10824758227912L-48.4121826386452,168.8576994980629zM96.65191879585777,-0.5340964824823194L116.20844007888506,161.85655322039207L100.58675120108256,0.14305072670668875zM100.58675120108256,0.14305072670668875L120.2680646577274,158.63400921773322L104.46160500763641,0.9544855350214044zM-43.992146520315195,58.38694091442624L-48.4121826386452,168.8576994980629L-45.763520335939134,171.499897021617zM104.46160500763641,0.9544855350214044L124.1948787410835,155.30140114602156L108.27097588496609,1.9001837614549597zM-41.370668771247395,55.10053199716684L-45.763520335939134,171.499897021617L-42.95071667578661,174.0292712527762zM108.27097588496609,1.9001837614549597L127.9815666514445,151.86562429738382L112.00931034570162,2.9799689312843425zM-38.633033428431084,51.87495574539202L-42.95071667578661,174.0292712527762L-39.976903190529775,176.44043371479896zM112.00931034570162,2.9799689312843425L127.9815666514445,151.86562429738382L115.67103844646775,4.193506813704zM-32.825039453287694,45.620676149384174L-39.976903190529775,176.44043371479896L-36.84556472852004,178.72805863909755zM115.67103844646775,4.193506813704L135.10724059566806,144.71311491446545L119.2506185034637,5.540298329373003zM119.2506185034637,5.540298329373003L138.4335785697158,141.011091150621L122.74245665687994,7.01967480940668zM-32.825039453287694,45.620676149384174L-36.84556472852004,178.72805863909755L-33.56057389182541,180.8869882026785zM122.74245665687994,7.01967480940668L141.5945459024375,137.235271559842L126.1410195357347,8.630789513362231zM-29.762691032953246,42.59892228257036L-33.56057389182541,180.8869882026785L-30.12618361871144,182.91219479069844zM126.1410195357347,8.630789513362231L141.5945459024375,137.235271559842L129.44073697380625,10.372613162869497z" style="fill:rgb(83,212,212)"/><path d="M162.26937750359986,47.41835886859873L169.19397342973517,66.09642072070338L168.00064897103601,62.66113663947205z" style="fill:rgb(246,170,145)"/><path d="M129.44073697380625,10.372613162869497L147.39974826190186,129.49293674814822L132.63609529463895,12.24392773260174z" style="fill:rgb(83,212,212)"/><path d="M-44.133777297042684,176.77962541766584L-55.34757432158248,160.31010356168775L-46.27280023866786,173.8319975649846z" style="fill:rgb(24,55,146)"/><path d="M-26.600215999861103,39.65189018640747L-30.12618361871144,182.91219479069844L-26.547018323086494,184.79888359176573zM132.63609529463895,12.24392773260174L150.0348539159371,125.54195961998632L135.72160525715202,14.24331776622837zM-23.341752840414145,36.78282952220926L-26.547018323086494,184.79888359176573L-22.82808605150928,186.54238226910033zM135.72160525715202,14.24331776622837L152.48628720971698,121.5481902594872L138.69180627416995,16.369167712934832z" style="fill:rgb(83,212,212)"/><path d="M163.4615260146246,50.85465185622258L170.2129960553912,69.6146790460302L169.19397342973517,66.09642072070338z" style="fill:rgb(246,167,149)"/><path d="M-41.826355126748744,179.63239429798068L-53.20643397237173,163.25714625038412L-44.133777297042684,176.77962541766584z" style="fill:rgb(26,52,150)"/><path d="M138.69180627416995,16.369167712934832L154.75062444921983,117.5194675482551L141.54129379334245,18.619651926880312zM-19.991494408499413,33.99488088348641L-22.82808605150928,186.54238226910033L-18.97477239930501,188.138304126125zM141.54129379334245,18.619651926880312L156.82490698601984,113.46356981962323L144.2647317845883,20.992732558256655zM-13.03259770252653,28.6744675319026L-18.97477239930501,188.138304126125L-14.992839428726183,189.58247141294706z" style="fill:rgb(83,212,212)"/><path d="M169.19397342973517,66.09642072070338L162.26937750359986,47.41835886859873L163.4615260146246,50.85465185622258z" style="fill:rgb(246,170,145)"/><path d="M164.47681666310328,54.37567085568902L171.05426993021536,73.21096694113479L170.2129960553912,69.6146790460302z" style="fill:rgb(247,163,152)"/><path d="M144.2647317845883,20.992732558256655L158.70664341537432,109.3882895451959L146.856855767053,23.486152737274555z" style="fill:rgb(83,212,212)"/><path d="M-55.34757432158248,160.31010356168775L-44.133777297042684,176.77962541766584L-53.20643397237173,163.25714625038412z" style="fill:rgb(24,55,146)"/><path d="M-39.352616311339126,182.38462382558492L-50.89395290139646,166.10824758227912L-41.826355126748744,179.63239429798068z" style="fill:rgb(29,50,153)"/><path d="M-13.03259770252653,28.6744675319026L-14.992839428726183,189.58247141294706L-10.888413928152671,190.87091038063667zM146.856855767053,23.486152737274555L158.70664341537432,109.3882895451959L149.3124858380355,26.097427792965153zM149.3124858380355,26.097427792965153L161.88476682061318,101.21021764785532L151.62653780651857,28.823844652409257z" style="fill:rgb(83,212,212)"/><path d="M170.2129960553912,69.6146790460302L163.4615260146246,50.85465185622258L164.47681666310328,54.37567085568902z" style="fill:rgb(246,167,149)"/><path d="M-9.432577179080058,26.14785273059517L-10.888413928152671,190.87091038063667L-6.667990128208136,191.9999845981419z" style="fill:rgb(83,212,212)"/><path d="M165.31173545168636,57.97649296163943L171.7145891371181,76.8801076355444L171.05426993021536,73.21096694113479z" style="fill:rgb(247,160,156)"/><path d="M-53.20643397237173,163.25714625038412L-41.826355126748744,179.63239429798068L-50.89395290139646,166.10824758227912z" style="fill:rgb(26,52,150)"/><path d="M151.62653780651857,28.823844652409257L163.17843036330407,97.12255000937897L153.79404525402333,31.662455624351335z" style="fill:rgb(83,212,212)"/><path d="M-36.7149997026651,185.03073935452187L-48.4121826386452,168.8576994980629L-39.352616311339126,182.38462382558492z" style="fill:rgb(31,48,157)"/><path d="M-5.7579960113587,23.714053559870344L-6.667990128208136,191.9999845981419L-2.3384113133503375,192.96633336873785zM153.79404525402333,31.662455624351335L164.27408634560808,93.04568866346713L155.81016840698902,34.61007300205052z" style="fill:rgb(83,212,212)"/><path d="M19.719786867776595,108.3037825898119L-7.794065236973772,59.354726093134495L17.6720363959927,105.34577499923154z" style="fill:rgb(19,60,138)"/><path d="M171.05426993021536,73.21096694113479L164.47681666310328,54.37567085568902L165.31173545168636,57.97649296163943z" style="fill:rgb(247,163,152)"/><path d="M-2.013271689668537,21.375779458413405L-2.3384113133503375,192.96633336873785L2.0931329841178528,193.76686761465137zM155.81016840698902,34.61007300205052L165.1714763469284,88.98685560054713L157.6702239267051,37.663272335887655z" style="fill:rgb(83,212,212)"/><path d="M53.31799894758514,29.523768472370662L76.89932257232977,80.47872050379132L75.95436863780904,76.97849123509643z" style="fill:rgb(245,171,144)"/><path d="M-50.89395290139646,166.10824758227912L-39.352616311339126,182.38462382558492L-48.4121826386452,168.8576994980629z" style="fill:rgb(29,50,153)"/><path d="M-33.916294873937794,187.56519770065398L-45.763520335939134,171.499897021617L-36.7149997026651,185.03073935452187z" style="fill:rgb(34,46,160)"/><path d="M157.6702239267051,37.663272335887655L165.87071846246124,84.9531586915612L159.36963996652125,40.81837347779136z" style="fill:rgb(83,212,212)"/><path d="M171.7145891371181,76.8801076355444L166.42778323602144,65.39665897465149L172.1910797580041,80.61667883482974z" style="fill:rgb(247,156,160)"/><path d="M1.797132329178062,19.13565828590837L2.0931329841178528,193.76686761465137L6.61912399636477,194.3988462306762zM159.36963996652125,40.81837347779136L166.37240424908873,80.95148761461628L160.90409224241552,44.07145957537198z" style="fill:rgb(83,212,212)"/><path d="M22.374188156034375,110.85981486711115L-5.7381255005791525,62.29103048788475L19.719786867776595,108.3037825898119z" style="fill:rgb(28,51,152)"/><path d="M5.668711076485334,16.99622664925049L6.61912399636477,194.3988462306762L11.23172648796028,194.85988869573302z" style="fill:rgb(83,212,212)"/><path d="M171.7145891371181,76.8801076355444L165.31173545168636,57.97649296163943L165.96304883128622,61.651957968566755z" style="fill:rgb(247,160,156)"/><path d="M160.90409224241552,44.07145957537198L166.6774496706854,76.98857823148028L162.26937750359986,47.41835886859873z" style="fill:rgb(83,212,212)"/><path d="M-48.4121826386452,168.8576994980629L-36.7149997026651,185.03073935452187L-45.763520335939134,171.499897021617z" style="fill:rgb(31,48,157)"/><path d="M54.227772072336485,33.025274511735944L77.1549532216511,84.20715601673L76.89932257232977,80.47872050379132z" style="fill:rgb(247,158,158)"/><path d="M-30.95964708293323,189.982637396316L-42.95071667578661,174.0292712527762L-33.916294873937794,187.56519770065398z" style="fill:rgb(37,44,164)"/><path d="M172.1910797580041,80.61667883482974L166.70327948464228,69.20495245791666L172.4810635640888,84.41503980792156z" style="fill:rgb(247,152,163)"/><path d="M9.596916418620639,14.959944359462233L11.23172648796028,194.85988869573302L15.922805694814919,195.1479330334146z" style="fill:rgb(83,212,212)"/><path d="M166.42778323602144,65.39665897465149L171.7145891371181,76.8801076355444L165.96304883128622,61.651957968566755z" style="fill:rgb(247,156,160)"/><path d="M25.58067364978956,112.9513572329132L-3.0427555593731164,64.81019757615378L22.374188156034375,110.85981486711115z" style="fill:rgb(39,43,166)"/><path d="M162.26937750359986,47.41835886859873L166.6774496706854,76.98857823148028L163.4615260146246,50.85465185622258zM163.4615260146246,50.85465185622258L166.70327948464228,69.20495245791666L164.47681666310328,54.37567085568902zM13.577157871879367,13.029184819276646L15.922805694814919,195.1479330334146L20.68394609908191,195.26130778619208zM164.47681666310328,54.37567085568902L166.42778323602144,65.39665897465149L165.31173545168636,57.97649296163943z" style="fill:rgb(83,212,212)"/><path d="M-45.763520335939134,171.499897021617L-33.916294873937794,187.56519770065398L-42.95071667578661,174.0292712527762z" style="fill:rgb(34,46,160)"/><path d="M-27.848570798785182,192.27775890858493L-39.976903190529775,176.44043371479896L-30.95964708293323,189.982637396316z" style="fill:rgb(41,42,167)"/><path d="M21.67517410832474,9.493315931553418L20.68394609908191,195.26130778619208L25.506468474625112,195.19868599279226z" style="fill:rgb(83,212,212)"/><path d="M172.4810635640888,84.41503980792156L166.7871734595159,73.07096060652297L172.58222772256366,88.26931215264418z" style="fill:rgb(246,149,167)"/><path d="M77.1549532216511,84.20715601673L53.87373097145002,40.68302435608218L76.70854747078545,88.08046917747508z" style="fill:rgb(245,144,171)"/><path d="M166.70327948464228,69.20495245791666L172.1910797580041,80.61667883482974L166.42778323602144,65.39665897465149z" style="fill:rgb(247,152,163)"/><path d="M21.67517410832474,9.493315931553418L25.506468474625112,195.19868599279226L30.3814533880196,194.95921666471108z" style="fill:rgb(83,212,212)"/><path d="M29.27053612601158,114.52567798206843L0.2371226455438239,66.85012717856335L25.58067364978956,112.9513572329132z" style="fill:rgb(52,37,178)"/><path d="M165.31173545168636,57.97649296163943L166.42778323602144,65.39665897465149L165.96304883128622,61.651957968566755zM25.783550062543995,7.892538595034818L30.3814533880196,194.95921666471108L35.299769284440124,194.54233686847485z" style="fill:rgb(83,212,212)"/><path d="M-42.95071667578661,174.0292712527762L-30.95964708293323,189.982637396316L-39.976903190529775,176.44043371479896z" style="fill:rgb(37,44,164)"/><path d="M164.47681666310328,54.37567085568902L166.70327948464228,69.20495245791666L166.42778323602144,65.39665897465149z" style="fill:rgb(83,212,212)"/><path d="M-24.58694638723969,194.4454297147312L-36.84556472852004,178.72805863909755L-27.848570798785182,192.27775890858493z" style="fill:rgb(44,41,171)"/><path d="M172.58222772256366,88.26931215264418L166.6774496706854,76.98857823148028L172.49256475973556,92.17338623262022z" style="fill:rgb(246,145,170)"/><path d="M76.70854747078545,88.08046917747508L52.60347511788415,44.66653848030875L75.56389319030923,92.0102896202958z" style="fill:rgb(241,130,183)"/><path d="M163.4615260146246,50.85465185622258L166.7871734595159,73.07096060652297L166.70327948464228,69.20495245791666zM29.925170866166102,6.405948702779115L35.299769284440124,194.54233686847485L40.252089799999894,193.94800078605098z" style="fill:rgb(83,212,212)"/><path d="M166.7871734595159,73.07096060652297L172.4810635640888,84.41503980792156L166.70327948464228,69.20495245791666z" style="fill:rgb(246,149,167)"/><path d="M8.25687447922162,69.2961547787018L29.27053612601158,114.52567798206843L33.36215613731721,115.54151907149536z" style="fill:rgb(67,34,190)"/><path d="M34.095227793840564,5.035500612911065L40.252089799999894,193.94800078605098L45.22891841592343,193.17650866114786zM160.90409224241552,44.07145957537198L166.37240424908873,80.95148761461628L166.6774496706854,76.98857823148028z" style="fill:rgb(83,212,212)"/><path d="M-39.976903190529775,176.44043371479896L-27.848570798785182,192.27775890858493L-36.84556472852004,178.72805863909755z" style="fill:rgb(41,42,167)"/><path d="M-21.17902323490999,196.48064315675612L-33.56057389182541,180.8869882026785L-24.58694638723969,194.4454297147312z" style="fill:rgb(47,39,174)"/><path d="M163.4615260146246,50.85465185622258L166.6774496706854,76.98857823148028L166.7871734595159,73.07096060652297z" style="fill:rgb(83,212,212)"/><path d="M75.56389319030923,92.0102896202958L50.629427237204894,48.63084130240312L73.74176733386565,95.90529390784566z" style="fill:rgb(235,116,194)"/><path d="M172.49256475973556,92.17338623262022L166.37240424908873,80.95148761461628L172.21042985297615,96.12095976528737z" style="fill:rgb(245,142,173)"/><path d="M38.28886512525834,3.7830645321251644L45.22891841592343,193.17650866114786L50.22063207968694,192.2286340052799zM159.36963996652125,40.81837347779136L165.87071846246124,84.9531586915612L166.37240424908873,80.95148761461628z" style="fill:rgb(83,212,212)"/><path d="M166.6774496706854,76.98857823148028L172.58222772256366,88.26931215264418L166.7871734595159,73.07096060652297z" style="fill:rgb(246,145,170)"/><path d="M42.50119019141304,2.650422280480781L50.22063207968694,192.2286340052799L55.2174908828605,191.1055291993271z" style="fill:rgb(83,212,212)"/><path d="M12.817248875765678,69.63527242631038L33.36215613731721,115.54151907149536L37.76273179532943,115.97060887473968z" style="fill:rgb(83,32,200)"/><path d="M157.6702239267051,37.663272335887655L165.1714763469284,88.98685560054713L165.87071846246124,84.9531586915612z" style="fill:rgb(83,212,212)"/><path d="M-7.794065236973772,59.354726093134495L19.719786867776595,108.3037825898119L-5.7381255005791525,62.29103048788475z" style="fill:rgb(19,60,138)"/><path d="M73.74176733386565,95.90529390784566L47.992588987166165,52.48225954661274L71.27994312267948,99.6735872227741z" style="fill:rgb(226,102,203)"/><path d="M46.72725969951469,1.6392674414837793L55.2174908828605,191.1055291993271L60.209678798944125,189.80882991090826zM155.81016840698902,34.61007300205052L164.27408634560808,93.04568866346713L165.1714763469284,88.98685560054713z" style="fill:rgb(83,212,212)"/><path d="M-17.629420449518012,198.3786276209662L-30.12618361871144,182.91219479069844L-21.17902323490999,196.48064315675612z" style="fill:rgb(51,38,177)"/><path d="M-36.84556472852004,178.72805863909755L-24.58694638723969,194.4454297147312L-33.56057389182541,180.8869882026785z" style="fill:rgb(44,41,171)"/><path d="M172.21042985297615,96.12095976528737L165.87071846246124,84.9531586915612L171.73451912178902,100.10551944881155z" style="fill:rgb(244,138,176)"/><path d="M153.79404525402333,31.662455624351335L163.17843036330407,97.12255000937897L164.27408634560808,93.04568866346713zM0.22926084801051308,30.115504738737936L0.2371226455438239,66.85012717856335L3.8810964275844118,26.947903389535696zM50.962085189483176,0.7512020342047403L60.209678798944125,189.80882991090826L65.18733013982927,188.3405372852615z" style="fill:rgb(83,212,212)"/><path d="M17.607108227315848,69.36386307174786L37.76273179532943,115.97060887473968L42.37044513760935,115.7987888968134z" style="fill:rgb(100,32,208)"/><path d="M76.89932257232977,80.47872050379132L53.31799894758514,29.523768472370662L54.227772072336485,33.025274511735944z" style="fill:rgb(245,171,144)"/><path d="M71.27994312267948,99.6735872227741L44.751133178046864,56.12862131804007L68.23263638286527,103.22514741406651z" style="fill:rgb(215,88,211)"/><path d="M151.62653780651857,28.823844652409257L161.88476682061318,101.21021764785532L163.17843036330407,97.12255000937897zM-2.9568055723439644,33.57061867932976L0.2371226455438239,66.85012717856335L0.22926084801051308,30.115504738737936z" style="fill:rgb(83,212,212)"/><path d="M166.37240424908873,80.95148761461628L172.49256475973556,92.17338623262022L166.6774496706854,76.98857823148028z" style="fill:rgb(245,142,173)"/><path d="M-5.607862204485685,37.242166066909675L-3.0427555593731164,64.81019757615378L-2.9568055723439644,33.57061867932976zM3.8810964275844118,26.947903389535696L8.25687447922162,69.2961547787018L7.921045352449586,24.13269979777391zM59.43783070424066,-0.6497170527295032L65.18733013982927,188.3405372852615L70.1405693456844,186.70311924742157zM-7.664450343801185,41.053944436452554L-5.7381255005791525,62.29103048788475L-5.607862204485685,37.242166066909675zM149.3124858380355,26.097427792965153L160.39379161930847,105.30129342819909L161.88476682061318,101.21021764785532z" style="fill:rgb(83,212,212)"/><path d="M22.51372715827716,68.48480346382739L42.37044513760935,115.7987888968134L47.077047713603314,115.02679214224642z" style="fill:rgb(118,35,215)"/><path d="M59.43783070424066,-0.6497170527295032L70.1405693456844,186.70311924742157L75.05952110062049,184.89946975882597zM7.921045352449586,24.13269979777391L12.817248875765678,69.63527242631038L12.264430369566057,21.72762459959575zM-9.078219222314495,44.92583340187354L-7.794065236973772,59.354726093134495L-7.664450343801185,41.053944436452554z" style="fill:rgb(83,212,212)"/><path d="M68.23263638286527,103.22514741406651L40.97921839455228,59.48183274256918L64.66938831776733,106.47441797689015z" style="fill:rgb(202,76,217)"/><path d="M-5.7381255005791525,62.29103048788475L22.374188156034375,110.85981486711115L-3.0427555593731164,64.81019757615378z" style="fill:rgb(28,51,152)"/><path d="M-13.943132299849797,200.1347297989502L-26.547018323086494,184.79888359176573L-17.629420449518012,198.3786276209662z" style="fill:rgb(55,37,180)"/><path d="M63.66854347089497,-1.1598407713464602L75.05952110062049,184.89946975882597L79.93438096498446,182.93284609693106zM12.264430369566057,21.72762459959575L17.607108227315848,69.36386307174786L16.820974461814505,19.78239551883996z" style="fill:rgb(83,212,212)"/><path d="M27.42028013457741,67.01646054681972L47.077047713603314,115.02679214224642L51.77075194966359,113.67052509097009z" style="fill:rgb(136,39,219)"/><path d="M-33.56057389182541,180.8869882026785L-21.17902323490999,196.48064315675612L-30.12618361871144,182.91219479069844z" style="fill:rgb(47,39,174)"/><path d="M40.97921839455228,59.48183274256918L60.673402800022785,109.34276892235052L64.66938831776733,106.47441797689015z" style="fill:rgb(187,64,221)"/><path d="M-9.813184539884125,48.77514490523058L-9.171386411170896,56.07157985112175L-9.078219222314495,44.92583340187354z" style="fill:rgb(83,212,212)"/><path d="M171.73451912178902,100.10551944881155L165.1714763469284,88.98685560054713L171.0638865826515,104.12035258479007z" style="fill:rgb(243,134,180)"/><path d="M144.2647317845883,20.992732558256655L156.82490698601984,113.46356981962323L158.70664341537432,109.3882895451959z" style="fill:rgb(83,212,212)"/><path d="M32.209119146676684,64.99238765184701L51.77075194966359,113.67052509097009L56.33934725489899,111.76082053552598z" style="fill:rgb(154,46,222)"/><path d="M36.765161754889824,62.460514927051044L56.33934725489899,111.76082053552598L60.673402800022785,109.34276892235052z" style="fill:rgb(171,54,222)"/><path d="M149.3124858380355,26.097427792965153L158.70664341537432,109.3882895451959L160.39379161930847,105.30129342819909zM67.88761671990471,-1.5414202742746776L79.93438096498446,182.93284609693106L84.75540087674234,180.8069855791358zM16.820974461814505,19.78239551883996L22.51372715827716,68.48480346382739L21.496251195534953,18.337937581081068zM141.54129379334245,18.619651926880312L154.75062444921983,117.5194675482551L156.82490698601984,113.46356981962323z" style="fill:rgb(83,212,212)"/><path d="M77.1549532216511,84.20715601673L54.227772072336485,33.025274511735944L54.41696930029367,36.77288714513764z" style="fill:rgb(247,158,158)"/><path d="M72.08982736535256,-1.7933453039353147L84.75540087674234,180.8069855791358L89.51295984132324,178.52595919643645z" style="fill:rgb(83,212,212)"/><path d="M165.87071846246124,84.9531586915612L172.21042985297615,96.12095976528737L166.37240424908873,80.95148761461628z" style="fill:rgb(244,138,176)"/><path d="M138.69180627416995,16.369167712934832L152.48628720971698,121.5481902594872L154.75062444921983,117.5194675482551zM21.496251195534953,18.337937581081068L22.51372715827716,68.48480346382739L26.193177645332828,17.425684995534816zM76.26992538452376,-1.9146135163237041L89.51295984132324,178.52595919643645L94.19757415289475,176.09422478882774zM135.72160525715202,14.24331776622837L150.0348539159371,125.54195961998632L152.48628720971698,121.5481902594872zM-9.171386411170896,56.07157985112175L-9.813184539884125,48.77514490523058L-9.846885543478793,52.518114252066646zM132.63609529463895,12.24392773260174L147.39974826190186,129.49293674814822L150.0348539159371,125.54195961998632z" style="fill:rgb(83,212,212)"/><path d="M-10.125519215225381,201.74457919463887L-22.82808605150928,186.54238226910033L-13.943132299849797,200.1347297989502z" style="fill:rgb(58,35,183)"/><path d="M84.54255038737965,-1.7617340203505416L98.79993227768487,173.51663856545932L103.31093407527851,170.79840475804235z" style="fill:rgb(83,212,212)"/><path d="M-3.0427555593731164,64.81019757615378L25.58067364978956,112.9513572329132L0.2371226455438239,66.85012717856335z" style="fill:rgb(39,43,166)"/><path d="M129.44073697380625,10.372613162869497L144.58486540562743,133.3933062665358L147.39974826190186,129.49293674814822z" style="fill:rgb(83,212,212)"/><path d="M171.0638865826515,104.12035258479007L164.27408634560808,93.04568866346713L170.19795925100914,108.15859715731519z" style="fill:rgb(242,130,183)"/><path d="M-30.12618361871144,182.91219479069844L-17.629420449518012,198.3786276209662L-26.547018323086494,184.79888359176573z" style="fill:rgb(51,38,177)"/><path d="M84.54255038737965,-1.7617340203505416L94.19757415289475,176.09422478882774L98.79993227768487,173.51663856545932zM26.193177645332828,17.425684995534816L32.209119146676684,64.99238765184701L30.813564381768153,17.06696012118942z" style="fill:rgb(83,212,212)"/><path d="M53.87373097145002,40.68302435608218L77.1549532216511,84.20715601673L54.41696930029367,36.77288714513764z" style="fill:rgb(245,144,171)"/><path d="M-9.078219222314495,44.92583340187354L-9.171386411170896,56.07157985112175L-7.794065236973772,59.354726093134495zM122.74245665687994,7.01967480940668L138.4335785697158,141.011091150621L141.5945459024375,137.235271559842zM92.66263533587993,-1.077078434216799L107.72170919964726,167.9450241739524L112.02364442912945,164.96236188146523zM119.2506185034637,5.540298329373003L135.10724059566806,144.71311491446545L138.4335785697158,141.011091150621zM96.65191879585777,-0.5340964824823194L112.02364442912945,164.96236188146523L116.20844007888506,161.85655322039207zM92.66263533587993,-1.077078434216799L103.31093407527851,170.79840475804235L107.72170919964726,167.9450241739524zM115.67103844646775,4.193506813704L131.6211868620749,148.333761252258L135.10724059566806,144.71311491446545zM100.58675120108256,0.14305072670668875L116.20844007888506,161.85655322039207L120.2680646577274,158.63400921773322zM104.46160500763641,0.9544855350214044L120.2680646577274,158.63400921773322L124.1948787410835,155.30140114602156zM108.27097588496609,1.9001837614549597L124.1948787410835,155.30140114602156L127.9815666514445,151.86562429738382zM129.44073697380625,10.372613162869497L141.5945459024375,137.235271559842L144.58486540562743,133.3933062665358z" style="fill:rgb(83,212,212)"/><path d="M165.1714763469284,88.98685560054713L171.73451912178902,100.10551944881155L165.87071846246124,84.9531586915612z" style="fill:rgb(243,134,180)"/><path d="M30.813564381768153,17.06696012118942L36.765161754889824,62.460514927051044L35.259741462508416,17.272422401690566zM115.67103844646775,4.193506813704L127.9815666514445,151.86562429738382L131.6211868620749,148.333761252258zM-7.664450343801185,41.053944436452554L-7.794065236973772,59.354726093134495L-5.7381255005791525,62.29103048788475z" style="fill:rgb(83,212,212)"/><path d="M-6.182305528382432,203.20399334672447L-18.97477239930501,188.138304126125L-10.125519215225381,201.74457919463887z" style="fill:rgb(62,34,186)"/><path d="M170.19795925100914,108.15859715731519L163.17843036330407,97.12255000937897L169.13661381959926,112.2131821208937z" style="fill:rgb(240,127,186)"/><path d="M-26.547018323086494,184.79888359176573L-13.943132299849797,200.1347297989502L-22.82808605150928,186.54238226910033z" style="fill:rgb(55,37,180)"/><path d="M0.2371226455438239,66.85012717856335L29.27053612601158,114.52567798206843L4.031574025142333,68.3588289634003z" style="fill:rgb(52,37,178)"/><path d="M35.259741462508416,17.272422401690566L36.765161754889824,62.460514927051044L39.436251485992,18.041630131853267z" style="fill:rgb(83,212,212)"/><path d="M52.60347511788415,44.66653848030875L76.70854747078545,88.08046917747508L53.87373097145002,40.68302435608218z" style="fill:rgb(241,130,183)"/><path d="M-5.607862204485685,37.242166066909675L-5.7381255005791525,62.29103048788475L-3.0427555593731164,64.81019757615378z" style="fill:rgb(83,212,212)"/><path d="M164.27408634560808,93.04568866346713L171.0638865826515,104.12035258479007L165.1714763469284,88.98685560054713z" style="fill:rgb(242,130,183)"/><path d="M39.436251485992,18.041630131853267L40.97921839455228,59.48183274256918L43.251635900299384,19.36270606556822z" style="fill:rgb(83,212,212)"/><path d="M29.27053612601158,114.52567798206843L8.25687447922162,69.2961547787018L4.031574025142333,68.3588289634003z" style="fill:rgb(67,34,190)"/><path d="M-2.9568055723439644,33.57061867932976L-3.0427555593731164,64.81019757615378L0.2371226455438239,66.85012717856335z" style="fill:rgb(83,212,212)"/><path d="M169.13661381959926,112.2131821208937L161.88476682061318,101.21021764785532L167.8800926604256,116.27692574613039z" style="fill:rgb(239,123,189)"/><path d="M43.251635900299384,19.36270606556822L47.992588987166165,52.48225954661274L46.62030079271963,21.212161994810668z" style="fill:rgb(83,212,212)"/><path d="M-22.82808605150928,186.54238226910033L-10.125519215225381,201.74457919463887L-18.97477239930501,188.138304126125z" style="fill:rgb(58,35,183)"/><path d="M50.629427237204894,48.63084130240312L75.56389319030923,92.0102896202958L52.60347511788415,44.66653848030875z" style="fill:rgb(235,116,194)"/><path d="M-10.888413928152671,190.87091038063667L-6.182305528382432,203.20399334672447L-2.1195767289066536,204.50906660274507z" style="fill:rgb(66,34,189)"/><path d="M3.8810964275844118,26.947903389535696L0.2371226455438239,66.85012717856335L4.031574025142333,68.3588289634003zM46.62030079271963,21.212161994810668L50.629427237204894,48.63084130240312L49.464405685073004,23.554923217461337z" style="fill:rgb(83,212,212)"/><path d="M163.17843036330407,97.12255000937897L170.19795925100914,108.15859715731519L164.27408634560808,93.04568866346713z" style="fill:rgb(240,127,186)"/><path d="M33.36215613731721,115.54151907149536L12.817248875765678,69.63527242631038L8.25687447922162,69.2961547787018z" style="fill:rgb(83,32,200)"/><path d="M167.8800926604256,116.27692574613039L160.39379161930847,105.30129342819909L166.42905826794086,120.34247717175283z" style="fill:rgb(237,119,191)"/><path d="M3.8810964275844118,26.947903389535696L4.031574025142333,68.3588289634003L8.25687447922162,69.2961547787018z" style="fill:rgb(83,212,212)"/><path d="M47.992588987166165,52.48225954661274L73.74176733386565,95.90529390784566L50.629427237204894,48.63084130240312z" style="fill:rgb(226,102,203)"/><path d="M49.464405685073004,23.554923217461337L52.60347511788415,44.66653848030875L51.71582071341866,26.344549860452375z" style="fill:rgb(83,212,212)"/><path d="M-18.97477239930501,188.138304126125L-6.182305528382432,203.20399334672447L-14.992839428726183,189.58247141294706z" style="fill:rgb(62,34,186)"/><path d="M-6.667990128208136,191.9999845981419L-2.1195767289066536,204.50906660274507L2.056229964815933,205.6561129196684z" style="fill:rgb(71,33,192)"/><path d="M37.76273179532943,115.97060887473968L17.607108227315848,69.36386307174786L12.817248875765678,69.63527242631038z" style="fill:rgb(100,32,208)"/><path d="M7.921045352449586,24.13269979777391L8.25687447922162,69.2961547787018L12.817248875765678,69.63527242631038z" style="fill:rgb(83,212,212)"/><path d="M161.88476682061318,101.21021764785532L169.13661381959926,112.2131821208937L163.17843036330407,97.12255000937897z" style="fill:rgb(239,123,189)"/><path d="M51.71582071341866,26.344549860452375L53.87373097145002,40.68302435608218L53.31799894758514,29.523768472370662z" style="fill:rgb(83,212,212)"/><path d="M44.751133178046864,56.12862131804007L71.27994312267948,99.6735872227741L47.992588987166165,52.48225954661274z" style="fill:rgb(215,88,211)"/><path d="M-6.182305528382432,203.20399334672447L-10.888413928152671,190.87091038063667L-14.992839428726183,189.58247141294706z" style="fill:rgb(66,34,189)"/><path d="M166.42905826794086,120.34247717175283L158.70664341537432,109.3882895451959L164.7846459583331,124.40240160403705z" style="fill:rgb(235,115,194)"/><path d="M53.31799894758514,29.523768472370662L54.41696930029367,36.77288714513764L54.227772072336485,33.025274511735944zM12.264430369566057,21.72762459959575L12.817248875765678,69.63527242631038L17.607108227315848,69.36386307174786z" style="fill:rgb(83,212,212)"/><path d="M-2.3384113133503375,192.96633336873785L2.056229964815933,205.6561129196684L6.338333061030482,206.64177433729137z" style="fill:rgb(75,32,195)"/><path d="M42.37044513760935,115.7987888968134L22.51372715827716,68.48480346382739L17.607108227315848,69.36386307174786z" style="fill:rgb(118,35,215)"/><path d="M40.97921839455228,59.48183274256918L68.23263638286527,103.22514741406651L44.751133178046864,56.12862131804007z" style="fill:rgb(202,76,217)"/><path d="M16.820974461814505,19.78239551883996L17.607108227315848,69.36386307174786L22.51372715827716,68.48480346382739z" style="fill:rgb(83,212,212)"/><path d="M160.39379161930847,105.30129342819909L167.8800926604256,116.27692574613039L161.88476682061318,101.21021764785532z" style="fill:rgb(237,119,191)"/><path d="M47.077047713603314,115.02679214224642L27.42028013457741,67.01646054681972L22.51372715827716,68.48480346382739z" style="fill:rgb(136,39,219)"/><path d="M-2.1195767289066536,204.50906660274507L-6.667990128208136,191.9999845981419L-10.888413928152671,190.87091038063667z" style="fill:rgb(71,33,192)"/><path d="M164.7846459583331,124.40240160403705L156.82490698601984,113.46356981962323L162.9483617098784,128.44912306617888z" style="fill:rgb(233,112,197)"/><path d="M60.673402800022785,109.34276892235052L40.97921839455228,59.48183274256918L36.765161754889824,62.460514927051044z" style="fill:rgb(187,64,221)"/><path d="M51.77075194966359,113.67052509097009L32.209119146676684,64.99238765184701L27.42028013457741,67.01646054681972z" style="fill:rgb(154,46,222)"/><path d="M53.31799894758514,29.523768472370662L53.87373097145002,40.68302435608218L54.41696930029367,36.77288714513764z" style="fill:rgb(83,212,212)"/><path d="M56.33934725489899,111.76082053552598L36.765161754889824,62.460514927051044L32.209119146676684,64.99238765184701z" style="fill:rgb(171,54,222)"/><path d="M2.0931329841178528,193.76686761465137L6.338333061030482,206.64177433729137L10.719618989823942,207.46302242031558z" style="fill:rgb(79,32,197)"/><path d="M26.193177645332828,17.425684995534816L22.51372715827716,68.48480346382739L27.42028013457741,67.01646054681972zM51.71582071341866,26.344549860452375L52.60347511788415,44.66653848030875L53.87373097145002,40.68302435608218zM26.193177645332828,17.425684995534816L27.42028013457741,67.01646054681972L32.209119146676684,64.99238765184701zM49.464405685073004,23.554923217461337L50.629427237204894,48.63084130240312L52.60347511788415,44.66653848030875zM30.813564381768153,17.06696012118942L32.209119146676684,64.99238765184701L36.765161754889824,62.460514927051044z" style="fill:rgb(83,212,212)"/><path d="M158.70664341537432,109.3882895451959L166.42905826794086,120.34247717175283L160.39379161930847,105.30129342819909z" style="fill:rgb(235,115,194)"/><path d="M46.62030079271963,21.212161994810668L47.992588987166165,52.48225954661274L50.629427237204894,48.63084130240312z" style="fill:rgb(83,212,212)"/><path d="M162.9483617098784,128.44912306617888L154.75062444921983,117.5194675482551L160.92222580440364,132.47503900393136z" style="fill:rgb(230,108,199)"/><path d="M43.251635900299384,19.36270606556822L44.751133178046864,56.12862131804007L47.992588987166165,52.48225954661274z" style="fill:rgb(83,212,212)"/><path d="M2.056229964815933,205.6561129196684L-2.3384113133503375,192.96633336873785L-6.667990128208136,191.9999845981419z" style="fill:rgb(75,32,195)"/><path d="M6.61912399636477,194.3988462306762L10.719618989823942,207.46302242031558L15.19265290314776,208.1170522856834z" style="fill:rgb(83,32,200)"/><path d="M39.436251485992,18.041630131853267L36.765161754889824,62.460514927051044L40.97921839455228,59.48183274256918zM43.251635900299384,19.36270606556822L40.97921839455228,59.48183274256918L44.751133178046864,56.12862131804007z" style="fill:rgb(83,212,212)"/><path d="M156.82490698601984,113.46356981962323L164.7846459583331,124.40240160403705L158.70664341537432,109.3882895451959z" style="fill:rgb(233,112,197)"/><path d="M160.92222580440364,132.47503900393136L152.48628720971698,121.5481902594872L158.70866068834297,136.47242808095118z" style="fill:rgb(228,104,202)"/><path d="M6.338333061030482,206.64177433729137L2.0931329841178528,193.76686761465137L-2.3384113133503375,192.96633336873785z" style="fill:rgb(79,32,197)"/><path d="M11.23172648796028,194.85988869573302L15.19265290314776,208.1170522856834L19.749692314050176,208.6014941887786z" style="fill:rgb(88,32,202)"/><path d="M158.70866068834297,136.47242808095118L150.0348539159371,125.54195961998632L156.3105555617224,140.43358693039156z" style="fill:rgb(225,101,204)"/><path d="M154.75062444921983,117.5194675482551L162.9483617098784,128.44912306617888L156.82490698601984,113.46356981962323z" style="fill:rgb(230,108,199)"/><path d="M15.922805694814919,195.1479330334146L19.749692314050176,208.6014941887786L24.382709233385203,208.91427335204398z" style="fill:rgb(92,32,204)"/><path d="M10.719618989823942,207.46302242031558L6.61912399636477,194.3988462306762L2.0931329841178528,193.76686761465137z" style="fill:rgb(83,32,200)"/><path d="M156.3105555617224,140.43358693039156L147.39974826190186,129.49293674814822L153.7312652191141,144.35075752478934z" style="fill:rgb(223,97,206)"/><path d="M152.48628720971698,121.5481902594872L160.92222580440364,132.47503900393136L154.75062444921983,117.5194675482551z" style="fill:rgb(228,104,202)"/><path d="M20.68394609908191,195.26130778619208L24.382709233385203,208.91427335204398L29.083397202965156,209.05369948385123z" style="fill:rgb(97,32,206)"/><path d="M15.19265290314776,208.1170522856834L11.23172648796028,194.85988869573302L6.61912399636477,194.3988462306762z" style="fill:rgb(88,32,202)"/><path d="M153.7312652191141,144.35075752478934L144.58486540562743,133.3933062665358L150.97456781854567,148.21621018078386z" style="fill:rgb(220,94,208)"/><path d="M25.506468474625112,195.19868599279226L29.083397202965156,209.05369948385123L33.84320325516987,209.01842274627927z" style="fill:rgb(101,32,208)"/><path d="M150.0348539159371,125.54195961998632L158.70866068834297,136.47242808095118L152.48628720971698,121.5481902594872z" style="fill:rgb(225,101,204)"/><path d="M19.749692314050176,208.6014941887786L15.922805694814919,195.1479330334146L11.23172648796028,194.85988869573302z" style="fill:rgb(92,32,204)"/><path d="M150.97456781854567,148.21621018078386L141.5945459024375,137.235271559842L148.04473501888552,152.02223732702052z" style="fill:rgb(217,90,210)"/><path d="M30.3814533880196,194.95921666471108L33.84320325516987,209.01842274627927L38.653340809419156,208.8075632640888z" style="fill:rgb(106,33,210)"/><path d="M147.39974826190186,129.49293674814822L156.3105555617224,140.43358693039156L150.0348539159371,125.54195961998632z" style="fill:rgb(223,97,206)"/><path d="M24.382709233385203,208.91427335204398L20.68394609908191,195.26130778619208L15.922805694814919,195.1479330334146z" style="fill:rgb(97,32,206)"/><path d="M148.04473501888552,152.02223732702052L138.4335785697158,141.011091150621L144.94644888546935,155.7611908405339z" style="fill:rgb(213,87,212)"/><path d="M35.299769284440124,194.54233686847485L38.653340809419156,208.8075632640888L43.50481323009093,208.42052443380658z" style="fill:rgb(111,33,212)"/><path d="M144.58486540562743,133.3933062665358L153.7312652191141,144.35075752478934L147.39974826190186,129.49293674814822z" style="fill:rgb(220,94,208)"/><path d="M144.94644888546935,155.7611908405339L135.10724059566806,144.71311491446545L141.68484083708006,159.4255173934044z" style="fill:rgb(210,83,213)"/><path d="M29.083397202965156,209.05369948385123L25.506468474625112,195.19868599279226L20.68394609908191,195.26130778619208z" style="fill:rgb(101,32,208)"/><path d="M40.252089799999894,193.94800078605098L43.50481323009093,208.42052443380658L48.38844219605722,207.85722066071475z" style="fill:rgb(115,34,214)"/><path d="M141.68484083708006,159.4255173934044L131.6211868620749,148.333761252258L138.26548058907866,163.00773565145894z" style="fill:rgb(207,80,215)"/><path d="M141.5945459024375,137.235271559842L150.97456781854567,148.21621018078386L144.58486540562743,133.3933062665358z" style="fill:rgb(217,90,210)"/><path d="M45.22891841592343,193.17650866114786L48.38844219605722,207.85722066071475L53.2948939054747,207.11790703386652z" style="fill:rgb(120,35,215)"/><path d="M33.84320325516987,209.01842274627927L30.3814533880196,194.95921666471108L25.506468474625112,195.19868599279226z" style="fill:rgb(106,33,210)"/><path d="M138.26548058907866,163.00773565145894L127.9815666514445,151.86562429738382L134.69434333857072,166.5005407811264z" style="fill:rgb(203,77,216)"/><path d="M50.22063207968694,192.2286340052799L53.2948939054747,207.11790703386652L58.21470018108832,206.20330645148314z" style="fill:rgb(125,36,217)"/><path d="M138.4335785697158,141.011091150621L148.04473501888552,152.02223732702052L141.5945459024375,137.235271559842z" style="fill:rgb(213,87,212)"/><path d="M38.653340809419156,208.8075632640888L35.299769284440124,194.54233686847485L30.3814533880196,194.95921666471108z" style="fill:rgb(111,33,212)"/><path d="M134.69434333857072,166.5005407811264L124.1948787410835,155.30140114602156L130.97781634437214,169.8967348054764z" style="fill:rgb(199,74,217)"/><path d="M55.2174908828605,191.1055291993271L58.21470018108832,206.20330645148314L63.138291946878105,205.11451524574778z" style="fill:rgb(129,37,218)"/><path d="M135.10724059566806,144.71311491446545L144.94644888546935,155.7611908405339L138.4335785697158,141.011091150621z" style="fill:rgb(210,83,213)"/><path d="M130.97781634437214,169.8967348054764L120.2680646577274,158.63400921773322L127.122691114468,173.1893400837515z" style="fill:rgb(196,71,219)"/><path d="M43.50481323009093,208.42052443380658L40.252089799999894,193.94800078605098L35.299769284440124,194.54233686847485z" style="fill:rgb(115,34,214)"/><path d="M60.209678798944125,189.80882991090826L63.138291946878105,205.11451524574778L68.0560270928132,203.85310705276612z" style="fill:rgb(134,39,219)"/><path d="M127.122691114468,173.1893400837515L116.20844007888506,161.85655322039207L123.13609685360987,176.3715677257189z" style="fill:rgb(192,68,220)"/><path d="M65.18733013982927,188.3405372852615L68.0560270928132,203.85310705276612L72.9582184736024,202.4210162967335z" style="fill:rgb(139,40,220)"/><path d="M131.6211868620749,148.333761252258L141.68484083708006,159.4255173934044L135.10724059566806,144.71311491446545z" style="fill:rgb(207,80,215)"/><path d="M116.20844007888506,161.85655322039207L119.02554938029952,179.43685308796975L123.13609685360987,176.3715677257189z" style="fill:rgb(188,65,220)"/><path d="M48.38844219605722,207.85722066071475L45.22891841592343,193.17650866114786L40.252089799999894,193.94800078605098z" style="fill:rgb(120,35,215)"/><path d="M70.1405693456844,186.70311924742157L72.9582184736024,202.4210162967335L77.83516808542612,200.82063871944294z" style="fill:rgb(143,42,221)"/><path d="M112.02364442912945,164.96236188146523L114.79887098476505,182.37889170074465L119.02554938029952,179.43685308796975z" style="fill:rgb(183,62,221)"/><path d="M75.05952110062049,184.89946975882597L77.83516808542612,200.82063871944294L82.67720120158016,199.05479083384887z" style="fill:rgb(148,44,221)"/><path d="M107.72170919964726,167.9450241739524L110.46421618690309,185.19165315154612L114.79887098476505,182.37889170074465z" style="fill:rgb(179,59,222)"/><path d="M127.9815666514445,151.86562429738382L138.26548058907866,163.00773565145894L131.6211868620749,148.333761252258z" style="fill:rgb(203,77,216)"/><path d="M79.93438096498446,182.93284609693106L82.67720120158016,199.05479083384887L87.47468138107222,197.12664884748426z" style="fill:rgb(153,46,222)"/><path d="M53.2948939054747,207.11790703386652L50.22063207968694,192.2286340052799L45.22891841592343,193.17650866114786z" style="fill:rgb(125,36,217)"/><path d="M103.31093407527851,170.79840475804235L106.03000924284315,187.8693774216829L110.46421618690309,185.19165315154612z" style="fill:rgb(175,57,222)"/><path d="M84.75540087674234,180.8069855791358L87.47468138107222,197.12664884748426L92.21806451996756,195.03986250115366z" style="fill:rgb(157,48,222)"/><path d="M98.79993227768487,173.51663856545932L101.50493733909033,190.40666551974638L106.03000924284315,187.8693774216829z" style="fill:rgb(171,54,222)"/><path d="M89.51295984132324,178.52595919643645L92.21806451996756,195.03986250115366L96.89791470078296,192.79841355247368z" style="fill:rgb(162,50,222)"/><path d="M94.19757415289475,176.09422478882774L96.89791470078296,192.79841355247368L101.50493733909033,190.40666551974638z" style="fill:rgb(166,52,222)"/><path d="M124.1948787410835,155.30140114602156L134.69434333857072,166.5005407811264L127.9815666514445,151.86562429738382z" style="fill:rgb(199,74,217)"/><path d="M58.21470018108832,206.20330645148314L55.2174908828605,191.1055291993271L50.22063207968694,192.2286340052799z" style="fill:rgb(129,37,218)"/><path d="M120.2680646577274,158.63400921773322L130.97781634437214,169.8967348054764L124.1948787410835,155.30140114602156z" style="fill:rgb(196,71,219)"/><path d="M63.138291946878105,205.11451524574778L60.209678798944125,189.80882991090826L55.2174908828605,191.1055291993271z" style="fill:rgb(134,39,219)"/><path d="M116.20844007888506,161.85655322039207L127.122691114468,173.1893400837515L120.2680646577274,158.63400921773322z" style="fill:rgb(192,68,220)"/><path d="M68.0560270928132,203.85310705276612L65.18733013982927,188.3405372852615L60.209678798944125,189.80882991090826z" style="fill:rgb(139,40,220)"/><path d="M72.9582184736024,202.4210162967335L70.1405693456844,186.70311924742157L65.18733013982927,188.3405372852615z" style="fill:rgb(143,42,221)"/><path d="M119.02554938029952,179.43685308796975L116.20844007888506,161.85655322039207L112.02364442912945,164.96236188146523z" style="fill:rgb(188,65,220)"/><path d="M77.83516808542612,200.82063871944294L75.05952110062049,184.89946975882597L70.1405693456844,186.70311924742157z" style="fill:rgb(148,44,221)"/><path d="M114.79887098476505,182.37889170074465L112.02364442912945,164.96236188146523L107.72170919964726,167.9450241739524z" style="fill:rgb(183,62,221)"/><path d="M82.67720120158016,199.05479083384887L79.93438096498446,182.93284609693106L75.05952110062049,184.89946975882597z" style="fill:rgb(153,46,222)"/><path d="M110.46421618690309,185.19165315154612L107.72170919964726,167.9450241739524L103.31093407527851,170.79840475804235z" style="fill:rgb(179,59,222)"/><path d="M87.47468138107222,197.12664884748426L84.75540087674234,180.8069855791358L79.93438096498446,182.93284609693106z" style="fill:rgb(157,48,222)"/><path d="M106.03000924284315,187.8693774216829L103.31093407527851,170.79840475804235L98.79993227768487,173.51663856545932z" style="fill:rgb(175,57,222)"/><path d="M92.21806451996756,195.03986250115366L89.51295984132324,178.52595919643645L84.75540087674234,180.8069855791358z" style="fill:rgb(162,50,222)"/><path d="M101.50493733909033,190.40666551974638L98.79993227768487,173.51663856545932L94.19757415289475,176.09422478882774z" style="fill:rgb(171,54,222)"/><path d="M96.89791470078296,192.79841355247368L94.19757415289475,176.09422478882774L89.51295984132324,178.52595919643645z" style="fill:rgb(166,52,222)"/><path d="M55.34347567622491,-180.92165088162602L128.18089967814075,4.433119314244313L126.90207805893145,1.0521158517678009z" style="fill:rgb(245,173,142)"/><path d="M-70.05867456134983,108.1661119642928L-178.71936853935932,-58.847407177404456L-72.15464969463362,105.20647001120606z" style="fill:rgb(22,56,144)"/><path d="M56.54008700980944,-177.72706459694683L129.24808370898128,7.918670669818343L128.18089967814075,4.433119314244313z" style="fill:rgb(246,169,146)"/><path d="M-67.75562360929725,111.01113064215681L-176.71084367651358,-56.06938463349048L-70.05867456134983,108.1661119642928z" style="fill:rgb(25,53,148)"/><path d="M57.48959351199672,-174.4045558307223L130.099031543226,11.502394833220087L129.24808370898128,7.918670669818343z" style="fill:rgb(246,165,151)"/><path d="M-65.24822728404011,113.73412227340724L-174.45518023518193,-53.42129878700242L-67.75562360929725,111.01113064215681z" style="fill:rgb(28,51,152)"/><path d="M58.18675834618812,-170.95973448084789L130.72953355313354,15.177545345615892L130.099031543226,11.502394833220087z" style="fill:rgb(247,161,155)"/><path d="M-62.53975920952737,116.32778076165275L-171.95414074473695,-50.91061234016287L-65.24822728404011,113.73412227340724z" style="fill:rgb(31,48,156)"/><path d="M130.72953355313354,15.177545345615892L58.80552756127369,-163.727660801704L131.13583514593998,18.937014413420464z" style="fill:rgb(247,157,159)"/><path d="M-59.63406847399733,118.78502279684793L-169.21014414269393,-48.5446359594105L-62.53975920952737,116.32778076165275z" style="fill:rgb(35,46,161)"/><path d="M131.13583514593998,18.937014413420464L58.71921929296243,-159.95379611694636L131.31465574995923,22.77333485271603z" style="fill:rgb(247,153,163)"/><path d="M-56.53555752924944,121.09888955815552L-166.2262554335104,-46.330494019468624L-59.63406847399733,118.78502279684793z" style="fill:rgb(38,44,165)"/><path d="M131.31465574995923,22.77333485271603L58.36480238882523,-156.08435577165278L131.26319814046414,26.678695809913062z" style="fill:rgb(246,149,167)"/><path d="M-53.24919753634955,123.26268634380445L-163.00628880532528,-44.27510543316035L-56.53555752924944,121.09888955815552z" style="fill:rgb(42,42,168)"/><path d="M131.26319814046414,26.678695809913062L57.73984312140021,-152.12710160969698L130.97920668258885,30.64495307314991z" style="fill:rgb(246,144,171)"/><path d="M-49.780557029419725,125.26994505905532L-159.554685557402,-42.3851302558364L-53.24919753634955,123.26268634380445z" style="fill:rgb(46,40,172)"/><path d="M130.97920668258885,30.64495307314991L56.84255288803342,-148.09022862229833L130.46097642232047,34.66364411610203z" style="fill:rgb(245,140,174)"/><path d="M-46.13578406225063,127.11447732408412L-155.87669002791313,-40.66695769857582L-49.780557029419725,125.26994505905532z" style="fill:rgb(50,38,176)"/><path d="M130.46097642232047,34.66364411610203L55.671861994772115,-143.98233434060464L129.70740178804036,38.72600044076368z" style="fill:rgb(243,136,178)"/><path d="M-42.32159073077007,128.7904187666028L-151.97821412911193,-39.126647571419085L-46.13578406225063,127.11447732408412z" style="fill:rgb(54,37,180)"/><path d="M129.70740178804036,38.72600044076368L54.227439215201485,-139.81237593927676L128.71793399531384,42.82297858464302z" style="fill:rgb(242,131,182)"/><path d="M-38.34528556152675,130.29223373471095L-147.865939225322,-37.76991600210857L-42.32159073077007,128.7904187666028z" style="fill:rgb(58,35,183)"/><path d="M128.71793399531384,42.82297858464302L52.50971281796419,-135.58971536616306L127.49270814260716,46.94527335006637z" style="fill:rgb(240,127,185)"/><path d="M-34.21474569104751,131.61476074315894L-143.54731166507963,-36.60208858075929L-38.34528556152675,130.29223373471095z" style="fill:rgb(63,34,187)"/><path d="M127.49270814260716,46.94527335006637L50.51989945075452,-131.32404510821263L126.03246868212548,51.08333613858611z" style="fill:rgb(239,123,189)"/><path d="M-134.3243634993236,-34.85228058488538L-34.21474569104751,131.61476074315894L-29.938406255797812,132.75323830491135z" style="fill:rgb(67,33,190)"/><path d="M126.03246868212548,51.08333613858611L48.2600372698102,-127.02539434843466L124.33862247882028,55.22743067131408z" style="fill:rgb(236,119,192)"/><path d="M-129.43860519046683,-34.27869920536555L-29.938406255797812,132.75323830491135L-25.52525171210905,133.70332971704454z" style="fill:rgb(72,33,193)"/><path d="M124.33862247882028,55.22743067131408L45.7330009248347,-122.70404688070576L122.41326232523016,59.36761835881227z" style="fill:rgb(234,114,195)"/><path d="M-157.00715166862634,-144.79133980147662L-171.95414074473695,-50.91061234016287L-153.62741652017255,-148.40642045321763zM-160.23114039626228,-141.13005025429695L-174.45518023518193,-53.42129878700242L-157.00715166862634,-144.79133980147662zM-153.62741652017255,-148.40642045321763L-169.21014414269393,-48.5446359594105L-150.09841066453808,-151.96983472597265zM-163.29301090466373,-137.42818690127223L-176.71084367651358,-56.06938463349048L-160.23114039626228,-141.13005025429695zM-150.09841066453808,-151.96983472597265L-166.2262554335104,-46.330494019468624L-146.42671896224095,-155.47625323234234zM-166.186460783444,-133.69148644340484L-178.71936853935932,-58.847407177404456L-163.29301090466373,-137.42818690127223zM-146.42671896224095,-155.47625323234234L-163.00628880532528,-44.27510543316035L-142.61896687782806,-158.9205061671532z" style="fill:rgb(83,212,212)"/><path d="M-124.38355541667185,-33.910748147162174L-25.52525171210905,133.70332971704454L-20.984796920505126,134.4611798271343z" style="fill:rgb(77,32,196)"/><path d="M-168.90530672173196,-129.92584608208043L-180.47961366116868,-61.7477901680026L-166.186460783444,-133.69148644340484zM-142.61896687782806,-158.9205061671532L-159.554685557402,-42.3851302558364L-138.68187157541652,-162.2975135268482zM-171.44350027082518,-126.13732391317711L-181.99102742933198,-64.76284604672976L-168.90530672173196,-129.92584608208043zM-138.68187157541652,-162.2975135268482L-155.87669002791313,-40.66695769857582L-134.6222012277588,-165.6023725180509zM-173.79511587361154,-122.33211065369538L-183.25365612689703,-67.88485045985205L-171.44350027082518,-126.13732391317711zM-134.6222012277588,-165.6023725180509L-151.97821412911193,-39.126647571419085L-130.44678476005873,-168.8302750488196z" style="fill:rgb(83,212,212)"/><path d="M122.41326232523016,59.36761835881227L42.94251531362715,-118.3705846814829L120.25917544941925,63.49383375206079z" style="fill:rgb(232,110,198)"/><path d="M-175.9543696525177,-118.51653839416562L-184.2680645342986,-71.1060111014043L-173.79511587361154,-122.33211065369538zM-130.44678476005873,-168.8302750488196L-147.865939225322,-37.76991600210857L-126.16253571276853,-171.97657365507197zM-126.16253571276853,-171.97657365507197L-143.54731166507963,-36.60208858075929L-121.77640483675006,-175.03672335536467zM-177.91564772257036,-114.69709669587915L-185.0353615088284,-74.41854132187481L-175.9543696525177,-118.51653839416562z" style="fill:rgb(83,212,212)"/><path d="M-119.17026920704548,-33.75129971975L-20.984796920505126,134.4611798271343L-16.327068497958226,135.0234083661335z" style="fill:rgb(82,32,199)"/><path d="M-121.77640483675006,-175.03672335536467L-139.03047649816236,-35.62806195788776L-117.2953954627088,-178.00630603012132z" style="fill:rgb(83,212,212)"/><path d="M128.18089967814075,4.433119314244313L55.34347567622491,-180.92165088162602L56.54008700980944,-177.72706459694683z" style="fill:rgb(245,173,142)"/><path d="M-179.673526112209,-110.8804266722487L-185.55713298810355,-77.81464680684331L-177.91564772257036,-114.69709669587915zM-117.2953954627088,-178.00630603012132L-134.3243634993236,-34.85228058488538L-112.72655930403523,-180.88100349686815zM-181.22274872703895,-107.07329188993283L-185.83542079899007,-81.28655839364085L-179.673526112209,-110.8804266722487z" style="fill:rgb(83,212,212)"/><path d="M120.25917544941925,63.49383375206079L39.89316415573074,-114.03580383983457L117.87984152183816,67.5958816255724z" style="fill:rgb(229,106,201)"/><path d="M-112.72655930403523,-180.88100349686815L-129.43860519046683,-34.27869920536555L-108.077025907127,-183.65665639138007z" style="fill:rgb(83,212,212)"/><path d="M-178.71936853935932,-58.847407177404456L-70.05867456134983,108.1661119642928L-176.71084367651358,-56.06938463349048z" style="fill:rgb(22,56,144)"/><path d="M-182.55830099747718,-103.28259548933342L-185.8727231260468,-84.8265585265342L-181.22274872703895,-107.07329188993283z" style="fill:rgb(83,212,212)"/><path d="M-113.81049147267548,-33.802644745886546L-16.327068497958226,135.0234083661335L-11.562576904503237,135.38712405309442z" style="fill:rgb(87,32,202)"/><path d="M-108.077025907127,-183.65665639138007L-124.38355541667185,-33.910748147162174L-103.35395844047103,-186.32920661675948zM-183.67537376748285,-99.51539832602194L-185.67193411979832,-88.42697859703884L-182.55830099747718,-103.28259548933342zM-103.35395844047103,-186.32920661675948L-119.17026920704548,-33.75129971975L-98.5645832973867,-188.89464141544076z" style="fill:rgb(83,212,212)"/><path d="M117.87984152183816,67.5958816255724L36.590408132406374,-109.71068617495806L115.27943720714143,71.66350724338177z" style="fill:rgb(226,102,203)"/><path d="M129.24808370898128,7.918670669818343L56.54008700980944,-177.72706459694683L57.48959351199672,-174.4045558307223z" style="fill:rgb(246,169,146)"/><path d="M-185.23629996048527,-92.08024625307034L-183.67537376748285,-99.51539832602194L-184.56945743361214,-95.77884960742884zM-98.5645832973867,-188.89464141544076L-113.81049147267548,-33.802644745886546L-93.71617130212971,-191.3491695682405z" style="fill:rgb(83,212,212)"/><path d="M-108.31657872159707,-34.06646784498472L-11.562576904503237,135.38712405309442L-6.702294752404416,135.55000886881137z" style="fill:rgb(92,32,204)"/><path d="M-93.71617130212971,-191.3491695682405L-108.31657872159707,-34.06646784498472L-88.81606766826282,-193.68904199024854z" style="fill:rgb(83,212,212)"/><path d="M-176.71084367651358,-56.06938463349048L-67.75562360929725,111.01113064215681L-174.45518023518193,-53.42129878700242z" style="fill:rgb(25,53,148)"/><path d="M115.27943720714143,71.66350724338177L33.04056563379435,-105.40636077336433L112.46283820975906,75.6864073061439z" style="fill:rgb(223,98,206)"/><path d="M-88.81606766826282,-193.68904199024854L-102.7015261581162,-34.54381669748292L-83.87164679852359,-195.91064392302883zM-183.67537376748285,-99.51539832602194L-185.23629996048527,-92.08024625307034L-185.67193411979832,-88.42697859703884z" style="fill:rgb(83,212,212)"/><path d="M-102.7015261581162,-34.54381669748292L-6.702294752404416,135.55000886881137L-1.7576176672411812,135.5102776269839z" style="fill:rgb(98,32,207)"/><path d="M-83.87164679852359,-195.91064392302883L-96.97888545528203,-35.23509095142213L-78.89037670189843,-198.01042554516386z" style="fill:rgb(83,212,212)"/><path d="M130.099031543226,11.502394833220087L57.48959351199672,-174.4045558307223L58.18675834618812,-170.95973448084789z" style="fill:rgb(246,165,151)"/><path d="M112.46283820975906,75.6864073061439L29.25083779885498,-101.13405426059339L109.43563776568955,79.65427245255354z" style="fill:rgb(219,93,208)"/><path d="M-182.55830099747718,-103.28259548933342L-185.67193411979832,-88.42697859703884L-185.8727231260468,-84.8265585265342z" style="fill:rgb(83,212,212)"/><path d="M-96.97888545528203,-35.23509095142213L-1.7576176672411812,135.5102776269839L3.2596641097543637,135.26673916551647z" style="fill:rgb(103,32,209)"/><path d="M-78.89037670189843,-198.01042554516386L-91.16273943370517,-36.14001617059548L-73.87976793164447,-199.98501389977363z" style="fill:rgb(83,212,212)"/><path d="M-174.45518023518193,-53.42129878700242L-65.24822728404011,113.73412227340724L-171.95414074473695,-50.91061234016287z" style="fill:rgb(28,51,152)"/><path d="M-181.22274872703895,-107.07329188993283L-185.8727231260468,-84.8265585265342L-185.83542079899007,-81.28655839364085z" style="fill:rgb(83,212,212)"/><path d="M109.43563776568955,79.65427245255354L25.229269031443092,-96.90505506420872L106.20410249174246,83.55684326998495z" style="fill:rgb(216,89,210)"/><path d="M-73.87976793164447,-199.98501389977363L-85.26764998236003,-37.25762904229405L-68.84738722610346,-201.8311052646649z" style="fill:rgb(83,212,212)"/><path d="M-91.16273943370517,-36.14001617059548L3.2596641097543637,135.26673916551647L8.337407310119497,134.81878355085678z" style="fill:rgb(108,33,211)"/><path d="M-179.673526112209,-110.8804266722487L-185.83542079899007,-81.28655839364085L-185.55713298810355,-77.81464680684331zM-68.84738722610346,-201.8311052646649L-79.30859525198989,-38.58628516142884L-63.80089020665194,-203.54549906404188z" style="fill:rgb(83,212,212)"/><path d="M130.72953355313354,15.177545345615892L58.18675834618812,-170.95973448084789L58.626813963663395,-167.3986051400257z" style="fill:rgb(247,161,155)"/><path d="M106.20410249174246,83.55684326998495L20.98475300268197,-92.7306668642182L102.77519460468834,87.38392981063343z" style="fill:rgb(212,86,212)"/><path d="M-85.26764998236003,-37.25762904229405L8.337407310119497,134.81878355085678L13.463155610016125,134.16639774933623z" style="fill:rgb(113,34,213)"/><path d="M-63.80089020665194,-203.54549906404188L-73.30092320878431,-40.12362253855217L-58.747971651904706,-205.12515421605056zM-177.91564772257036,-114.69709669587915L-185.55713298810355,-77.81464680684331L-185.0353615088284,-74.41854132187481z" style="fill:rgb(83,212,212)"/><path d="M-171.95414074473695,-50.91061234016287L-62.53975920952737,116.32778076165275L-169.21014414269393,-48.5446359594105z" style="fill:rgb(31,48,156)"/><path d="M102.77519460468834,87.38392981063343L16.527006640486,-88.62215856639779L99.15652920701241,91.12548389389879z" style="fill:rgb(208,82,214)"/><path d="M-58.747971651904706,-205.12515421605056L-67.26029113672196,-41.866595609506106L-53.696409251845026,-206.567103850627z" style="fill:rgb(83,212,212)"/><path d="M-79.30859525198989,-38.58628516142884L13.463155610016125,134.16639774933623L18.624184752282197,133.3102106585236z" style="fill:rgb(119,35,215)"/><path d="M-175.9543696525177,-118.51653839416562L-185.0353615088284,-74.41854132187481L-184.2680645342986,-71.1060111014043z" style="fill:rgb(83,212,212)"/><path d="M58.80552756127369,-163.727660801704L130.72953355313354,15.177545345615892L58.626813963663395,-167.3986051400257z" style="fill:rgb(247,157,159)"/><path d="M99.15652920701241,91.12548389389879L11.86653535217151,-84.59070082004988L95.35638221697813,94.77159639932873z" style="fill:rgb(204,78,216)"/><path d="M-53.696409251845026,-206.567103850627L-61.20259182456196,-43.8114519066031L-48.6540498325519,-207.86853580003657z" style="fill:rgb(83,212,212)"/><path d="M-73.30092320878431,-40.12362253855217L18.624184752282197,133.3102106585236L23.807547717610692,132.25146181081598z" style="fill:rgb(124,36,216)"/><path d="M-173.79511587361154,-122.33211065369538L-184.2680645342986,-71.1060111014043L-183.25365612689703,-67.88485045985205z" style="fill:rgb(83,212,212)"/><path d="M95.35638221697813,94.77159639932873L7.014612201684085,-80.64733530106157L91.38364963181581,98.31257989935158z" style="fill:rgb(200,74,217)"/><path d="M-48.6540498325519,-207.86853580003657L-55.1438894190817,-45.953745361851226L-43.62880275091073,-209.02670793377345z" style="fill:rgb(83,212,212)"/><path d="M-67.26029113672196,-41.866595609506106L23.807547717610692,132.25146181081598L29.000123719243792,130.99203141592284z" style="fill:rgb(130,38,218)"/><path d="M-169.21014414269393,-48.5446359594105L-59.63406847399733,118.78502279684793L-166.2262554335104,-46.330494019468624z" style="fill:rgb(35,46,161)"/><path d="M91.38364963181581,98.31257989935158L1.9832331751770518,-76.8029011942911L87.24781158342388,101.73900224795291z" style="fill:rgb(196,71,219)"/><path d="M-61.20259182456196,-43.8114519066031L29.000123719243792,130.99203141592284L34.18866989152815,129.53441536440127z" style="fill:rgb(135,39,219)"/><path d="M-171.44350027082518,-126.13732391317711L-183.25365612689703,-67.88485045985205L-181.99102742933198,-64.76284604672976zM-43.62880275091073,-209.02670793377345L-49.10034894984564,-48.28836548482801L-38.628651120305925,-210.03907295413995z" style="fill:rgb(83,212,212)"/><path d="M58.71921929296243,-159.95379611694636L131.13583514593998,18.937014413420464L58.80552756127369,-163.727660801704z" style="fill:rgb(247,153,163)"/><path d="M87.24781158342388,101.73900224795291L-3.2149231994913223,-73.06802137804095L82.95893376008657,105.04170344313567z" style="fill:rgb(191,67,220)"/><path d="M-55.1438894190817,-45.953745361851226L34.18866989152815,129.53441536440127L39.35987253680443,127.88173613838752z" style="fill:rgb(141,41,220)"/><path d="M-3.2149231994913223,-73.06802137804095L78.52759110288875,108.21187243795698L82.95893376008657,105.04170344313567z" style="fill:rgb(187,64,221)"/><path d="M-38.628651120305925,-210.03907295413995L-43.08817272288025,-50.8095241529342L-33.661647369163546,-210.90317907166462z" style="fill:rgb(83,212,212)"/><path d="M-49.10034894984564,-48.28836548482801L39.35987253680443,127.88173613838752L44.50040621089296,126.03775652469298z" style="fill:rgb(146,43,221)"/><path d="M-8.566546650066725,-69.45300610495794L73.96486498680771,111.24105427253491L78.52759110288875,108.21187243795698z" style="fill:rgb(182,61,221)"/><path d="M-168.90530672173196,-129.92584608208043L-181.99102742933198,-64.76284604672976L-180.47961366116868,-61.7477901680026z" style="fill:rgb(83,212,212)"/><path d="M-43.08817272288025,-50.8095241529342L44.50040621089296,126.03775652469298L49.59698132035736,124.00682065893486z" style="fill:rgb(151,45,222)"/><path d="M-14.057746054235642,-65.9678395395271L69.28228175420722,114.1212035499071L73.96486498680771,111.24105427253491z" style="fill:rgb(177,58,222)"/><path d="M-37.12351772380463,-53.51080460160833L49.59698132035736,124.00682065893486L54.63639984861966,121.79389390352836z" style="fill:rgb(156,47,222)"/><path d="M-19.67410794237148,-62.62211405009131L64.49177265784651,116.8447301310973L69.28228175420722,114.1212035499071z" style="fill:rgb(172,55,222)"/><path d="M-31.222428711257063,-56.385166666916035L54.63639984861966,121.79389390352836L59.60561321675282,119.40450754888799z" style="fill:rgb(162,50,222)"/><path d="M-25.40075992258781,-59.424998621672316L59.60561321675282,119.40450754888799L64.49177265784651,116.8447301310973z" style="fill:rgb(167,52,222)"/><path d="M-166.2262554335104,-46.330494019468624L-56.53555752924944,121.09888955815552L-163.00628880532528,-44.27510543316035z" style="fill:rgb(38,44,165)"/><path d="M-33.661647369163546,-210.90317907166462L-37.12351772380463,-53.51080460160833L-28.735912098647027,-211.61671215858053zM-166.186460783444,-133.69148644340484L-180.47961366116868,-61.7477901680026L-178.71936853935932,-58.847407177404456z" style="fill:rgb(83,212,212)"/><path d="M58.36480238882523,-156.08435577165278L131.31465574995923,22.77333485271603L58.71921929296243,-159.95379611694636z" style="fill:rgb(246,149,167)"/><path d="M-28.735912098647027,-211.61671215858053L-31.222428711257063,-56.385166666916035L-23.85963008471655,-212.17750027986708zM-23.85963008471655,-212.17750027986708L-25.40075992258781,-59.424998621672316L-19.04105468210795,-212.5835643491507zM-163.29301090466373,-137.42818690127223L-178.71936853935932,-58.847407177404456L-176.71084367651358,-56.06938463349048z" style="fill:rgb(83,212,212)"/><path d="M-163.00628880532528,-44.27510543316035L-53.24919753634955,123.26268634380445L-159.554685557402,-42.3851302558364z" style="fill:rgb(42,42,168)"/><path d="M-19.04105468210795,-212.5835643491507L-19.67410794237148,-62.62211405009131L-14.288500142619593,-212.8330420251107z" style="fill:rgb(83,212,212)"/><path d="M57.73984312140021,-152.12710160969698L131.26319814046414,26.678695809913062L58.36480238882523,-156.08435577165278z" style="fill:rgb(246,144,171)"/><path d="M-160.23114039626228,-141.13005025429695L-176.71084367651358,-56.06938463349048L-174.45518023518193,-53.42129878700242zM-14.288500142619593,-212.8330420251107L-14.057746054235642,-65.9678395395271L-9.610333695268832,-212.92427666140458zM-157.00715166862634,-144.79133980147662L-174.45518023518193,-53.42129878700242L-171.95414074473695,-50.91061234016287z" style="fill:rgb(83,212,212)"/><path d="M-159.554685557402,-42.3851302558364L-49.780557029419725,125.26994505905532L-155.87669002791313,-40.66695769857582z" style="fill:rgb(46,40,172)"/><path d="M-9.610333695268832,-212.92427666140458L-8.566546650066725,-69.45300610495794L-5.014977587417385,-212.85574991694185z" style="fill:rgb(83,212,212)"/><path d="M56.84255288803342,-148.09022862229833L130.97920668258885,30.64495307314991L57.73984312140021,-152.12710160969698z" style="fill:rgb(245,140,174)"/><path d="M-5.014977587417385,-212.85574991694185L-3.2149231994913223,-73.06802137804095L-0.5108981169337402,-212.62617387825202zM-153.62741652017255,-148.40642045321763L-171.95414074473695,-50.91061234016287L-169.21014414269393,-48.5446359594105zM-0.5108981169337402,-212.62617387825202L1.9832331751770518,-76.8029011942911L3.8934004564835814,-212.2344440704165z" style="fill:rgb(83,212,212)"/><path d="M-155.87669002791313,-40.66695769857582L-46.13578406225063,127.11447732408412L-151.97821412911193,-39.126647571419085z" style="fill:rgb(50,38,176)"/><path d="M-150.09841066453808,-151.96983472597265L-169.21014414269393,-48.5446359594105L-166.2262554335104,-46.330494019468624zM3.8934004564835814,-212.2344440704165L7.014612201684085,-80.64733530106157L8.189385845627935,-211.67965152493468z" style="fill:rgb(83,212,212)"/><path d="M55.671861994772115,-143.98233434060464L130.46097642232047,34.66364411610203L56.84255288803342,-148.09022862229833z" style="fill:rgb(243,136,178)"/><path d="M-146.42671896224095,-155.47625323234234L-166.2262554335104,-46.330494019468624L-163.00628880532528,-44.27510543316035zM8.189385845627935,-211.67965152493468L11.86653535217151,-84.59070082004988L12.36850690876009,-210.9611446143828z" style="fill:rgb(83,212,212)"/><path d="M-151.97821412911193,-39.126647571419085L-42.32159073077007,128.7904187666028L-147.865939225322,-37.76991600210857z" style="fill:rgb(54,37,180)"/><path d="M12.36850690876009,-210.9611446143828L16.527006640486,-88.62215856639779L16.422206247448614,-210.07848295900743z" style="fill:rgb(83,212,212)"/><path d="M54.227439215201485,-139.81237593927676L129.70740178804036,38.72600044076368L55.671861994772115,-143.98233434060464z" style="fill:rgb(242,131,182)"/><path d="M-142.61896687782806,-158.9205061671532L-163.00628880532528,-44.27510543316035L-159.554685557402,-42.3851302558364zM16.422206247448614,-210.07848295900743L20.98475300268197,-92.7306668642182L20.341934298455957,-209.03149413700353zM-138.68187157541652,-162.2975135268482L-159.554685557402,-42.3851302558364L-155.87669002791313,-40.66695769857582z" style="fill:rgb(83,212,212)"/><path d="M-147.865939225322,-37.76991600210857L-38.34528556152675,130.29223373471095L-143.54731166507963,-36.60208858075929z" style="fill:rgb(58,35,183)"/><path d="M20.341934298455957,-209.03149413700353L25.229269031443092,-96.90505506420872L24.119162077637238,-207.82023795978373z" style="fill:rgb(83,212,212)"/><path d="M52.50971281796419,-135.58971536616306L128.71793399531384,42.82297858464302L54.227439215201485,-139.81237593927676z" style="fill:rgb(240,127,185)"/><path d="M24.119162077637238,-207.82023795978373L29.25083779885498,-101.13405426059339L27.745402415978603,-206.44510368983276zM-134.6222012277588,-165.6023725180509L-155.87669002791313,-40.66695769857582L-151.97821412911193,-39.126647571419085z" style="fill:rgb(83,212,212)"/><path d="M-143.54731166507963,-36.60208858075929L-34.21474569104751,131.61476074315894L-139.03047649816236,-35.62806195788776z" style="fill:rgb(63,34,187)"/><path d="M27.745402415978603,-206.44510368983276L33.04056563379435,-105.40636077336433L31.21221992580475,-204.9066942283906zM-130.44678476005873,-168.8302750488196L-151.97821412911193,-39.126647571419085L-147.865939225322,-37.76991600210857z" style="fill:rgb(83,212,212)"/><path d="M50.51989945075452,-131.32404510821263L127.49270814260716,46.94527335006637L52.50971281796419,-135.58971536616306z" style="fill:rgb(239,123,189)"/><path d="M31.21221992580475,-204.9066942283906L36.590408132406374,-109.71068617495806L34.511261234213926,-203.20598329823142z" style="fill:rgb(83,212,212)"/><path d="M-34.21474569104751,131.61476074315894L-134.3243634993236,-34.85228058488538L-139.03047649816236,-35.62806195788776z" style="fill:rgb(67,33,190)"/><path d="M-126.16253571276853,-171.97657365507197L-147.865939225322,-37.76991600210857L-143.54731166507963,-36.60208858075929zM34.511261234213926,-203.20598329823142L39.89316415573074,-114.03580383983457L37.63427208994932,-201.3442477663929z" style="fill:rgb(83,212,212)"/><path d="M48.2600372698102,-127.02539434843466L126.03246868212548,51.08333613858611L50.51989945075452,-131.32404510821263z" style="fill:rgb(236,119,192)"/><path d="M37.63427208994932,-201.3442477663929L42.94251531362715,-118.3705846814829L40.573114566890766,-199.32308203580857zM-121.77640483675006,-175.03672335536467L-143.54731166507963,-36.60208858075929L-139.03047649816236,-35.62806195788776z" style="fill:rgb(83,212,212)"/><path d="M-29.938406255797812,132.75323830491135L-129.43860519046683,-34.27869920536555L-134.3243634993236,-34.85228058488538z" style="fill:rgb(72,33,193)"/><path d="M40.573114566890766,-199.32308203580857L45.7330009248347,-122.70404688070576L43.31980856735491,-197.14442818736364z" style="fill:rgb(83,212,212)"/><path d="M45.7330009248347,-122.70404688070576L124.33862247882028,55.22743067131408L48.2600372698102,-127.02539434843466z" style="fill:rgb(234,114,195)"/><path d="M-117.2953954627088,-178.00630603012132L-139.03047649816236,-35.62806195788776L-134.3243634993236,-34.85228058488538zM43.31980856735491,-197.14442818736364L48.2600372698102,-127.02539434843466L45.86653846775422,-194.81062046688908z" style="fill:rgb(83,212,212)"/><path d="M-25.52525171210905,133.70332971704454L-124.38355541667185,-33.910748147162174L-129.43860519046683,-34.27869920536555z" style="fill:rgb(77,32,196)"/><path d="M45.86653846775422,-194.81062046688908L50.51989945075452,-131.32404510821263L48.20570423018408,-192.32432063589997zM-112.72655930403523,-180.88100349686815L-134.3243634993236,-34.85228058488538L-129.43860519046683,-34.27869920536555z" style="fill:rgb(83,212,212)"/><path d="M42.94251531362715,-118.3705846814829L122.41326232523016,59.36761835881227L45.7330009248347,-122.70404688070576z" style="fill:rgb(232,110,198)"/><path d="M48.20570423018408,-192.32432063589997L52.50971281796419,-135.58971536616306L50.32992700123422,-189.68859499326567z" style="fill:rgb(83,212,212)"/><path d="M-20.984796920505126,134.4611798271343L-119.17026920704548,-33.75129971975L-124.38355541667185,-33.910748147162174z" style="fill:rgb(82,32,199)"/><path d="M-108.077025907127,-183.65665639138007L-129.43860519046683,-34.27869920536555L-124.38355541667185,-33.910748147162174zM50.32992700123422,-189.68859499326567L54.227439215201485,-139.81237593927676L52.23211481653051,-186.90693060883356z" style="fill:rgb(83,212,212)"/><path d="M39.89316415573074,-114.03580383983457L120.25917544941925,63.49383375206079L42.94251531362715,-118.3705846814829z" style="fill:rgb(229,106,201)"/><path d="M-103.35395844047103,-186.32920661675948L-124.38355541667185,-33.910748147162174L-119.17026920704548,-33.75129971975zM52.23211481653051,-186.90693060883356L55.671861994772115,-143.98233434060464L53.905447532237616,-183.9831771143602z" style="fill:rgb(83,212,212)"/><path d="M-16.327068497958226,135.0234083661335L-113.81049147267548,-33.802644745886546L-119.17026920704548,-33.75129971975z" style="fill:rgb(87,32,202)"/><path d="M53.905447532237616,-183.9831771143602L56.84255288803342,-148.09022862229833L55.34347567622491,-180.92165088162602zM-98.5645832973867,-188.89464141544076L-119.17026920704548,-33.75129971975L-113.81049147267548,-33.802644745886546z" style="fill:rgb(83,212,212)"/><path d="M36.590408132406374,-109.71068617495806L117.87984152183816,67.5958816255724L39.89316415573074,-114.03580383983457z" style="fill:rgb(226,102,203)"/><path d="M-11.562576904503237,135.38712405309442L-108.31657872159707,-34.06646784498472L-113.81049147267548,-33.802644745886546z" style="fill:rgb(92,32,204)"/><path d="M55.34347567622491,-180.92165088162602L57.73984312140021,-152.12710160969698L56.54008700980944,-177.72706459694683zM-93.71617130212971,-191.3491695682405L-113.81049147267548,-33.802644745886546L-108.31657872159707,-34.06646784498472z" style="fill:rgb(83,212,212)"/><path d="M33.04056563379435,-105.40636077336433L115.27943720714143,71.66350724338177L36.590408132406374,-109.71068617495806z" style="fill:rgb(223,98,206)"/><path d="M56.54008700980944,-177.72706459694683L58.36480238882523,-156.08435577165278L57.48959351199672,-174.4045558307223z" style="fill:rgb(83,212,212)"/><path d="M-6.702294752404416,135.55000886881137L-102.7015261581162,-34.54381669748292L-108.31657872159707,-34.06646784498472z" style="fill:rgb(98,32,207)"/><path d="M-88.81606766826282,-193.68904199024854L-108.31657872159707,-34.06646784498472L-102.7015261581162,-34.54381669748292zM57.48959351199672,-174.4045558307223L58.71921929296243,-159.95379611694636L58.18675834618812,-170.95973448084789z" style="fill:rgb(83,212,212)"/><path d="M29.25083779885498,-101.13405426059339L112.46283820975906,75.6864073061439L33.04056563379435,-105.40636077336433z" style="fill:rgb(219,93,208)"/><path d="M58.18675834618812,-170.95973448084789L58.80552756127369,-163.727660801704L58.626813963663395,-167.3986051400257zM-83.87164679852359,-195.91064392302883L-102.7015261581162,-34.54381669748292L-96.97888545528203,-35.23509095142213z" style="fill:rgb(83,212,212)"/><path d="M-1.7576176672411812,135.5102776269839L-96.97888545528203,-35.23509095142213L-102.7015261581162,-34.54381669748292z" style="fill:rgb(103,32,209)"/><path d="M25.229269031443092,-96.90505506420872L109.43563776568955,79.65427245255354L29.25083779885498,-101.13405426059339z" style="fill:rgb(216,89,210)"/><path d="M-78.89037670189843,-198.01042554516386L-96.97888545528203,-35.23509095142213L-91.16273943370517,-36.14001617059548z" style="fill:rgb(83,212,212)"/><path d="M3.2596641097543637,135.26673916551647L-91.16273943370517,-36.14001617059548L-96.97888545528203,-35.23509095142213z" style="fill:rgb(108,33,211)"/><path d="M58.18675834618812,-170.95973448084789L58.71921929296243,-159.95379611694636L58.80552756127369,-163.727660801704zM-73.87976793164447,-199.98501389977363L-91.16273943370517,-36.14001617059548L-85.26764998236003,-37.25762904229405z" style="fill:rgb(83,212,212)"/><path d="M20.98475300268197,-92.7306668642182L106.20410249174246,83.55684326998495L25.229269031443092,-96.90505506420872z" style="fill:rgb(212,86,212)"/><path d="M57.48959351199672,-174.4045558307223L58.36480238882523,-156.08435577165278L58.71921929296243,-159.95379611694636z" style="fill:rgb(83,212,212)"/><path d="M8.337407310119497,134.81878355085678L-85.26764998236003,-37.25762904229405L-91.16273943370517,-36.14001617059548z" style="fill:rgb(113,34,213)"/><path d="M-68.84738722610346,-201.8311052646649L-85.26764998236003,-37.25762904229405L-79.30859525198989,-38.58628516142884zM56.54008700980944,-177.72706459694683L57.73984312140021,-152.12710160969698L58.36480238882523,-156.08435577165278z" style="fill:rgb(83,212,212)"/><path d="M16.527006640486,-88.62215856639779L102.77519460468834,87.38392981063343L20.98475300268197,-92.7306668642182z" style="fill:rgb(208,82,214)"/><path d="M13.463155610016125,134.16639774933623L-79.30859525198989,-38.58628516142884L-85.26764998236003,-37.25762904229405z" style="fill:rgb(119,35,215)"/><path d="M55.34347567622491,-180.92165088162602L56.84255288803342,-148.09022862229833L57.73984312140021,-152.12710160969698zM-63.80089020665194,-203.54549906404188L-79.30859525198989,-38.58628516142884L-73.30092320878431,-40.12362253855217z" style="fill:rgb(83,212,212)"/><path d="M11.86653535217151,-84.59070082004988L99.15652920701241,91.12548389389879L16.527006640486,-88.62215856639779z" style="fill:rgb(204,78,216)"/><path d="M53.905447532237616,-183.9831771143602L55.671861994772115,-143.98233434060464L56.84255288803342,-148.09022862229833z" style="fill:rgb(83,212,212)"/><path d="M18.624184752282197,133.3102106585236L-73.30092320878431,-40.12362253855217L-79.30859525198989,-38.58628516142884z" style="fill:rgb(124,36,216)"/><path d="M-58.747971651904706,-205.12515421605056L-73.30092320878431,-40.12362253855217L-67.26029113672196,-41.866595609506106z" style="fill:rgb(83,212,212)"/><path d="M7.014612201684085,-80.64733530106157L95.35638221697813,94.77159639932873L11.86653535217151,-84.59070082004988z" style="fill:rgb(200,74,217)"/><path d="M52.23211481653051,-186.90693060883356L54.227439215201485,-139.81237593927676L55.671861994772115,-143.98233434060464zM-53.696409251845026,-206.567103850627L-67.26029113672196,-41.866595609506106L-61.20259182456196,-43.8114519066031z" style="fill:rgb(83,212,212)"/><path d="M23.807547717610692,132.25146181081598L-67.26029113672196,-41.866595609506106L-73.30092320878431,-40.12362253855217z" style="fill:rgb(130,38,218)"/><path d="M50.32992700123422,-189.68859499326567L52.50971281796419,-135.58971536616306L54.227439215201485,-139.81237593927676z" style="fill:rgb(83,212,212)"/><path d="M1.9832331751770518,-76.8029011942911L91.38364963181581,98.31257989935158L7.014612201684085,-80.64733530106157z" style="fill:rgb(196,71,219)"/><path d="M-48.6540498325519,-207.86853580003657L-61.20259182456196,-43.8114519066031L-55.1438894190817,-45.953745361851226z" style="fill:rgb(83,212,212)"/><path d="M29.000123719243792,130.99203141592284L-61.20259182456196,-43.8114519066031L-67.26029113672196,-41.866595609506106z" style="fill:rgb(135,39,219)"/><path d="M48.20570423018408,-192.32432063589997L50.51989945075452,-131.32404510821263L52.50971281796419,-135.58971536616306z" style="fill:rgb(83,212,212)"/><path d="M-3.2149231994913223,-73.06802137804095L87.24781158342388,101.73900224795291L1.9832331751770518,-76.8029011942911z" style="fill:rgb(191,67,220)"/><path d="M-43.62880275091073,-209.02670793377345L-55.1438894190817,-45.953745361851226L-49.10034894984564,-48.28836548482801z" style="fill:rgb(83,212,212)"/><path d="M34.18866989152815,129.53441536440127L-55.1438894190817,-45.953745361851226L-61.20259182456196,-43.8114519066031z" style="fill:rgb(141,41,220)"/><path d="M45.86653846775422,-194.81062046688908L48.2600372698102,-127.02539434843466L50.51989945075452,-131.32404510821263z" style="fill:rgb(83,212,212)"/><path d="M78.52759110288875,108.21187243795698L-3.2149231994913223,-73.06802137804095L-8.566546650066725,-69.45300610495794z" style="fill:rgb(187,64,221)"/><path d="M39.35987253680443,127.88173613838752L-49.10034894984564,-48.28836548482801L-55.1438894190817,-45.953745361851226z" style="fill:rgb(146,43,221)"/><path d="M-38.628651120305925,-210.03907295413995L-49.10034894984564,-48.28836548482801L-43.08817272288025,-50.8095241529342zM43.31980856735491,-197.14442818736364L45.7330009248347,-122.70404688070576L48.2600372698102,-127.02539434843466z" style="fill:rgb(83,212,212)"/><path d="M73.96486498680771,111.24105427253491L-8.566546650066725,-69.45300610495794L-14.057746054235642,-65.9678395395271z" style="fill:rgb(182,61,221)"/><path d="M44.50040621089296,126.03775652469298L-43.08817272288025,-50.8095241529342L-49.10034894984564,-48.28836548482801z" style="fill:rgb(151,45,222)"/><path d="M40.573114566890766,-199.32308203580857L42.94251531362715,-118.3705846814829L45.7330009248347,-122.70404688070576zM-33.661647369163546,-210.90317907166462L-43.08817272288025,-50.8095241529342L-37.12351772380463,-53.51080460160833z" style="fill:rgb(83,212,212)"/><path d="M69.28228175420722,114.1212035499071L-14.057746054235642,-65.9678395395271L-19.67410794237148,-62.62211405009131z" style="fill:rgb(177,58,222)"/><path d="M49.59698132035736,124.00682065893486L-37.12351772380463,-53.51080460160833L-43.08817272288025,-50.8095241529342z" style="fill:rgb(156,47,222)"/><path d="M64.49177265784651,116.8447301310973L-19.67410794237148,-62.62211405009131L-25.40075992258781,-59.424998621672316z" style="fill:rgb(172,55,222)"/><path d="M54.63639984861966,121.79389390352836L-31.222428711257063,-56.385166666916035L-37.12351772380463,-53.51080460160833z" style="fill:rgb(162,50,222)"/><path d="M59.60561321675282,119.40450754888799L-25.40075992258781,-59.424998621672316L-31.222428711257063,-56.385166666916035z" style="fill:rgb(167,52,222)"/><path d="M37.63427208994932,-201.3442477663929L39.89316415573074,-114.03580383983457L42.94251531362715,-118.3705846814829zM-28.735912098647027,-211.61671215858053L-37.12351772380463,-53.51080460160833L-31.222428711257063,-56.385166666916035zM34.511261234213926,-203.20598329823142L36.590408132406374,-109.71068617495806L39.89316415573074,-114.03580383983457zM-23.85963008471655,-212.17750027986708L-31.222428711257063,-56.385166666916035L-25.40075992258781,-59.424998621672316zM31.21221992580475,-204.9066942283906L33.04056563379435,-105.40636077336433L36.590408132406374,-109.71068617495806zM-19.04105468210795,-212.5835643491507L-25.40075992258781,-59.424998621672316L-19.67410794237148,-62.62211405009131zM27.745402415978603,-206.44510368983276L29.25083779885498,-101.13405426059339L33.04056563379435,-105.40636077336433zM-14.288500142619593,-212.8330420251107L-19.67410794237148,-62.62211405009131L-14.057746054235642,-65.9678395395271zM24.119162077637238,-207.82023795978373L25.229269031443092,-96.90505506420872L29.25083779885498,-101.13405426059339zM-9.610333695268832,-212.92427666140458L-14.057746054235642,-65.9678395395271L-8.566546650066725,-69.45300610495794zM20.341934298455957,-209.03149413700353L20.98475300268197,-92.7306668642182L25.229269031443092,-96.90505506420872zM-5.014977587417385,-212.85574991694185L-8.566546650066725,-69.45300610495794L-3.2149231994913223,-73.06802137804095zM16.422206247448614,-210.07848295900743L16.527006640486,-88.62215856639779L20.98475300268197,-92.7306668642182zM-0.5108981169337402,-212.62617387825202L-3.2149231994913223,-73.06802137804095L1.9832331751770518,-76.8029011942911zM12.36850690876009,-210.9611446143828L11.86653535217151,-84.59070082004988L16.527006640486,-88.62215856639779zM3.8934004564835814,-212.2344440704165L1.9832331751770518,-76.8029011942911L7.014612201684085,-80.64733530106157zM8.189385845627935,-211.67965152493468L7.014612201684085,-80.64733530106157L11.86653535217151,-84.59070082004988z" style="fill:rgb(83,212,212)"/></svg>
