<?xml version="1.0" encoding="UTF-8"?>
<!-- Generated by jsxcad -->
<!DOCTYPE svg PUBLIC "-//W3C//DTD SVG 1.1 Tiny//EN" "http://www.w3.org/Graphics/SVG/1.1/DTD/svg11-tiny.dtd">
<svg viewBox="-250 -250 500 500" width="500" height="500" xmlns="http://www.w3.org/2000/svg"><path d="M52.394849641174766,56.875750993350785L71.73668423873576,96.26667176327088L70.76273225664154,94.26980264353242z" style="fill:rgb(241,183,130)"/><path d="M37.38759581184466,115.42201647317385L16.335582690282767,76.91862654995445L36.097919738480556,113.59799381216288z" style="fill:rgb(19,60,138)"/><path d="M53.366632699642636,58.86874917202333L72.30460975383188,98.44375628022826L71.73668423873576,96.26667176327088z" style="fill:rgb(245,171,144)"/><path d="M39.0430217036444,116.99568378684623L17.632787866828973,78.73405434752247L37.38759581184466,115.42201647317385z" style="fill:rgb(28,51,152)"/><path d="M53.9169156793664,61.05039497314462L72.45113293753185,100.75304231884655L72.30460975383188,98.44375628022826z" style="fill:rgb(247,158,158)"/><path d="M41.02892803770214,118.28178008011294L19.311558436543677,80.29149086582096L39.0430217036444,116.99568378684623z" style="fill:rgb(39,43,166)"/><path d="M72.45113293753185,100.75304231884655L53.702111671169355,65.78359404726247L72.17037677426025,103.14285628289409z" style="fill:rgb(245,144,171)"/><path d="M43.30199073738178,119.2493196725314L21.336274283848894,81.55398865020403L41.02892803770214,118.28178008011294z" style="fill:rgb(52,37,178)"/><path d="M72.17037677426025,103.14285628289409L52.9365960136892,68.22864980990092L71.46633468639818,105.55908833590283z" style="fill:rgb(241,130,183)"/><path d="M26.239633892282566,83.07903972299097L43.30199073738178,119.2493196725314L45.81167645531799,119.87441832182499z" style="fill:rgb(67,34,190)"/><path d="M71.46633468639818,105.55908833590283L51.74920970401182,70.65181066857761L70.3529601256619,107.94639035906516z" style="fill:rgb(235,116,194)"/><path d="M29.00847710566223,83.3029778250399L45.81167645531799,119.87441832182499L48.50135505912942,120.14103471139767z" style="fill:rgb(83,32,200)"/><path d="M70.3529601256619,107.94639035906516L50.16535617567546,72.99700590390486L68.85407356902066,110.24958493949705z" style="fill:rgb(226,102,203)"/><path d="M31.906132594483903,83.15599391343807L48.50135505912942,120.14103471139767L51.30959977615702,120.04149642310632z" style="fill:rgb(100,32,208)"/><path d="M68.85407356902066,110.24958493949705L48.22016987001115,75.20957686576058L67.00287127566388,112.41502610998714z" style="fill:rgb(215,88,211)"/><path d="M34.86574652179707,82.64020515649989L51.30959977615702,120.04149642310632L54.17168891176664,119.5769041738898z" style="fill:rgb(118,35,215)"/><path d="M71.73668423873576,96.26667176327088L52.394849641174766,56.875750993350785L53.366632699642636,58.86874917202333z" style="fill:rgb(241,183,130)"/><path d="M67.00287127566388,112.41502610998714L45.95772996717313,77.23764645640927L64.84127672190537,114.3920330400354z" style="fill:rgb(202,76,217)"/><path d="M37.81857688849764,81.76663768384222L54.17168891176664,119.5769041738898L57.02121961344522,118.75710466176987z" style="fill:rgb(136,39,219)"/><path d="M45.95772996717313,77.23764645640927L62.41889202475469,116.13418546713649L64.84127672190537,114.3920330400354z" style="fill:rgb(187,64,221)"/><path d="M40.69574450379926,80.55507409143515L57.02121961344522,118.75710466176987L59.79182191657096,117.60062411008938z" style="fill:rgb(154,46,222)"/><path d="M43.43004429906251,79.03354795586186L59.79182191657096,117.60062411008938L62.41889202475469,116.13418546713649z" style="fill:rgb(171,54,222)"/><path d="M16.335582690282767,76.91862654995445L37.38759581184466,115.42201647317385L17.632787866828973,78.73405434752247z" style="fill:rgb(19,60,138)"/><path d="M72.30460975383188,98.44375628022826L53.366632699642636,58.86874917202333L53.9169156793664,61.05039497314462z" style="fill:rgb(245,171,144)"/><path d="M17.632787866828973,78.73405434752247L39.0430217036444,116.99568378684623L19.311558436543677,80.29149086582096z" style="fill:rgb(28,51,152)"/><path d="M72.45113293753185,100.75304231884655L53.9169156793664,61.05039497314462L54.03051774641952,63.37264316673567z" style="fill:rgb(247,158,158)"/><path d="M17.38838866095166,63.21236618740268L17.632787866828973,78.73405434752247L18.978219865947352,60.93476188512512zM20.903717711804514,58.793755188319885L21.336274283848894,81.55398865020403L23.12254387863968,56.8348640159878zM16.169883883795748,65.57791575560638L16.335582690282767,76.91862654995445L17.38838866095166,63.21236618740268z" style="fill:rgb(83,212,212)"/><path d="M19.311558436543677,80.29149086582096L41.02892803770214,118.28178008011294L21.336274283848894,81.55398865020403z" style="fill:rgb(39,43,166)"/><path d="M53.702111671169355,65.78359404726247L72.45113293753185,100.75304231884655L54.03051774641952,63.37264316673567z" style="fill:rgb(245,144,171)"/><path d="M18.978219865947352,60.93476188512512L21.336274283848894,81.55398865020403L20.903717711804514,58.793755188319885zM23.12254387863968,56.8348640159878L26.239633892282566,83.07903972299097L25.586571396345438,55.099606867820306zM25.586571396345438,55.099606867820306L29.00847710566223,83.3029778250399L28.24282101848678,53.62479904737026zM15.350881818811615,67.98045764839021L16.335582690282767,76.91862654995445L16.169883883795748,65.57791575560638zM28.24282101848678,53.62479904737026L31.906132594483903,83.15599391343807L31.0344857983158,52.44187689107125zM14.951373888073366,70.36776751749215L15.446481788754502,74.88753022112445L15.350881818811615,67.98045764839021zM31.0344857983158,52.44187689107125L34.86574652179707,82.64020515649989L33.90195685313919,51.57632723225574z" style="fill:rgb(83,212,212)"/><path d="M21.336274283848894,81.55398865020403L43.30199073738178,119.2493196725314L23.662853452696197,82.4909399267904z" style="fill:rgb(52,37,178)"/><path d="M52.9365960136892,68.22864980990092L72.17037677426025,103.14285628289409L53.702111671169355,65.78359404726247z" style="fill:rgb(241,130,183)"/><path d="M33.90195685313919,51.57632723225574L34.86574652179707,82.64020515649989L36.78395042508652,51.047215897611174zM15.446481788754502,74.88753022112445L14.951373888073366,70.36776751749215L14.982576204297484,72.68734630952024z" style="fill:rgb(83,212,212)"/><path d="M43.30199073738178,119.2493196725314L26.239633892282566,83.07903972299097L23.662853452696197,82.4909399267904z" style="fill:rgb(67,34,190)"/><path d="M36.78395042508652,51.047215897611174L40.69574450379926,80.55507409143515L39.61861337934449,50.866771487329zM15.350881818811615,67.98045764839021L15.446481788754502,74.88753022112445L16.335582690282767,76.91862654995445z" style="fill:rgb(83,212,212)"/><path d="M51.74920970401182,70.65181066857761L71.46633468639818,105.55908833590283L52.9365960136892,68.22864980990092z" style="fill:rgb(235,116,194)"/><path d="M17.38838866095166,63.21236618740268L16.335582690282767,76.91862654995445L17.632787866828973,78.73405434752247zM39.61861337934449,50.866771487329L40.69574450379926,80.55507409143515L42.344691438104604,51.04006339553786z" style="fill:rgb(83,212,212)"/><path d="M45.81167645531799,119.87441832182499L29.00847710566223,83.3029778250399L26.239633892282566,83.07903972299097z" style="fill:rgb(83,32,200)"/><path d="M18.978219865947352,60.93476188512512L17.632787866828973,78.73405434752247L19.311558436543677,80.29149086582096zM42.344691438104604,51.04006339553786L43.43004429906251,79.03354795586186L44.90273054537239,51.5648556551483z" style="fill:rgb(83,212,212)"/><path d="M50.16535617567546,72.99700590390486L70.3529601256619,107.94639035906516L51.74920970401182,70.65181066857761z" style="fill:rgb(226,102,203)"/><path d="M44.90273054537239,51.5648556551483L48.22016987001115,75.20957686576058L47.23625924924955,52.43144727000612z" style="fill:rgb(83,212,212)"/><path d="M48.50135505912942,120.14103471139767L31.906132594483903,83.15599391343807L29.00847710566223,83.3029778250399z" style="fill:rgb(100,32,208)"/><path d="M18.978219865947352,60.93476188512512L19.311558436543677,80.29149086582096L21.336274283848894,81.55398865020403z" style="fill:rgb(83,212,212)"/><path d="M48.22016987001115,75.20957686576058L68.85407356902066,110.24958493949705L50.16535617567546,72.99700590390486z" style="fill:rgb(215,88,211)"/><path d="M47.23625924924955,52.43144727000612L50.16535617567546,72.99700590390486L49.292990338123104,53.62278415326332z" style="fill:rgb(83,212,212)"/><path d="M51.30959977615702,120.04149642310632L34.86574652179707,82.64020515649989L31.906132594483903,83.15599391343807z" style="fill:rgb(118,35,215)"/><path d="M23.12254387863968,56.8348640159878L21.336274283848894,81.55398865020403L23.662853452696197,82.4909399267904z" style="fill:rgb(83,212,212)"/><path d="M45.95772996717313,77.23764645640927L67.00287127566388,112.41502610998714L48.22016987001115,75.20957686576058z" style="fill:rgb(202,76,217)"/><path d="M54.17168891176664,119.5769041738898L37.81857688849764,81.76663768384222L34.86574652179707,82.64020515649989z" style="fill:rgb(136,39,219)"/><path d="M49.292990338123104,53.62278415326332L50.16535617567546,72.99700590390486L51.02600293697272,55.114597371829724z" style="fill:rgb(83,212,212)"/><path d="M62.41889202475469,116.13418546713649L45.95772996717313,77.23764645640927L43.43004429906251,79.03354795586186z" style="fill:rgb(187,64,221)"/><path d="M57.02121961344522,118.75710466176987L40.69574450379926,80.55507409143515L37.81857688849764,81.76663768384222z" style="fill:rgb(154,46,222)"/><path d="M23.12254387863968,56.8348640159878L23.662853452696197,82.4909399267904L26.239633892282566,83.07903972299097z" style="fill:rgb(83,212,212)"/><path d="M59.79182191657096,117.60062411008938L43.43004429906251,79.03354795586186L40.69574450379926,80.55507409143515z" style="fill:rgb(171,54,222)"/><path d="M51.02600293697272,55.114597371829724L51.74920970401182,70.65181066857761L52.394849641174766,56.875750993350785zM25.586571396345438,55.099606867820306L26.239633892282566,83.07903972299097L29.00847710566223,83.3029778250399zM52.394849641174766,56.875750993350785L53.702111671169355,65.78359404726247L53.366632699642636,58.86874917202333zM28.24282101848678,53.62479904737026L29.00847710566223,83.3029778250399L31.906132594483903,83.15599391343807zM53.366632699642636,58.86874917202333L54.03051774641952,63.37264316673567L53.9169156793664,61.05039497314462zM31.0344857983158,52.44187689107125L31.906132594483903,83.15599391343807L34.86574652179707,82.64020515649989zM53.366632699642636,58.86874917202333L53.702111671169355,65.78359404726247L54.03051774641952,63.37264316673567zM36.78395042508652,51.047215897611174L34.86574652179707,82.64020515649989L37.81857688849764,81.76663768384222zM36.78395042508652,51.047215897611174L37.81857688849764,81.76663768384222L40.69574450379926,80.55507409143515zM52.394849641174766,56.875750993350785L52.9365960136892,68.22864980990092L53.702111671169355,65.78359404726247zM47.23625924924955,52.43144727000612L48.22016987001115,75.20957686576058L50.16535617567546,72.99700590390486zM44.90273054537239,51.5648556551483L45.95772996717313,77.23764645640927L48.22016987001115,75.20957686576058zM42.344691438104604,51.04006339553786L40.69574450379926,80.55507409143515L43.43004429906251,79.03354795586186zM52.394849641174766,56.875750993350785L51.74920970401182,70.65181066857761L52.9365960136892,68.22864980990092zM44.90273054537239,51.5648556551483L43.43004429906251,79.03354795586186L45.95772996717313,77.23764645640927zM51.02600293697272,55.114597371829724L50.16535617567546,72.99700590390486L51.74920970401182,70.65181066857761z" style="fill:rgb(83,212,212)"/><path d="M53.42449410135434,-59.49567358113737L97.84065084504643,42.0039864891793L96.66182865109985,39.141699733334214z" style="fill:rgb(244,177,137)"/><path d="M-21.823999475714817,105.36662050726623L-78.75590685438868,10.278112141838308L-23.59038029595459,102.80995897408337z" style="fill:rgb(20,59,140)"/><path d="M54.57386327845597,-56.683485321859386L98.77373437057197,44.983019587174645L97.84065084504643,42.0039864891793z" style="fill:rgb(245,172,143)"/><path d="M-19.82246662243257,107.78529911279577L-77.00045787405978,12.776253350404646L-21.823999475714817,105.36662050726623z" style="fill:rgb(24,55,146)"/><path d="M55.45426217294531,-53.74035641061914L99.45504655779095,48.067757724602366L98.77373437057197,44.983019587174645z" style="fill:rgb(246,166,149)"/><path d="M-17.591807218045354,110.05484882220819L-74.98456651817983,15.125745600946876L-19.82246662243257,107.78529911279577z" style="fill:rgb(28,51,152)"/><path d="M56.059380694063805,-50.676967928951015L99.8794868357557,51.24651625944067L99.45504655779095,48.067757724602366z" style="fill:rgb(247,161,155)"/><path d="M-15.139143323167165,112.16460048604793L-72.71386180963924,17.3154712576563L-17.591807218045354,110.05484882220819z" style="fill:rgb(32,47,158)"/><path d="M99.8794868357557,51.24651625944067L56.4239572404315,-44.235742716778844L100.04302111480726,54.50697594670018z" style="fill:rgb(247,155,161)"/><path d="M-12.47269712329663,114.104342155922L-70.19521839160186,19.334788969515945L-15.139143323167165,112.16460048604793z" style="fill:rgb(37,44,163)"/><path d="M100.04302111480726,54.50697594670018L56.176384454989446,-40.88279723761733L99.94265362538191,57.836263225683915z" style="fill:rgb(246,149,166)"/><path d="M-9.601783247227198,115.86450201006318L-67.4367295882334,21.173599765353273L-12.47269712329663,114.104342155922z" style="fill:rgb(42,41,169)"/><path d="M99.94265362538191,57.836263225683915L55.6395920868464,-37.45928582334834L99.57656113877987,61.22095131865968z" style="fill:rgb(245,143,172)"/><path d="M-6.536797870990577,117.43609822111249L-64.44773202468403,22.822429995585765L-9.601783247227198,115.86450201006318z" style="fill:rgb(48,39,174)"/><path d="M99.57656113877987,61.22095131865968L54.813223149568394,-33.97918242148756L98.9440648849545,64.6471644287091z" style="fill:rgb(244,137,177)"/><path d="M-3.289194582051693,118.81090199390235L-61.2387809436924,24.272498075189215L-6.536797870990577,117.43609822111249z" style="fill:rgb(54,37,179)"/><path d="M98.9440648849545,64.6471644287091L53.698252315624515,-30.45696623606632L98.04572381681224,68.10058878142362z" style="fill:rgb(242,131,182)"/><path d="M0.12854362422697468,119.98145085722173L-57.82165195270461,25.515788463977277L-3.289194582051693,118.81090199390235z" style="fill:rgb(60,35,184)"/><path d="M98.04572381681224,68.10058878142362L52.29705561128903,-26.90756736607743L96.88333185452855,71.56657066107826z" style="fill:rgb(240,125,187)"/><path d="M-50.41584855234537,27.35422107274294L0.12854362422697468,119.98145085722173L3.702944596825413,120.9411425139448z" style="fill:rgb(66,34,189)"/><path d="M96.88333185452855,71.56657066107826L50.613418579791414,-23.346283989718945L95.459975553509,75.03018727424458z" style="fill:rgb(237,120,191)"/><path d="M-46.456492168948195,27.93777772975692L3.702944596825413,120.9411425139448L7.419596059470967,121.68428201685012z" style="fill:rgb(73,33,193)"/><path d="M97.84065084504643,42.0039864891793L53.42449410135434,-59.49567358113737L54.57386327845597,-56.683485321859386z" style="fill:rgb(244,177,137)"/><path d="M95.459975553509,75.03018727424458L48.65256124390641,-19.78871769748585L93.7800218212086,78.47630718684181z" style="fill:rgb(234,114,195)"/><path d="M-59.903555675397804,-52.19536926995218L-64.44773202468403,22.822429995585765L-56.680390441914504,-55.03117059492393z" style="fill:rgb(83,212,212)"/><path d="M-42.34749071272328,28.291507941568334L7.419596059470967,121.68428201685012L11.263204168826276,122.20612821112906z" style="fill:rgb(79,32,198)"/><path d="M-68.56001064636415,-43.14851166925668L-70.19521839160186,19.334788969515945L-65.8542970292464,-46.24427211984485zM-65.8542970292464,-46.24427211984485L-67.4367295882334,21.173599765353273L-62.96523276350996,-49.263204095079324z" style="fill:rgb(83,212,212)"/><path d="M-78.75590685438868,10.278112141838308L-21.823999475714817,105.36662050726623L-77.00045787405978,12.776253350404646z" style="fill:rgb(20,59,140)"/><path d="M-71.07207070492422,-39.98618384886025L-72.71386180963924,17.3154712576563L-68.56001064636415,-43.14851166925668zM-62.96523276350996,-49.263204095079324L-64.44773202468403,22.822429995585765L-59.903555675397804,-52.19536926995218zM-73.38062070169158,-36.767879082319354L-74.98456651817983,15.125745600946876L-71.07207070492422,-39.98618384886025zM-75.4763218365266,-33.50449167923324L-77.00045787405978,12.776253350404646L-73.38062070169158,-36.767879082319354z" style="fill:rgb(83,212,212)"/><path d="M93.7800218212086,78.47630718684181L46.42115328213122,-16.250676038747642L91.84913452845785,81.88967689777986z" style="fill:rgb(230,108,199)"/><path d="M-56.680390441914504,-55.03117059492393L-57.82165195270461,25.515788463977277L-53.30723564892599,-57.761373741454896zM-77.3503380450754,-30.207202684601643L-78.75590685438868,10.278112141838308L-75.4763218365266,-33.50449167923324zM-53.30723564892599,-57.761373741454896L-54.209304546036435,26.545121555665933L-49.79592817443439,-60.37710495748447zM-49.79592817443439,-60.37710495748447L-50.41584855234537,27.35422107274294L-46.15862110440701,-62.86986234824546zM-78.99441932615332,-26.887467344888627L-80.24645684627579,7.642845172036337L-77.3503380450754,-30.207202684601643z" style="fill:rgb(83,212,212)"/><path d="M98.77373437057197,44.983019587174645L54.57386327845597,-56.683485321859386L55.45426217294531,-53.74035641061914z" style="fill:rgb(245,172,143)"/><path d="M-38.1060648892367,28.412208069500863L11.263204168826276,122.20612821112906L15.217659877057523,122.50296156253462z" style="fill:rgb(86,32,201)"/><path d="M-46.15862110440701,-62.86986234824546L-46.456492168948195,27.93777772975692L-42.40775647542392,-65.2315257105403zM-80.40093527830251,-23.55698795343896L-81.46884525232335,4.882309883775932L-78.99441932615332,-26.887467344888627zM-42.40775647542392,-65.2315257105403L-42.34749071272328,28.291507941568334L-38.55605067230456,-67.4543562094884z" style="fill:rgb(83,212,212)"/><path d="M91.84913452845785,81.88967689777986L43.92729412909296,-12.748083721201507L89.67428298452703,85.25502883561515z" style="fill:rgb(226,102,203)"/><path d="M-81.56288967153873,-20.227693445968445L-82.42096401876715,2.00863330509699L-80.40093527830251,-23.55698795343896zM-38.55605067230456,-67.4543562094884L-38.1060648892367,28.412208069500863L-34.616461616882326,-69.53103489188469z" style="fill:rgb(83,212,212)"/><path d="M-77.00045787405978,12.776253350404646L-19.82246662243257,107.78529911279577L-74.98456651817983,15.125745600946876z" style="fill:rgb(24,55,146)"/><path d="M-82.47399614769598,-16.911711147780117L-83.10179479262828,-0.9658536061746857L-81.56288967153873,-20.227693445968445z" style="fill:rgb(83,212,212)"/><path d="M-33.75033002376114,28.297800043850255L15.217659877057523,122.50296156253462L19.266116275967118,122.57211139123781z" style="fill:rgb(94,32,205)"/><path d="M-34.616461616882326,-69.53103489188469L-33.75033002376114,28.297800043850255L-30.60217982326586,-71.45463097498028zM-83.1287226041575,-13.621339763568788L-83.51140136814215,-4.0286734611299915L-82.47399614769598,-16.911711147780117z" style="fill:rgb(83,212,212)"/><path d="M89.67428298452703,85.25502883561515L41.180519295332694,-9.296892804300226L87.26371862090566,88.55714402357327z" style="fill:rgb(222,96,207)"/><path d="M-30.60217982326586,-71.45463097498028L-29.299209568214874,27.947368065484987L-26.526612496341876,-73.21863415415982z" style="fill:rgb(83,212,212)"/><path d="M99.45504655779095,48.067757724602366L55.45426217294531,-53.74035641061914L56.059380694063805,-50.676967928951015z" style="fill:rgb(246,166,149)"/><path d="M-83.65088492417634,-7.1672605543004L-83.1287226041575,-13.621339763568788L-83.52232165675059,-10.369012104503657z" style="fill:rgb(83,212,212)"/><path d="M-29.299209568214874,27.947368065484987L19.266116275967118,122.57211139123781L23.391076110579753,122.4120202674104z" style="fill:rgb(101,32,208)"/><path d="M-26.526612496341876,-73.21863415415982L-24.772310653775577,27.361191782248223L-22.40334318942462,-74.8169777675545z" style="fill:rgb(83,212,212)"/><path d="M87.26371862090566,88.55714402357327L38.191750614069534,-5.912980601665016L84.62694667474636,91.78095647816569z" style="fill:rgb(217,91,210)"/><path d="M-74.98456651817983,15.125745600946876L-17.591807218045354,110.05484882220819L-72.71386180963924,17.3154712576563z" style="fill:rgb(28,51,152)"/><path d="M-22.40334318942462,-74.8169777675545L-20.189835509750313,26.540764065837088L-18.246133620643697,-76.24401719851957z" style="fill:rgb(83,212,212)"/><path d="M-24.772310653775577,27.361191782248223L23.391076110579753,122.4120202674104L27.57447585845941,122.02225012429842z" style="fill:rgb(108,33,211)"/><path d="M-83.1287226041575,-13.621339763568788L-83.65088492417634,-7.1672605543004L-83.51140136814215,-4.0286734611299915zM-18.246133620643697,-76.24401719851957L-15.572455770781444,25.488807742523257L-14.068896935238866,-77.49457242193625z" style="fill:rgb(83,212,212)"/><path d="M84.62694667474636,91.78095647816569L34.973275721986596,-2.6120477323602125L81.77470676600839,94.91165265213786z" style="fill:rgb(212,85,213)"/><path d="M99.8794868357557,51.24651625944067L56.059380694063805,-50.676967928951015L56.38398417253831,-47.50472524537086z" style="fill:rgb(247,161,155)"/><path d="M-20.189835509750313,26.540764065837088L27.57447585845941,122.02225012429842L31.79780169544516,121.40352386924422z" style="fill:rgb(116,34,214)"/><path d="M-82.47399614769598,-16.911711147780117L-83.51140136814215,-4.0286734611299915L-83.10179479262828,-0.9658536061746857zM-14.068896935238866,-77.49457242193625L-10.941183016339991,24.209267179817836L-9.885674849181429,-78.5639206585095z" style="fill:rgb(83,212,212)"/><path d="M81.77470676600839,94.91165265213786L31.53867391741246,0.5904828256090204L78.7189093487594,97.93476047091244z" style="fill:rgb(206,80,215)"/><path d="M-15.572455770781444,25.488807742523257L31.79780169544516,121.40352386924422L36.04217738825633,120.55771101013133z" style="fill:rgb(123,36,216)"/><path d="M-72.71386180963924,17.3154712576563L-15.139143323167165,112.16460048604793L-70.19521839160186,19.334788969515945z" style="fill:rgb(32,47,158)"/><path d="M-9.885674849181429,-78.5639206585095L-6.317238141055239,22.707308825191703L-5.710616851791165,-79.44782232205553zM-81.56288967153873,-20.227693445968445L-83.10179479262828,-0.9658536061746857L-82.42096401876715,2.00863330509699z" style="fill:rgb(83,212,212)"/><path d="M78.7189093487594,97.93476047091244L27.902770229959877,3.6795700689143733L75.47259588051855,100.83622821137587z" style="fill:rgb(200,75,217)"/><path d="M56.4239572404315,-44.235742716778844L99.8794868357557,51.24651625944067L56.38398417253831,-47.50472524537086z" style="fill:rgb(247,155,161)"/><path d="M-10.941183016339991,24.209267179817836L36.04217738825633,120.55771101013133L40.28849646450663,119.48787993118738z" style="fill:rgb(131,38,218)"/><path d="M-5.710616851791165,-79.44782232205553L-1.7219205830505746,20.989290315496092L-1.557962397873067,-80.14253427810888zM-80.40093527830251,-23.55698795343896L-82.42096401876715,2.00863330509699L-81.46884525232335,4.882309883775932z" style="fill:rgb(83,212,212)"/><path d="M75.47259588051855,100.83622821137587L24.081541139985905,6.640656830245446L72.04986571795325,103.60255087668286z" style="fill:rgb(194,70,219)"/><path d="M-6.317238141055239,22.707308825191703L40.28849646450663,119.48787993118738L44.517519160253336,118.19822330047054z" style="fill:rgb(138,40,220)"/><path d="M24.081541139985905,6.640656830245446L68.46579009793022,106.220829076254L72.04986571795325,103.60255087668286z" style="fill:rgb(188,65,220)"/><path d="M-1.557962397873067,-80.14253427810888L2.8235352235205013,19.062737546042L2.557987877679868,-80.6448322317559z" style="fill:rgb(83,212,212)"/><path d="M-1.7219205830505746,20.989290315496092L44.517519160253336,118.19822330047054L48.71000225816984,116.69412145517367z" style="fill:rgb(146,43,221)"/><path d="M20.092031917299465,9.459770139627334L64.73633745842378,108.67888703740863L68.46579009793022,106.220829076254z" style="fill:rgb(181,61,221)"/><path d="M-78.99441932615332,-26.887467344888627L-81.46884525232335,4.882309883775932L-80.24645684627579,7.642845172036337z" style="fill:rgb(83,212,212)"/><path d="M2.8235352235205013,19.062737546042L48.71000225816984,116.69412145517367L52.84682233776297,114.98204189273066z" style="fill:rgb(153,46,222)"/><path d="M15.952253724452198,12.123618071969451L60.87828639237655,110.9653204885474L64.73633745842378,108.67888703740863z" style="fill:rgb(175,57,222)"/><path d="M-70.19521839160186,19.334788969515945L-12.47269712329663,114.104342155922L-67.4367295882334,21.173599765353273z" style="fill:rgb(37,44,163)"/><path d="M7.298097156951865,16.93629537393994L52.84682233776297,114.98204189273066L56.90909628556879,113.06956537205429z" style="fill:rgb(160,49,222)"/><path d="M11.681074250131871,14.619680356812985L56.90909628556879,113.06956537205429L60.87828639237655,110.9653204885474z" style="fill:rgb(168,53,222)"/><path d="M2.557987877679868,-80.6448322317559L7.298097156951865,16.93629537393994L6.6228962016159185,-80.95201397580234z" style="fill:rgb(83,212,212)"/><path d="M56.176384454989446,-40.88279723761733L100.04302111480726,54.50697594670018L56.4239572404315,-44.235742716778844z" style="fill:rgb(246,149,166)"/><path d="M-77.3503380450754,-30.207202684601643L-80.24645684627579,7.642845172036337L-78.75590685438868,10.278112141838308zM6.6228962016159185,-80.95201397580234L11.681074250131871,14.619680356812985L10.622416024657719,-81.06193054011524zM-75.4763218365266,-33.50449167923324L-78.75590685438868,10.278112141838308L-77.00045787405978,12.776253350404646zM10.622416024657719,-81.06193054011524L15.952253724452198,12.123618071969451L14.542223263397567,-80.97300354841971z" style="fill:rgb(83,212,212)"/><path d="M-67.4367295882334,21.173599765353273L-9.601783247227198,115.86450201006318L-64.44773202468403,22.822429995585765z" style="fill:rgb(42,41,169)"/><path d="M55.6395920868464,-37.45928582334834L99.94265362538191,57.836263225683915L56.176384454989446,-40.88279723761733z" style="fill:rgb(245,143,172)"/><path d="M14.542223263397567,-80.97300354841971L20.092031917299465,9.459770139627334L18.368048685686556,-80.68423434298712zM-73.38062070169158,-36.767879082319354L-77.00045787405978,12.776253350404646L-74.98456651817983,15.125745600946876zM18.368048685686556,-80.68423434298712L24.081541139985905,6.640656830245446L22.085714154099616,-80.19524756601994zM-71.07207070492422,-39.98618384886025L-74.98456651817983,15.125745600946876L-72.71386180963924,17.3154712576563z" style="fill:rgb(83,212,212)"/><path d="M-64.44773202468403,22.822429995585765L-6.536797870990577,117.43609822111249L-61.2387809436924,24.272498075189215z" style="fill:rgb(48,39,174)"/><path d="M54.813223149568394,-33.97918242148756L99.57656113877987,61.22095131865968L55.6395920868464,-37.45928582334834z" style="fill:rgb(244,137,177)"/><path d="M22.085714154099616,-80.19524756601994L27.902770229959877,3.6795700689143733L25.68117322246848,-79.50630159354475zM-68.56001064636415,-43.14851166925668L-72.71386180963924,17.3154712576563L-70.19521839160186,19.334788969515945zM25.68117322246848,-79.50630159354475L31.53867391741246,0.5904828256090204L29.140553131791627,-78.61828956189754z" style="fill:rgb(83,212,212)"/><path d="M-61.2387809436924,24.272498075189215L-3.289194582051693,118.81090199390235L-57.82165195270461,25.515788463977277z" style="fill:rgb(54,37,179)"/><path d="M-65.8542970292464,-46.24427211984485L-70.19521839160186,19.334788969515945L-67.4367295882334,21.173599765353273z" style="fill:rgb(83,212,212)"/><path d="M53.698252315624515,-30.45696623606632L98.9440648849545,64.6471644287091L54.813223149568394,-33.97918242148756z" style="fill:rgb(242,131,182)"/><path d="M29.140553131791627,-78.61828956189754L34.973275721986596,-2.6120477323602125L32.45020170012821,-77.53279940580704zM-62.96523276350996,-49.263204095079324L-67.4367295882334,21.173599765353273L-64.44773202468403,22.822429995585765zM32.45020170012821,-77.53279940580704L38.191750614069534,-5.912980601665016L35.5967307775244,-76.25210198916781z" style="fill:rgb(83,212,212)"/><path d="M-57.82165195270461,25.515788463977277L0.12854362422697468,119.98145085722173L-54.209304546036435,26.545121555665933z" style="fill:rgb(60,35,184)"/><path d="M-56.680390441914504,-55.03117059492393L-64.44773202468403,22.822429995585765L-61.2387809436924,24.272498075189215z" style="fill:rgb(83,212,212)"/><path d="M52.29705561128903,-26.90756736607743L98.04572381681224,68.10058878142362L53.698252315624515,-30.45696623606632z" style="fill:rgb(240,125,187)"/><path d="M35.5967307775244,-76.25210198916781L41.180519295332694,-9.296892804300226L38.567083022804844,-74.77919736702178z" style="fill:rgb(83,212,212)"/><path d="M0.12854362422697468,119.98145085722173L-50.41584855234537,27.35422107274294L-54.209304546036435,26.545121555665933z" style="fill:rgb(66,34,189)"/><path d="M-56.680390441914504,-55.03117059492393L-61.2387809436924,24.272498075189215L-57.82165195270461,25.515788463977277zM38.567083022804844,-74.77919736702178L41.180519295332694,-9.296892804300226L41.34857064448439,-73.11780031713604z" style="fill:rgb(83,212,212)"/><path d="M50.613418579791414,-23.346283989718945L96.88333185452855,71.56657066107826L52.29705561128903,-26.90756736607743z" style="fill:rgb(237,120,191)"/><path d="M41.34857064448439,-73.11780031713604L46.42115328213122,-16.250676038747642L43.92895328550953,-71.27238310060504zM-53.30723564892599,-57.761373741454896L-57.82165195270461,25.515788463977277L-54.209304546036435,26.545121555665933z" style="fill:rgb(83,212,212)"/><path d="M3.702944596825413,120.9411425139448L-46.456492168948195,27.93777772975692L-50.41584855234537,27.35422107274294z" style="fill:rgb(73,33,193)"/><path d="M43.92895328550953,-71.27238310060504L48.65256124390641,-19.78871769748585L46.296481463063756,-69.24819410163288zM-49.79592817443439,-60.37710495748447L-54.209304546036435,26.545121555665933L-50.41584855234537,27.35422107274294z" style="fill:rgb(83,212,212)"/><path d="M48.65256124390641,-19.78871769748585L95.459975553509,75.03018727424458L50.613418579791414,-23.346283989718945z" style="fill:rgb(234,114,195)"/><path d="M46.296481463063756,-69.24819410163288L50.613418579791414,-23.346283989718945L48.43998424878244,-67.05123855995983z" style="fill:rgb(83,212,212)"/><path d="M7.419596059470967,121.68428201685012L-42.34749071272328,28.291507941568334L-46.456492168948195,27.93777772975692z" style="fill:rgb(79,32,198)"/><path d="M-46.15862110440701,-62.86986234824546L-50.41584855234537,27.35422107274294L-46.456492168948195,27.93777772975692zM48.43998424878244,-67.05123855995983L52.29705561128903,-26.90756736607743L50.348915140478965,-64.68831488343794z" style="fill:rgb(83,212,212)"/><path d="M46.42115328213122,-16.250676038747642L93.7800218212086,78.47630718684181L48.65256124390641,-19.78871769748585z" style="fill:rgb(230,108,199)"/><path d="M-42.40775647542392,-65.2315257105403L-46.456492168948195,27.93777772975692L-42.34749071272328,28.291507941568334z" style="fill:rgb(83,212,212)"/><path d="M11.263204168826276,122.20612821112906L-38.1060648892367,28.412208069500863L-42.34749071272328,28.291507941568334z" style="fill:rgb(86,32,201)"/><path d="M50.348915140478965,-64.68831488343794L52.29705561128903,-26.90756736607743L52.013438624304264,-62.1669992542265zM52.013438624304264,-62.1669992542265L54.813223149568394,-33.97918242148756L53.42449410135434,-59.49567358113737z" style="fill:rgb(83,212,212)"/><path d="M43.92729412909296,-12.748083721201507L91.84913452845785,81.88967689777986L46.42115328213122,-16.250676038747642z" style="fill:rgb(226,102,203)"/><path d="M-38.55605067230456,-67.4543562094884L-42.34749071272328,28.291507941568334L-38.1060648892367,28.412208069500863zM53.42449410135434,-59.49567358113737L55.6395920868464,-37.45928582334834L54.57386327845597,-56.683485321859386z" style="fill:rgb(83,212,212)"/><path d="M15.217659877057523,122.50296156253462L-33.75033002376114,28.297800043850255L-38.1060648892367,28.412208069500863z" style="fill:rgb(94,32,205)"/><path d="M-34.616461616882326,-69.53103489188469L-38.1060648892367,28.412208069500863L-33.75033002376114,28.297800043850255z" style="fill:rgb(83,212,212)"/><path d="M41.180519295332694,-9.296892804300226L89.67428298452703,85.25502883561515L43.92729412909296,-12.748083721201507z" style="fill:rgb(222,96,207)"/><path d="M54.57386327845597,-56.683485321859386L56.176384454989446,-40.88279723761733L55.45426217294531,-53.74035641061914zM-30.60217982326586,-71.45463097498028L-33.75033002376114,28.297800043850255L-29.299209568214874,27.947368065484987z" style="fill:rgb(83,212,212)"/><path d="M19.266116275967118,122.57211139123781L-29.299209568214874,27.947368065484987L-33.75033002376114,28.297800043850255z" style="fill:rgb(101,32,208)"/><path d="M55.45426217294531,-53.74035641061914L56.4239572404315,-44.235742716778844L56.059380694063805,-50.676967928951015z" style="fill:rgb(83,212,212)"/><path d="M38.191750614069534,-5.912980601665016L87.26371862090566,88.55714402357327L41.180519295332694,-9.296892804300226z" style="fill:rgb(217,91,210)"/><path d="M-26.526612496341876,-73.21863415415982L-29.299209568214874,27.947368065484987L-24.772310653775577,27.361191782248223z" style="fill:rgb(83,212,212)"/><path d="M23.391076110579753,122.4120202674104L-24.772310653775577,27.361191782248223L-29.299209568214874,27.947368065484987z" style="fill:rgb(108,33,211)"/><path d="M-22.40334318942462,-74.8169777675545L-24.772310653775577,27.361191782248223L-20.189835509750313,26.540764065837088z" style="fill:rgb(83,212,212)"/><path d="M34.973275721986596,-2.6120477323602125L84.62694667474636,91.78095647816569L38.191750614069534,-5.912980601665016z" style="fill:rgb(212,85,213)"/><path d="M56.059380694063805,-50.676967928951015L56.4239572404315,-44.235742716778844L56.38398417253831,-47.50472524537086z" style="fill:rgb(83,212,212)"/><path d="M27.57447585845941,122.02225012429842L-20.189835509750313,26.540764065837088L-24.772310653775577,27.361191782248223z" style="fill:rgb(116,34,214)"/><path d="M55.45426217294531,-53.74035641061914L56.176384454989446,-40.88279723761733L56.4239572404315,-44.235742716778844zM-18.246133620643697,-76.24401719851957L-20.189835509750313,26.540764065837088L-15.572455770781444,25.488807742523257z" style="fill:rgb(83,212,212)"/><path d="M31.53867391741246,0.5904828256090204L81.77470676600839,94.91165265213786L34.973275721986596,-2.6120477323602125z" style="fill:rgb(206,80,215)"/><path d="M54.57386327845597,-56.683485321859386L55.6395920868464,-37.45928582334834L56.176384454989446,-40.88279723761733z" style="fill:rgb(83,212,212)"/><path d="M31.79780169544516,121.40352386924422L-15.572455770781444,25.488807742523257L-20.189835509750313,26.540764065837088z" style="fill:rgb(123,36,216)"/><path d="M-14.068896935238866,-77.49457242193625L-15.572455770781444,25.488807742523257L-10.941183016339991,24.209267179817836z" style="fill:rgb(83,212,212)"/><path d="M27.902770229959877,3.6795700689143733L78.7189093487594,97.93476047091244L31.53867391741246,0.5904828256090204z" style="fill:rgb(200,75,217)"/><path d="M53.42449410135434,-59.49567358113737L54.813223149568394,-33.97918242148756L55.6395920868464,-37.45928582334834zM-9.885674849181429,-78.5639206585095L-10.941183016339991,24.209267179817836L-6.317238141055239,22.707308825191703z" style="fill:rgb(83,212,212)"/><path d="M36.04217738825633,120.55771101013133L-10.941183016339991,24.209267179817836L-15.572455770781444,25.488807742523257z" style="fill:rgb(131,38,218)"/><path d="M24.081541139985905,6.640656830245446L75.47259588051855,100.83622821137587L27.902770229959877,3.6795700689143733z" style="fill:rgb(194,70,219)"/><path d="M52.013438624304264,-62.1669992542265L53.698252315624515,-30.45696623606632L54.813223149568394,-33.97918242148756zM-5.710616851791165,-79.44782232205553L-6.317238141055239,22.707308825191703L-1.7219205830505746,20.989290315496092z" style="fill:rgb(83,212,212)"/><path d="M40.28849646450663,119.48787993118738L-6.317238141055239,22.707308825191703L-10.941183016339991,24.209267179817836z" style="fill:rgb(138,40,220)"/><path d="M68.46579009793022,106.220829076254L24.081541139985905,6.640656830245446L20.092031917299465,9.459770139627334z" style="fill:rgb(188,65,220)"/><path d="M44.517519160253336,118.19822330047054L-1.7219205830505746,20.989290315496092L-6.317238141055239,22.707308825191703z" style="fill:rgb(146,43,221)"/><path d="M-1.557962397873067,-80.14253427810888L-1.7219205830505746,20.989290315496092L2.8235352235205013,19.062737546042zM48.43998424878244,-67.05123855995983L50.613418579791414,-23.346283989718945L52.29705561128903,-26.90756736607743z" style="fill:rgb(83,212,212)"/><path d="M64.73633745842378,108.67888703740863L20.092031917299465,9.459770139627334L15.952253724452198,12.123618071969451z" style="fill:rgb(181,61,221)"/><path d="M48.71000225816984,116.69412145517367L2.8235352235205013,19.062737546042L-1.7219205830505746,20.989290315496092z" style="fill:rgb(153,46,222)"/><path d="M52.013438624304264,-62.1669992542265L52.29705561128903,-26.90756736607743L53.698252315624515,-30.45696623606632zM2.557987877679868,-80.6448322317559L2.8235352235205013,19.062737546042L7.298097156951865,16.93629537393994z" style="fill:rgb(83,212,212)"/><path d="M60.87828639237655,110.9653204885474L15.952253724452198,12.123618071969451L11.681074250131871,14.619680356812985z" style="fill:rgb(175,57,222)"/><path d="M52.84682233776297,114.98204189273066L7.298097156951865,16.93629537393994L2.8235352235205013,19.062737546042z" style="fill:rgb(160,49,222)"/><path d="M56.90909628556879,113.06956537205429L11.681074250131871,14.619680356812985L7.298097156951865,16.93629537393994z" style="fill:rgb(168,53,222)"/><path d="M46.296481463063756,-69.24819410163288L48.65256124390641,-19.78871769748585L50.613418579791414,-23.346283989718945zM6.6228962016159185,-80.95201397580234L7.298097156951865,16.93629537393994L11.681074250131871,14.619680356812985zM43.92895328550953,-71.27238310060504L46.42115328213122,-16.250676038747642L48.65256124390641,-19.78871769748585zM10.622416024657719,-81.06193054011524L11.681074250131871,14.619680356812985L15.952253724452198,12.123618071969451zM41.34857064448439,-73.11780031713604L43.92729412909296,-12.748083721201507L46.42115328213122,-16.250676038747642zM14.542223263397567,-80.97300354841971L15.952253724452198,12.123618071969451L20.092031917299465,9.459770139627334zM18.368048685686556,-80.68423434298712L20.092031917299465,9.459770139627334L24.081541139985905,6.640656830245446zM35.5967307775244,-76.25210198916781L38.191750614069534,-5.912980601665016L41.180519295332694,-9.296892804300226zM22.085714154099616,-80.19524756601994L24.081541139985905,6.640656830245446L27.902770229959877,3.6795700689143733zM32.45020170012821,-77.53279940580704L34.973275721986596,-2.6120477323602125L38.191750614069534,-5.912980601665016zM25.68117322246848,-79.50630159354475L27.902770229959877,3.6795700689143733L31.53867391741246,0.5904828256090204zM29.140553131791627,-78.61828956189754L31.53867391741246,0.5904828256090204L34.973275721986596,-2.6120477323602125zM41.34857064448439,-73.11780031713604L41.180519295332694,-9.296892804300226L43.92729412909296,-12.748083721201507z" style="fill:rgb(83,212,212)"/><path d="M18.611417998586543,-168.88079343492092L64.79280329865131,-60.81911239417393L63.4353455998092,-64.02810519286714z" style="fill:rgb(244,177,137)"/><path d="M-86.18570970408676,18.886825449452548L-147.49420978012284,-81.47618850884041L-88.16397533980332,15.997794518939873z" style="fill:rgb(20,59,140)"/><path d="M19.90817898305228,-165.8105909339834L65.8427621767864,-57.45659675447077L64.79280329865131,-60.81911239417393z" style="fill:rgb(245,172,143)"/><path d="M-83.90627966908174,21.607933673467453L-145.57810940582047,-78.72376318171756L-86.18570970408676,18.886825449452548z" style="fill:rgb(24,55,146)"/><path d="M20.869209208871826,-162.56938856894806L66.57735584642224,-53.95256283105255L65.8427621767864,-57.45659675447077z" style="fill:rgb(246,166,149)"/><path d="M-81.33161267902814,24.1479738867537L-143.329751472658,-76.15197777081822L-83.90627966908174,21.607933673467453z" style="fill:rgb(28,51,152)"/><path d="M21.486297412265245,-159.16834219895603L66.98993106844718,-50.319890884016864L66.57735584642224,-53.95256283105255z" style="fill:rgb(247,161,155)"/><path d="M-78.4690677083159,26.494301424986823L-140.75424024888048,-73.77375143575132L-81.33161267902814,24.1479738867537z" style="fill:rgb(32,47,158)"/><path d="M66.98993106844718,-50.319890884016864L21.66248750701288,-151.93626486833278L67.07510062378877,-46.57233893036522z" style="fill:rgb(247,155,161)"/><path d="M-75.32745977782186,28.634866376025556L-137.8582735595878,-71.60145912817772L-78.4690677083159,26.494301424986823z" style="fill:rgb(37,44,163)"/><path d="M67.07510062378877,-46.57233893036522L21.21214907971145,-148.13238245480935L66.8288775693084,-42.724493556900505z" style="fill:rgb(246,149,166)"/><path d="M-71.91708704681136,30.55829170576361L-134.6501541294296,-69.64683483630617L-75.32745977782186,28.634866376025556z" style="fill:rgb(42,41,169)"/><path d="M-130.7761766417167,-142.34866212597052L-140.75424024888048,-73.77375143575132L-127.28344893248259,-145.97097909561938zM-134.04495018440497,-138.66171904069387L-143.329751472658,-76.15197777081822L-130.7761766417167,-142.34866212597052zM-137.07717030054005,-134.9220732894801L-145.57810940582047,-78.72376318171756L-134.04495018440497,-138.66171904069387zM-123.57976599535517,-149.51713665125695L-134.6501541294296,-69.64683483630617L-119.67854233014418,-152.97592647329532zM-139.86071196695679,-131.14196009596546L-147.49420978012284,-81.47618850884041L-137.07717030054005,-134.9220732894801zM-119.67854233014418,-152.97592647329532L-131.13985957109682,-67.92088700664908L-115.59357453409113,-156.33651526703662z" style="fill:rgb(83,212,212)"/><path d="M66.8288775693084,-42.724493556900505L20.39917475930814,-144.22290066646792L66.24870507816377,-38.79171232508373z" style="fill:rgb(245,143,172)"/><path d="M-115.59357453409113,-156.33651526703662L-127.33906520452676,-66.43378989693022L-111.33893675066994,-159.58842925951055z" style="fill:rgb(83,212,212)"/><path d="M-68.24972722852137,32.25398904888281L-131.13985957109682,-67.92088700664908L-71.91708704681136,30.55829170576361z" style="fill:rgb(48,39,174)"/><path d="M-127.28344893248259,-145.97097909561938L-134.6501541294296,-69.64683483630617L-123.57976599535517,-149.51713665125695zM-111.33893675066994,-159.58842925951055L-123.26106067896959,-65.19477348001455L-106.92905833850797,-162.72158489476197zM-146.60601229644539,-119.68612932067563L-151.22080398795123,-90.68179267930246L-144.63587474570926,-123.51095107207323zM-106.92905833850797,-162.72158489476197L-118.92084975992165,-64.2120576444599L-102.37863320986574,-165.7262521190514zM-142.38396545154626,-127.33396423052332L-147.49420978012284,-81.47618850884041L-139.86071196695679,-131.14196009596546zM-144.63587474570926,-123.51095107207323L-149.0745003485753,-84.39587600129417L-142.38396545154626,-127.33396423052332zM-102.37863320986574,-165.7262521190514L-114.33504110134216,-63.492759529974755L-97.70260512817414,-168.59308204352013zM-148.2846153377824,-115.87294330558271L-151.7869244125606,-94.01976863657102L-146.60601229644539,-119.68612932067563zM-97.70260512817414,-168.59308204352013L-109.52181426522023,-63.04278392495981L-92.91619329312063,-171.31312749068067z" style="fill:rgb(83,212,212)"/><path d="M66.24870507816377,-38.79171232508373L19.22289327687533,-140.22361681693684L65.33356046480932,-34.790082219525615z" style="fill:rgb(244,137,177)"/><path d="M-64.33862066128079,33.71222282051572L-127.33906520452676,-66.43378989693022L-68.24972722852137,32.25398904888281z" style="fill:rgb(54,37,179)"/><path d="M-92.91619329312063,-171.31312749068067L-104.50090677572035,-62.866743738624066L-88.03481354318386,-173.87782029321505zM-149.6626290297282,-112.08511925706608L-151.7869244125606,-94.01976863657102L-148.2846153377824,-115.87294330558271zM-88.03481354318386,-173.87782029321505L-99.29345543473383,-62.96792488260756L-83.07412088721115,-176.27895316612546zM-150.73182807506723,-108.3365892598724L-152.01727207581388,-97.46865981420339L-149.6626290297282,-112.08511925706608zM-83.07412088721115,-176.27895316612546L-93.92196499304445,-63.3481759698814L-78.049962181477,-178.50876768259207zM-151.91510962872405,-101.01403827107407L-150.73182807506723,-108.3365892598724L-151.48480361886348,-104.64146909962217z" style="fill:rgb(83,212,212)"/><path d="M65.33356046480932,-34.790082219525615L17.684396324324346,-136.1511376138298L64.08399507188346,-30.736349206830454z" style="fill:rgb(242,131,182)"/><path d="M64.79280329865131,-60.81911239417393L18.611417998586543,-168.88079343492092L19.90817898305228,-165.8105909339834z" style="fill:rgb(244,177,137)"/><path d="M-60.19845154536395,34.92421833475086L-123.26106067896959,-65.19477348001455L-64.33862066128079,33.71222282051572z" style="fill:rgb(60,35,184)"/><path d="M-78.049962181477,-178.50876768259207L-88.41016094389565,-64.00788432454549L-72.9783680985904,-180.55987232458995zM-72.9783680985904,-180.55987232458995L-82.78285384539166,-64.94592595950004L-67.87555989504452,-182.42532352270072z" style="fill:rgb(83,212,212)"/><path d="M-147.49420978012284,-81.47618850884041L-86.18570970408676,18.886825449452548L-145.57810940582047,-78.72376318171756z" style="fill:rgb(20,59,140)"/><path d="M-150.73182807506723,-108.3365892598724L-151.91510962872405,-101.01403827107407L-152.01727207581388,-97.46865981420339zM-67.87555989504452,-182.42532352270072L-77.0658212814293,-66.15964266234366L-62.75789780423226,-184.09858103643077z" style="fill:rgb(83,212,212)"/><path d="M64.08399507188346,-30.736349206830454L15.78659839731918,-132.0227520999455L62.5022245389751,-26.647835874564695z" style="fill:rgb(240,125,187)"/><path d="M-149.6626290297282,-112.08511925706608L-152.01727207581388,-97.46865981420339L-151.7869244125606,-94.01976863657102z" style="fill:rgb(83,212,212)"/><path d="M65.8427621767864,-57.45659675447077L19.90817898305228,-165.8105909339834L20.869209208871826,-162.56938856894806z" style="fill:rgb(245,172,143)"/><path d="M-62.75789780423226,-184.09858103643077L-71.28559708087347,-67.64482724828008L-57.64190715664729,-185.5735446645174zM-146.60601229644539,-119.68612932067563L-151.7869244125606,-94.01976863657102L-151.22080398795123,-90.68179267930246z" style="fill:rgb(83,212,212)"/><path d="M-114.33504110134216,-63.492759529974755L-60.19845154536395,34.92421833475086L-55.845312476861444,35.882246184587125z" style="fill:rgb(66,34,189)"/><path d="M-57.64190715664729,-185.5735446645174L-65.46934629078494,-69.39570995184846L-52.544240699473754,-186.84459235162703z" style="fill:rgb(83,212,212)"/><path d="M-145.57810940582047,-78.72376318171756L-83.90627966908174,21.607933673467453L-143.329751472658,-76.15197777081822z" style="fill:rgb(24,55,146)"/><path d="M-144.63587474570926,-123.51095107207323L-151.22080398795123,-90.68179267930246L-150.3169065618697,-87.46908072565284z" style="fill:rgb(83,212,212)"/><path d="M62.5022245389751,-26.647835874564695L13.53429668753692,-127.85642321083863L60.59212373305188,-22.542367020915965z" style="fill:rgb(237,120,191)"/><path d="M-52.544240699473754,-186.84459235162703L-59.644653890947595,-71.40501515244144L-47.481670600066025,-187.90655677655894z" style="fill:rgb(83,212,212)"/><path d="M-109.52181426522023,-63.04278392495981L-55.845312476861444,35.882246184587125L-51.29665875155988,36.57970012938692z" style="fill:rgb(73,33,193)"/><path d="M66.57735584642224,-53.95256283105255L20.869209208871826,-162.56938856894806L21.486297412265245,-159.16834219895603z" style="fill:rgb(246,166,149)"/><path d="M-47.481670600066025,-187.90655677655894L-53.83934291742861,-73.66393579301864L-42.47105735549049,-188.75478015663327zM-144.63587474570926,-123.51095107207323L-150.3169065618697,-87.46908072565284L-149.0745003485753,-84.39587600129417z" style="fill:rgb(83,212,212)"/><path d="M60.59212373305188,-22.542367020915965L10.93419460616608,-123.67064561560241L58.35930581122569,-18.43816386485049z" style="fill:rgb(234,114,195)"/><path d="M-143.329751472658,-76.15197777081822L-81.33161267902814,24.1479738867537L-140.75424024888048,-73.77375143575132z" style="fill:rgb(28,51,152)"/><path d="M-42.47105735549049,-188.75478015663327L-48.08126080785314,-76.16225070456116L-37.529349186063314,-189.38508825197172z" style="fill:rgb(83,212,212)"/><path d="M-104.50090677572035,-62.866743738624066L-51.29665875155988,36.57970012938692L-46.5712212225876,37.011168740098476z" style="fill:rgb(79,32,198)"/><path d="M-142.38396545154626,-127.33396423052332L-149.0745003485753,-84.39587600129417L-147.49420978012284,-81.47618850884041zM-137.07717030054005,-134.9220732894801L-147.49420978012284,-81.47618850884041L-145.57810940582047,-78.72376318171756zM-37.529349186063314,-189.38508825197172L-42.39810330229124,-78.88832045383259L-32.67352560879069,-189.79389393618237z" style="fill:rgb(83,212,212)"/><path d="M58.35930581122569,-18.43816386485049L7.9949351054060775,-119.48436025084182L55.811120347398045,-14.353751718705498z" style="fill:rgb(230,108,199)"/><path d="M66.98993106844718,-50.319890884016864L21.486297412265245,-159.16834219895603L21.75254850223333,-155.61960721330018z" style="fill:rgb(247,161,155)"/><path d="M-99.29345543473383,-62.96792488260756L-46.5712212225876,37.011168740098476L-41.688955297626116,37.17253345969627z" style="fill:rgb(86,32,201)"/><path d="M-32.67352560879069,-189.79389393618237L-36.817179078427316,-81.8292152981248L-27.9206063717294,-189.97812289696427zM-134.04495018440497,-138.66171904069387L-145.57810940582047,-78.72376318171756L-143.329751472658,-76.15197777081822z" style="fill:rgb(83,212,212)"/><path d="M-140.75424024888048,-73.77375143575132L-78.4690677083159,26.494301424986823L-137.8582735595878,-71.60145912817772z" style="fill:rgb(32,47,158)"/><path d="M55.811120347398045,-14.353751718705498L4.7270942504824935,-115.31681293771797L52.956639100839965,-10.307844028889829z" style="fill:rgb(226,102,203)"/><path d="M21.66248750701288,-151.93626486833278L66.98993106844718,-50.319890884016864L21.75254850223333,-155.61960721330018z" style="fill:rgb(247,155,161)"/><path d="M-27.9206063717294,-189.97812289696427L-31.3652498437341,-84.97077102570681L-23.287584950897408,-189.93533945004785z" style="fill:rgb(83,212,212)"/><path d="M-93.92196499304445,-63.3481759698814L-41.688955297626116,37.17253345969627L-36.67092078603715,37.06099195849066z" style="fill:rgb(94,32,205)"/><path d="M-130.7761766417167,-142.34866212597052L-143.329751472658,-76.15197777081822L-140.75424024888048,-73.77375143575132z" style="fill:rgb(83,212,212)"/><path d="M52.956639100839965,-10.307844028889829L1.1431743775433105,-111.18748528406664L49.80667734284559,-6.319225906571881z" style="fill:rgb(222,96,207)"/><path d="M-23.287584950897408,-189.93533945004785L-26.068302151050418,-88.29772223224312L-18.791411233928905,-189.6636996675934zM-127.28344893248259,-145.97097909561938L-140.75424024888048,-73.77375143575132L-137.8582735595878,-71.60145912817772z" style="fill:rgb(83,212,212)"/><path d="M-137.8582735595878,-71.60145912817772L-75.32745977782186,28.634866376025556L-134.6501541294296,-69.64683483630617z" style="fill:rgb(37,44,163)"/><path d="M-88.41016094389565,-64.00788432454549L-36.67092078603715,37.06099195849066L-31.53919103607535,36.67514431708955z" style="fill:rgb(101,32,208)"/><path d="M-18.791411233928905,-189.6636996675934L-20.951381981176215,-91.79379799103313L-14.448946054600535,-189.1620186874316z" style="fill:rgb(83,212,212)"/><path d="M21.21214907971145,-148.13238245480935L67.07510062378877,-46.57233893036522L21.66248750701288,-151.93626486833278z" style="fill:rgb(246,149,166)"/><path d="M49.80667734284559,-6.319225906571881L-2.742434754385586,-107.11592975015672L46.37374330906759,-2.4066357110155705z" style="fill:rgb(217,91,210)"/><path d="M-82.78285384539166,-64.94592595950004L-31.53919103607535,36.67514431708955L-26.316716845370216,36.015017607622674z" style="fill:rgb(108,33,211)"/><path d="M-14.448946054600535,-189.1620186874316L-16.03841756111063,-95.44184816025383L-10.27691133266243,-188.42982883010205zM-127.28344893248259,-145.97097909561938L-137.8582735595878,-71.60145912817772L-134.6501541294296,-69.64683483630617z" style="fill:rgb(83,212,212)"/><path d="M46.37374330906759,-2.4066357110155705L-6.913507151032169,-103.12165781766589L42.67200284099206,1.4113630166548847z" style="fill:rgb(212,85,213)"/><path d="M-134.6501541294296,-69.64683483630617L-71.91708704681136,30.55829170576361L-131.13985957109682,-67.92088700664908z" style="fill:rgb(42,41,169)"/><path d="M-77.0658212814293,-66.15964266234366L-26.316716845370216,36.015017607622674L-21.02720388796175,35.08209711462188z" style="fill:rgb(116,34,214)"/><path d="M-10.27691133266243,-188.42982883010205L-11.352054826729121,-99.22396623440946L-6.291835857681068,-187.46735635692582zM-119.67854233014418,-152.97592647329532L-134.6501541294296,-69.64683483630617L-131.13985957109682,-67.92088700664908z" style="fill:rgb(83,212,212)"/><path d="M20.39917475930814,-144.22290066646792L66.8288775693084,-42.724493556900505L21.21214907971145,-148.13238245480935z" style="fill:rgb(245,143,172)"/><path d="M42.67200284099206,1.4113630166548847L-11.352054826729121,-99.22396623440946L38.717206263791766,5.116509650897278z" style="fill:rgb(206,80,215)"/><path d="M-6.291835857681068,-187.46735635692582L-2.742434754385586,-107.11592975015672L-2.510004345165375,-186.27558177560564z" style="fill:rgb(83,212,212)"/><path d="M-71.28559708087347,-67.64482724828008L-21.02720388796175,35.08209711462188L-15.694957896183682,33.87935938788409z" style="fill:rgb(123,36,216)"/><path d="M38.717206263791766,5.116509650897278L-16.03841756111063,-95.44184816025383L34.52663273486169,8.690976756187341z" style="fill:rgb(200,75,217)"/><path d="M-115.59357453409113,-156.33651526703662L-131.13985957109682,-67.92088700664908L-127.33906520452676,-66.43378989693022zM-2.510004345165375,-186.27558177560564L1.1431743775433105,-111.18748528406664L1.0526123607654494,-184.8562681495706z" style="fill:rgb(83,212,212)"/><path d="M-65.46934629078494,-69.39570995184846L-15.694957896183682,33.87935938788409L-10.344734790067543,32.41125814862168z" style="fill:rgb(131,38,218)"/><path d="M34.52663273486169,8.690976756187341L-20.951381981176215,-91.79379799103313L30.11897022530004,12.11749624821475z" style="fill:rgb(194,70,219)"/><path d="M-131.13985957109682,-67.92088700664908L-68.24972722852137,32.25398904888281L-127.33906520452676,-66.43378989693022z" style="fill:rgb(48,39,174)"/><path d="M-59.644653890947595,-71.40501515244144L-10.344734790067543,32.41125814862168L-5.001572827171579,30.68371703593109z" style="fill:rgb(138,40,220)"/><path d="M-20.951381981176215,-91.79379799103313L25.514224026688435,15.379487795190565L30.11897022530004,12.11749624821475z" style="fill:rgb(188,65,220)"/><path d="M19.22289327687533,-140.22361681693684L66.24870507816377,-38.79171232508373L20.39917475930814,-144.22290066646792z" style="fill:rgb(244,137,177)"/><path d="M-111.33893675066994,-159.58842925951055L-127.33906520452676,-66.43378989693022L-123.26106067896959,-65.19477348001455z" style="fill:rgb(83,212,212)"/><path d="M-53.83934291742861,-73.66393579301864L-5.001572827171579,30.68371703593109L0.30937350840663475,28.70412049584558z" style="fill:rgb(146,43,221)"/><path d="M-26.068302151050418,-88.29772223224312L20.733579979269813,18.46118151385959L25.514224026688435,15.379487795190565z" style="fill:rgb(181,61,221)"/><path d="M1.0526123607654494,-184.8562681495706L1.1431743775433105,-111.18748528406664L4.380424139182342,-183.21204250453138z" style="fill:rgb(83,212,212)"/><path d="M-48.08126080785314,-76.16225070456116L0.30937350840663475,28.70412049584558L5.563006608975963,26.481269210366545z" style="fill:rgb(153,46,222)"/><path d="M-31.3652498437341,-84.97077102570681L15.799279713958805,21.347729560776056L20.733579979269813,18.46118151385959z" style="fill:rgb(175,57,222)"/><path d="M-42.39810330229124,-78.88832045383259L5.563006608975963,26.481269210366545L10.734462024920084,24.02531744128538z" style="fill:rgb(160,49,222)"/><path d="M-36.817179078427316,-81.8292152981248L10.734462024920084,24.02531744128538L15.799279713958805,21.347729560776056z" style="fill:rgb(168,53,222)"/><path d="M4.380424139182342,-183.21204250453138L7.9949351054060775,-119.48436025084182L7.458297387452129,-181.34636015378172zM-106.92905833850797,-162.72158489476197L-123.26106067896959,-65.19477348001455L-118.92084975992165,-64.2120576444599z" style="fill:rgb(83,212,212)"/><path d="M-127.33906520452676,-66.43378989693022L-64.33862066128079,33.71222282051572L-123.26106067896959,-65.19477348001455z" style="fill:rgb(54,37,179)"/><path d="M17.684396324324346,-136.1511376138298L65.33356046480932,-34.790082219525615L19.22289327687533,-140.22361681693684z" style="fill:rgb(242,131,182)"/><path d="M7.458297387452129,-181.34636015378172L7.9949351054060775,-119.48436025084182L10.271633916986975,-179.26355491384973zM-102.37863320986574,-165.7262521190514L-118.92084975992165,-64.2120576444599L-114.33504110134216,-63.492759529974755zM10.271633916986975,-179.26355491384973L13.53429668753692,-127.85642321083863L12.806461638417868,-176.9689003913237z" style="fill:rgb(83,212,212)"/><path d="M-123.26106067896959,-65.19477348001455L-60.19845154536395,34.92421833475086L-118.92084975992165,-64.2120576444599z" style="fill:rgb(60,35,184)"/><path d="M12.806461638417868,-176.9689003913237L15.78659839731918,-132.0227520999455L15.04951769890755,-174.46860293908662zM-97.70260512817414,-168.59308204352013L-114.33504110134216,-63.492759529974755L-109.52181426522023,-63.04278392495981z" style="fill:rgb(83,212,212)"/><path d="M15.78659839731918,-132.0227520999455L64.08399507188346,-30.736349206830454L17.684396324324346,-136.1511376138298z" style="fill:rgb(240,125,187)"/><path d="M-60.19845154536395,34.92421833475086L-114.33504110134216,-63.492759529974755L-118.92084975992165,-64.2120576444599z" style="fill:rgb(66,34,189)"/><path d="M-92.91619329312063,-171.31312749068067L-109.52181426522023,-63.04278392495981L-104.50090677572035,-62.866743738624066zM15.04951769890755,-174.46860293908662L15.78659839731918,-132.0227520999455L16.98835257104344,-171.76986125803327zM16.98835257104344,-171.76986125803327L19.22289327687533,-140.22361681693684L18.611417998586543,-168.88079343492092z" style="fill:rgb(83,212,212)"/><path d="M13.53429668753692,-127.85642321083863L62.5022245389751,-26.647835874564695L15.78659839731918,-132.0227520999455z" style="fill:rgb(237,120,191)"/><path d="M-88.03481354318386,-173.87782029321505L-104.50090677572035,-62.866743738624066L-99.29345543473383,-62.96792488260756z" style="fill:rgb(83,212,212)"/><path d="M-55.845312476861444,35.882246184587125L-109.52181426522023,-63.04278392495981L-114.33504110134216,-63.492759529974755z" style="fill:rgb(73,33,193)"/><path d="M18.611417998586543,-168.88079343492092L19.22289327687533,-140.22361681693684L19.90817898305228,-165.8105909339834zM-83.07412088721115,-176.27895316612546L-99.29345543473383,-62.96792488260756L-93.92196499304445,-63.3481759698814z" style="fill:rgb(83,212,212)"/><path d="M10.93419460616608,-123.67064561560241L60.59212373305188,-22.542367020915965L13.53429668753692,-127.85642321083863z" style="fill:rgb(234,114,195)"/><path d="M19.90817898305228,-165.8105909339834L20.39917475930814,-144.22290066646792L20.869209208871826,-162.56938856894806zM20.869209208871826,-162.56938856894806L21.66248750701288,-151.93626486833278L21.486297412265245,-159.16834219895603zM-78.049962181477,-178.50876768259207L-93.92196499304445,-63.3481759698814L-88.41016094389565,-64.00788432454549z" style="fill:rgb(83,212,212)"/><path d="M-51.29665875155988,36.57970012938692L-104.50090677572035,-62.866743738624066L-109.52181426522023,-63.04278392495981z" style="fill:rgb(79,32,198)"/><path d="M-72.9783680985904,-180.55987232458995L-88.41016094389565,-64.00788432454549L-82.78285384539166,-64.94592595950004z" style="fill:rgb(83,212,212)"/><path d="M7.9949351054060775,-119.48436025084182L58.35930581122569,-18.43816386485049L10.93419460616608,-123.67064561560241z" style="fill:rgb(230,108,199)"/><path d="M21.486297412265245,-159.16834219895603L21.66248750701288,-151.93626486833278L21.75254850223333,-155.61960721330018z" style="fill:rgb(83,212,212)"/><path d="M-46.5712212225876,37.011168740098476L-99.29345543473383,-62.96792488260756L-104.50090677572035,-62.866743738624066z" style="fill:rgb(86,32,201)"/><path d="M-67.87555989504452,-182.42532352270072L-82.78285384539166,-64.94592595950004L-77.0658212814293,-66.15964266234366zM20.869209208871826,-162.56938856894806L21.21214907971145,-148.13238245480935L21.66248750701288,-151.93626486833278z" style="fill:rgb(83,212,212)"/><path d="M4.7270942504824935,-115.31681293771797L55.811120347398045,-14.353751718705498L7.9949351054060775,-119.48436025084182z" style="fill:rgb(226,102,203)"/><path d="M-62.75789780423226,-184.09858103643077L-77.0658212814293,-66.15964266234366L-71.28559708087347,-67.64482724828008z" style="fill:rgb(83,212,212)"/><path d="M-41.688955297626116,37.17253345969627L-93.92196499304445,-63.3481759698814L-99.29345543473383,-62.96792488260756z" style="fill:rgb(94,32,205)"/><path d="M20.869209208871826,-162.56938856894806L20.39917475930814,-144.22290066646792L21.21214907971145,-148.13238245480935zM-57.64190715664729,-185.5735446645174L-71.28559708087347,-67.64482724828008L-65.46934629078494,-69.39570995184846z" style="fill:rgb(83,212,212)"/><path d="M1.1431743775433105,-111.18748528406664L52.956639100839965,-10.307844028889829L4.7270942504824935,-115.31681293771797z" style="fill:rgb(222,96,207)"/><path d="M16.98835257104344,-171.76986125803327L17.684396324324346,-136.1511376138298L19.22289327687533,-140.22361681693684zM19.90817898305228,-165.8105909339834L19.22289327687533,-140.22361681693684L20.39917475930814,-144.22290066646792zM-52.544240699473754,-186.84459235162703L-65.46934629078494,-69.39570995184846L-59.644653890947595,-71.40501515244144z" style="fill:rgb(83,212,212)"/><path d="M-36.67092078603715,37.06099195849066L-88.41016094389565,-64.00788432454549L-93.92196499304445,-63.3481759698814z" style="fill:rgb(101,32,208)"/><path d="M-47.481670600066025,-187.90655677655894L-59.644653890947595,-71.40501515244144L-53.83934291742861,-73.66393579301864zM12.806461638417868,-176.9689003913237L13.53429668753692,-127.85642321083863L15.78659839731918,-132.0227520999455z" style="fill:rgb(83,212,212)"/><path d="M-2.742434754385586,-107.11592975015672L49.80667734284559,-6.319225906571881L1.1431743775433105,-111.18748528406664z" style="fill:rgb(217,91,210)"/><path d="M16.98835257104344,-171.76986125803327L15.78659839731918,-132.0227520999455L17.684396324324346,-136.1511376138298zM10.271633916986975,-179.26355491384973L10.93419460616608,-123.67064561560241L13.53429668753692,-127.85642321083863zM-42.47105735549049,-188.75478015663327L-53.83934291742861,-73.66393579301864L-48.08126080785314,-76.16225070456116z" style="fill:rgb(83,212,212)"/><path d="M-31.53919103607535,36.67514431708955L-82.78285384539166,-64.94592595950004L-88.41016094389565,-64.00788432454549z" style="fill:rgb(108,33,211)"/><path d="M-37.529349186063314,-189.38508825197172L-48.08126080785314,-76.16225070456116L-42.39810330229124,-78.88832045383259zM4.380424139182342,-183.21204250453138L4.7270942504824935,-115.31681293771797L7.9949351054060775,-119.48436025084182z" style="fill:rgb(83,212,212)"/><path d="M-6.913507151032169,-103.12165781766589L46.37374330906759,-2.4066357110155705L-2.742434754385586,-107.11592975015672z" style="fill:rgb(212,85,213)"/><path d="M-32.67352560879069,-189.79389393618237L-42.39810330229124,-78.88832045383259L-36.817179078427316,-81.8292152981248zM10.271633916986975,-179.26355491384973L7.9949351054060775,-119.48436025084182L10.93419460616608,-123.67064561560241zM-2.510004345165375,-186.27558177560564L-2.742434754385586,-107.11592975015672L1.1431743775433105,-111.18748528406664zM-27.9206063717294,-189.97812289696427L-36.817179078427316,-81.8292152981248L-31.3652498437341,-84.97077102570681z" style="fill:rgb(83,212,212)"/><path d="M-26.316716845370216,36.015017607622674L-77.0658212814293,-66.15964266234366L-82.78285384539166,-64.94592595950004z" style="fill:rgb(116,34,214)"/><path d="M-6.291835857681068,-187.46735635692582L-6.913507151032169,-103.12165781766589L-2.742434754385586,-107.11592975015672zM-23.287584950897408,-189.93533945004785L-31.3652498437341,-84.97077102570681L-26.068302151050418,-88.29772223224312zM4.380424139182342,-183.21204250453138L1.1431743775433105,-111.18748528406664L4.7270942504824935,-115.31681293771797z" style="fill:rgb(83,212,212)"/><path d="M-11.352054826729121,-99.22396623440946L42.67200284099206,1.4113630166548847L-6.913507151032169,-103.12165781766589z" style="fill:rgb(206,80,215)"/><path d="M-18.791411233928905,-189.6636996675934L-26.068302151050418,-88.29772223224312L-20.951381981176215,-91.79379799103313zM-14.448946054600535,-189.1620186874316L-20.951381981176215,-91.79379799103313L-16.03841756111063,-95.44184816025383zM-10.27691133266243,-188.42982883010205L-16.03841756111063,-95.44184816025383L-11.352054826729121,-99.22396623440946zM-6.291835857681068,-187.46735635692582L-11.352054826729121,-99.22396623440946L-6.913507151032169,-103.12165781766589z" style="fill:rgb(83,212,212)"/><path d="M-21.02720388796175,35.08209711462188L-71.28559708087347,-67.64482724828008L-77.0658212814293,-66.15964266234366z" style="fill:rgb(123,36,216)"/><path d="M-16.03841756111063,-95.44184816025383L38.717206263791766,5.116509650897278L-11.352054826729121,-99.22396623440946z" style="fill:rgb(200,75,217)"/><path d="M-15.694957896183682,33.87935938788409L-65.46934629078494,-69.39570995184846L-71.28559708087347,-67.64482724828008z" style="fill:rgb(131,38,218)"/><path d="M-20.951381981176215,-91.79379799103313L34.52663273486169,8.690976756187341L-16.03841756111063,-95.44184816025383z" style="fill:rgb(194,70,219)"/><path d="M-10.344734790067543,32.41125814862168L-59.644653890947595,-71.40501515244144L-65.46934629078494,-69.39570995184846z" style="fill:rgb(138,40,220)"/><path d="M25.514224026688435,15.379487795190565L-20.951381981176215,-91.79379799103313L-26.068302151050418,-88.29772223224312z" style="fill:rgb(188,65,220)"/><path d="M-5.001572827171579,30.68371703593109L-53.83934291742861,-73.66393579301864L-59.644653890947595,-71.40501515244144z" style="fill:rgb(146,43,221)"/><path d="M20.733579979269813,18.46118151385959L-26.068302151050418,-88.29772223224312L-31.3652498437341,-84.97077102570681z" style="fill:rgb(181,61,221)"/><path d="M0.30937350840663475,28.70412049584558L-48.08126080785314,-76.16225070456116L-53.83934291742861,-73.66393579301864z" style="fill:rgb(153,46,222)"/><path d="M15.799279713958805,21.347729560776056L-31.3652498437341,-84.97077102570681L-36.817179078427316,-81.8292152981248z" style="fill:rgb(175,57,222)"/><path d="M5.563006608975963,26.481269210366545L-42.39810330229124,-78.88832045383259L-48.08126080785314,-76.16225070456116z" style="fill:rgb(160,49,222)"/><path d="M10.734462024920084,24.02531744128538L-36.817179078427316,-81.8292152981248L-42.39810330229124,-78.88832045383259z" style="fill:rgb(168,53,222)"/></svg>
